AlegreyaSans-Italic.ufo
<glyph name="exclam" format="2">
  <advance width="262"/>
  <unicode hex="0021"/>
  <outline>
    <contour>
      <point x="231" y="661" type="line"/>
      <point x="165" y="657" type="line"/>
      <point x="155" y="647" type="line"/>
      <point x="104" y="224" type="line"/>
      <point x="113" y="214" type="line"/>
      <point x="163" y="220" type="line"/>
      <point x="239" y="650" type="line"/>
    </contour>
    <contour>
      <point x="115" y="93" type="curve" smooth="yes"/>
      <point x="84" y="93"/>
      <point x="65" y="73"/>
      <point x="65" y="43" type="curve" smooth="yes"/>
      <point x="65" y="13"/>
      <point x="82" y="-5"/>
      <point x="112" y="-5" type="curve" smooth="yes"/>
      <point x="142" y="-5"/>
      <point x="161" y="15"/>
      <point x="161" y="46" type="curve" smooth="yes"/>
      <point x="161" y="75"/>
      <point x="144" y="93"/>
    </contour>
  </outline>
</glyph>
<glyph name="quotedbl" format="2">
  <advance width="289.579"/>
  <unicode hex="0022"/>
  <outline>
    <contour>
      <point x="292" y="639" type="line"/>
      <point x="226" y="634" type="line"/>
      <point x="199" y="446" type="line"/>
      <point x="205" y="439" type="line"/>
      <point x="249" y="445" type="line"/>
      <point x="297" y="632" type="line"/>
    </contour>
    <contour>
      <point x="172" y="639" type="line"/>
      <point x="106" y="634" type="line"/>
      <point x="79" y="446" type="line"/>
      <point x="85" y="439" type="line"/>
      <point x="129" y="445" type="line"/>
      <point x="177" y="632" type="line"/>
    </contour>
  </outline>
</glyph>
<glyph name="dollar" format="2">
  <advance width="420"/>
  <unicode hex="0024"/>
  <anchor x="195" y="0" name="bottom"/>
  <anchor x="202" y="498" name="top"/>
  <outline>
    <contour>
      <point x="260" y="502" type="curve" smooth="yes"/>
      <point x="146" y="502"/>
      <point x="75" y="431"/>
      <point x="75" y="354" type="curve" smooth="yes"/>
      <point x="75" y="214"/>
      <point x="294" y="229"/>
      <point x="294" y="134" type="curve" smooth="yes"/>
      <point x="294" y="91"/>
      <point x="247" y="49"/>
      <point x="181" y="49" type="curve" smooth="yes"/>
      <point x="139" y="49"/>
      <point x="86" y="68"/>
      <point x="51" y="105" type="curve"/>
      <point x="41" y="101" type="line"/>
      <point x="26" y="28" type="line"/>
      <point x="70" y="5"/>
      <point x="129" y="-5"/>
      <point x="173" y="-5" type="curve" smooth="yes"/>
      <point x="294" y="-5"/>
      <point x="363" y="72"/>
      <point x="363" y="148" type="curve" smooth="yes"/>
      <point x="363" y="287"/>
      <point x="144" y="273"/>
      <point x="144" y="366" type="curve" smooth="yes"/>
      <point x="144" y="405"/>
      <point x="184" y="447"/>
      <point x="253" y="447" type="curve" smooth="yes"/>
      <point x="288" y="447"/>
      <point x="319" y="435"/>
      <point x="353" y="406" type="curve"/>
      <point x="365" y="409" type="line"/>
      <point x="384" y="478" type="line"/>
      <point x="344" y="495"/>
      <point x="297" y="502"/>
    </contour>
    <contour>
      <point x="219" y="32" type="line"/>
      <point x="168" y="32" type="line"/>
      <point x="149" y="-122" type="line"/>
      <point x="156" y="-130" type="line"/>
      <point x="198" y="-130" type="line"/>
    </contour>
    <contour>
      <point x="276" y="465" type="line"/>
      <point x="225" y="465" type="line"/>
      <point x="168" y="32" type="line"/>
      <point x="219" y="32" type="line"/>
    </contour>
    <contour>
      <point x="288" y="641" type="line"/>
      <point x="246" y="641" type="line"/>
      <point x="225" y="465" type="line"/>
      <point x="275" y="465" type="line"/>
      <point x="297" y="632" type="line"/>
    </contour>
  </outline>
</glyph>
<glyph name="ampersand" format="2">
  <advance width="641"/>
  <unicode hex="0026"/>
  <outline>
    <contour>
      <point x="338" y="650" type="curve" smooth="yes"/>
      <point x="200" y="650"/>
      <point x="120" y="579"/>
      <point x="120" y="472" type="curve" smooth="yes"/>
      <point x="120" y="408"/>
      <point x="149" y="359"/>
      <point x="203" y="332" type="curve"/>
      <point x="203" y="328" type="line"/>
      <point x="104" y="285"/>
      <point x="56" y="223"/>
      <point x="56" y="148" type="curve" smooth="yes"/>
      <point x="56" y="53"/>
      <point x="136" y="-9"/>
      <point x="269" y="-9" type="curve" smooth="yes"/>
      <point x="434" y="-9"/>
      <point x="517" y="88"/>
      <point x="517" y="202" type="curve" smooth="yes"/>
      <point x="517" y="241"/>
      <point x="507" y="277"/>
      <point x="489" y="304" type="curve"/>
      <point x="491" y="309" type="line"/>
      <point x="660" y="317" type="line"/>
      <point x="677" y="377" type="line"/>
      <point x="669" y="390" type="line"/>
      <point x="570" y="377" type="line"/>
      <point x="296" y="362" type="line"/>
      <point x="234" y="366"/>
      <point x="197" y="406"/>
      <point x="197" y="471" type="curve" smooth="yes"/>
      <point x="197" y="545"/>
      <point x="244" y="584"/>
      <point x="322" y="584" type="curve" smooth="yes"/>
      <point x="370" y="584"/>
      <point x="413" y="569"/>
      <point x="460" y="540" type="curve"/>
      <point x="473" y="543" type="line"/>
      <point x="496" y="615" type="line"/>
      <point x="440" y="639"/>
      <point x="393" y="650"/>
    </contour>
    <contour>
      <point x="400" y="305" type="line"/>
      <point x="427" y="283"/>
      <point x="442" y="245"/>
      <point x="442" y="202" type="curve" smooth="yes"/>
      <point x="442" y="117"/>
      <point x="388" y="53"/>
      <point x="280" y="53" type="curve" smooth="yes"/>
      <point x="194" y="53"/>
      <point x="141" y="94"/>
      <point x="141" y="160" type="curve" smooth="yes"/>
      <point x="141" y="221"/>
      <point x="183" y="266"/>
      <point x="256" y="299" type="curve"/>
    </contour>
  </outline>
</glyph>
<glyph name="quotesingle" format="2">
  <advance width="169.579"/>
  <unicode hex="0027"/>
  <outline>
    <contour>
      <point x="172" y="639" type="line"/>
      <point x="106" y="634" type="line"/>
      <point x="79" y="446" type="line"/>
      <point x="85" y="439" type="line"/>
      <point x="129" y="445" type="line"/>
      <point x="177" y="632" type="line"/>
    </contour>
  </outline>
</glyph>
<glyph name="parenleft" format="2">
  <advance width="288.334"/>
  <unicode hex="0028"/>
  <outline>
    <contour>
      <point x="292" y="662" type="line"/>
      <point x="284" y="662" type="line"/>
      <point x="101" y="543"/>
      <point x="63" y="307"/>
      <point x="63" y="154" type="curve" smooth="yes"/>
      <point x="63" y="14"/>
      <point x="95" y="-68"/>
      <point x="185" y="-141" type="curve"/>
      <point x="193" y="-141" type="line"/>
      <point x="228" y="-113" type="line"/>
      <point x="229" y="-105" type="line"/>
      <point x="155" y="-39"/>
      <point x="132" y="36"/>
      <point x="132" y="153" type="curve" smooth="yes"/>
      <point x="132" y="285"/>
      <point x="161" y="514"/>
      <point x="319" y="626" type="curve"/>
      <point x="320" y="634" type="line"/>
    </contour>
  </outline>
</glyph>
<glyph name="asterisk" format="2">
  <advance width="376"/>
  <unicode hex="002A"/>
  <outline>
    <contour>
      <point x="193" y="537" type="line"/>
      <point x="108" y="454" type="line"/>
      <point x="108" y="447" type="line"/>
      <point x="127" y="436"/>
      <point x="147" y="424"/>
      <point x="166" y="418" type="curve"/>
      <point x="224" y="511" type="line"/>
      <point x="223" y="521" type="line"/>
    </contour>
    <contour>
      <point x="103" y="657" type="line"/>
      <point x="95" y="655" type="line"/>
      <point x="88" y="635"/>
      <point x="86" y="610"/>
      <point x="86" y="591" type="curve"/>
      <point x="186" y="557" type="line"/>
      <point x="195" y="561" type="line"/>
      <point x="200" y="596" type="line"/>
    </contour>
    <contour>
      <point x="268" y="538" type="line"/>
      <point x="243" y="515" type="line"/>
      <point x="287" y="401" type="line"/>
      <point x="295" y="400" type="line"/>
      <point x="312" y="413"/>
      <point x="328" y="427"/>
      <point x="339" y="446" type="curve"/>
      <point x="277" y="537" type="line"/>
    </contour>
    <contour>
      <point x="275" y="735" type="line"/>
      <point x="254" y="735"/>
      <point x="232" y="732"/>
      <point x="212" y="725" type="curve"/>
      <point x="214" y="611" type="line"/>
      <point x="220" y="604" type="line"/>
      <point x="255" y="608" type="line"/>
      <point x="279" y="728" type="line"/>
    </contour>
    <contour>
      <point x="370" y="635" type="curve"/>
      <point x="271" y="598" type="line"/>
      <point x="267" y="589" type="line"/>
      <point x="282" y="557" type="line"/>
      <point x="394" y="572" type="line"/>
      <point x="398" y="577" type="line"/>
      <point x="392" y="598"/>
      <point x="381" y="618"/>
    </contour>
  </outline>
</glyph>
<glyph name="plus" format="2">
  <advance width="477"/>
  <unicode hex="002B"/>
  <outline>
    <contour>
      <point x="292" y="475" type="line"/>
      <point x="238" y="470" type="line"/>
      <point x="216" y="294" type="line"/>
      <point x="42" y="294" type="line"/>
      <point x="30" y="241" type="line"/>
      <point x="35" y="235" type="line"/>
      <point x="209" y="235" type="line"/>
      <point x="188" y="61" type="line"/>
      <point x="194" y="55" type="line"/>
      <point x="248" y="59" type="line"/>
      <point x="269" y="235" type="line"/>
      <point x="444" y="235" type="line"/>
      <point x="456" y="288" type="line"/>
      <point x="449" y="294" type="line"/>
      <point x="276" y="294" type="line"/>
      <point x="298" y="468" type="line"/>
    </contour>
  </outline>
</glyph>
<glyph name="comma" format="2">
  <advance width="229.361"/>
  <unicode hex="002C"/>
  <outline>
    <contour>
      <point x="101" y="92" type="curve"/>
      <point x="79" y="86"/>
      <point x="59" y="76"/>
      <point x="41" y="64" type="curve"/>
      <point x="41" y="56" type="line"/>
      <point x="61" y="42"/>
      <point x="72" y="26"/>
      <point x="72" y="7" type="curve"/>
      <point x="72" y="-23"/>
      <point x="53" y="-53"/>
      <point x="17" y="-82" type="curve"/>
      <point x="17" y="-89" type="line"/>
      <point x="46" y="-115" type="line"/>
      <point x="111" y="-68"/>
      <point x="143" y="-22"/>
      <point x="143" y="23" type="curve"/>
      <point x="143" y="51"/>
      <point x="128" y="74"/>
    </contour>
  </outline>
</glyph>
<glyph name="hyphen" format="2">
  <advance width="306.958"/>
  <unicode hex="002D"/>
  <outline>
    <contour>
      <point x="279" y="302" type="line"/>
      <point x="34" y="268" type="line"/>
      <point x="27" y="214" type="line"/>
      <point x="34" y="206" type="line"/>
      <point x="279" y="241" type="line"/>
      <point x="286" y="295" type="line"/>
    </contour>
  </outline>
</glyph>
<glyph name="period" format="2">
  <advance width="230"/>
  <unicode hex="002E"/>
  <outline>
    <contour>
      <point x="94" y="93" type="curve" smooth="yes"/>
      <point x="63" y="93"/>
      <point x="44" y="73"/>
      <point x="44" y="43" type="curve" smooth="yes"/>
      <point x="44" y="13"/>
      <point x="61" y="-5"/>
      <point x="91" y="-5" type="curve" smooth="yes"/>
      <point x="121" y="-5"/>
      <point x="140" y="15"/>
      <point x="140" y="46" type="curve" smooth="yes"/>
      <point x="140" y="75"/>
      <point x="123" y="93"/>
    </contour>
  </outline>
</glyph>
<glyph name="slash" format="2">
  <advance width="287"/>
  <unicode hex="002F"/>
  <outline>
    <contour>
      <point x="311" y="678" type="line"/>
      <point x="253" y="678" type="line"/>
      <point x="-7" y="-105" type="line"/>
      <point x="-2" y="-113" type="line"/>
      <point x="57" y="-113" type="line"/>
      <point x="317" y="669" type="line"/>
    </contour>
  </outline>
</glyph>
<glyph name="zero" format="2">
  <advance width="530.623"/>
  <unicode hex="0030"/>
  <outline>
    <contour>
      <point x="300" y="505" type="curve" smooth="yes"/>
      <point x="138" y="505"/>
      <point x="46" y="381"/>
      <point x="46" y="211" type="curve" smooth="yes"/>
      <point x="46" y="62"/>
      <point x="116" y="-7"/>
      <point x="238" y="-7" type="curve" smooth="yes"/>
      <point x="400" y="-7"/>
      <point x="490" y="114"/>
      <point x="490" y="286" type="curve" smooth="yes"/>
      <point x="490" y="437"/>
      <point x="420" y="505"/>
    </contour>
    <contour>
      <point x="288" y="427" type="curve" smooth="yes"/>
      <point x="379" y="427"/>
      <point x="421" y="376"/>
      <point x="421" y="272" type="curve" smooth="yes"/>
      <point x="421" y="146"/>
      <point x="360" y="68"/>
      <point x="246" y="68" type="curve" smooth="yes"/>
      <point x="155" y="68"/>
      <point x="114" y="118"/>
      <point x="114" y="221" type="curve" smooth="yes"/>
      <point x="114" y="346"/>
      <point x="174" y="427"/>
    </contour>
  </outline>
</glyph>
<glyph name="one" format="2">
  <advance width="345.523"/>
  <unicode hex="0031"/>
  <outline>
    <contour>
      <point x="250" y="503" type="line"/>
      <point x="37" y="442" type="line"/>
      <point x="29" y="375" type="line"/>
      <point x="36" y="370" type="line"/>
      <point x="168" y="406" type="line"/>
      <point x="143" y="197" type="line"/>
      <point x="114" y="0" type="line"/>
      <point x="200" y="0" type="line"/>
      <point x="220" y="207" type="line"/>
      <point x="261" y="494" type="line"/>
    </contour>
  </outline>
</glyph>
<glyph name="two" format="2">
  <advance width="456.952"/>
  <unicode hex="0032"/>
  <outline>
    <contour>
      <point x="258" y="503" type="curve" smooth="yes"/>
      <point x="194" y="503"/>
      <point x="133" y="474"/>
      <point x="76" y="429" type="curve"/>
      <point x="81" y="363" type="line"/>
      <point x="91" y="363" type="line"/>
      <point x="136" y="405"/>
      <point x="189" y="430"/>
      <point x="236" y="430" type="curve" smooth="yes"/>
      <point x="280" y="430"/>
      <point x="303" y="407"/>
      <point x="303" y="376" type="curve" smooth="yes"/>
      <point x="303" y="333"/>
      <point x="257" y="285"/>
      <point x="179" y="208" type="curve" smooth="yes"/>
      <point x="25" y="55" type="line"/>
      <point x="18" y="2" type="line"/>
      <point x="23" y="-2" type="line"/>
      <point x="60" y="0" type="line"/>
      <point x="285" y="0" type="line"/>
      <point x="388" y="-4" type="line"/>
      <point x="408" y="67" type="line"/>
      <point x="403" y="73" type="line"/>
      <point x="317" y="66" type="line"/>
      <point x="141" y="66" type="line"/>
      <point x="139" y="70" type="line"/>
      <point x="234" y="170" type="line" smooth="yes"/>
      <point x="343" y="285"/>
      <point x="389" y="338"/>
      <point x="389" y="395" type="curve" smooth="yes"/>
      <point x="389" y="460"/>
      <point x="334" y="503"/>
    </contour>
  </outline>
</glyph>
<glyph name="three" format="2">
  <advance width="414.378"/>
  <unicode hex="0033"/>
  <outline>
    <contour>
      <point x="214" y="504" type="curve" smooth="yes"/>
      <point x="159" y="504"/>
      <point x="111" y="484"/>
      <point x="56" y="442" type="curve"/>
      <point x="60" y="375" type="line"/>
      <point x="69" y="375" type="line"/>
      <point x="117" y="413"/>
      <point x="158" y="434"/>
      <point x="201" y="434" type="curve" smooth="yes"/>
      <point x="248" y="434"/>
      <point x="277" y="408"/>
      <point x="277" y="367" type="curve" smooth="yes"/>
      <point x="277" y="297"/>
      <point x="201" y="248"/>
      <point x="145" y="248" type="curve" smooth="yes"/>
      <point x="101" y="247" type="line"/>
      <point x="91" y="188" type="line"/>
      <point x="96" y="182" type="line"/>
      <point x="156" y="182" type="line"/>
      <point x="230" y="179"/>
      <point x="269" y="147"/>
      <point x="269" y="94" type="curve" smooth="yes"/>
      <point x="269" y="18"/>
      <point x="203" y="-29"/>
      <point x="111" y="-29" type="curve" smooth="yes"/>
      <point x="77" y="-29"/>
      <point x="42" y="-20"/>
      <point x="11" y="-3" type="curve"/>
      <point x="3" y="-10" type="line"/>
      <point x="-1" y="-86" type="line"/>
      <point x="28" y="-92"/>
      <point x="70" y="-97"/>
      <point x="102" y="-97" type="curve" smooth="yes"/>
      <point x="244" y="-97"/>
      <point x="352" y="-12"/>
      <point x="352" y="100" type="curve" smooth="yes"/>
      <point x="352" y="168"/>
      <point x="313" y="206"/>
      <point x="246" y="224" type="curve"/>
      <point x="246" y="228" type="line"/>
      <point x="329" y="267"/>
      <point x="366" y="330"/>
      <point x="366" y="384" type="curve" smooth="yes"/>
      <point x="366" y="456"/>
      <point x="309" y="504"/>
    </contour>
  </outline>
</glyph>
<glyph name="four" format="2">
  <advance width="482.849"/>
  <unicode hex="0034"/>
  <outline>
    <contour>
      <point x="387" y="499" type="line"/>
      <point x="307" y="499" type="line"/>
      <point x="14" y="138" type="line"/>
      <point x="8" y="81" type="line"/>
      <point x="13" y="73" type="line"/>
      <point x="81" y="75" type="line"/>
      <point x="334" y="75" type="line"/>
      <point x="428" y="73" type="line"/>
      <point x="440" y="133" type="line"/>
      <point x="435" y="141" type="line"/>
      <point x="90" y="141" type="line"/>
      <point x="300" y="397" type="line"/>
      <point x="307" y="397" type="line"/>
      <point x="272" y="122" type="line"/>
      <point x="242" y="-91" type="line"/>
      <point x="247" y="-97" type="line"/>
      <point x="312" y="-92" type="line"/>
      <point x="318" y="-85" type="line"/>
      <point x="338" y="109" type="line"/>
    </contour>
  </outline>
</glyph>
<glyph name="five" format="2">
  <advance width="419"/>
  <unicode hex="0035"/>
  <outline>
    <contour>
      <point x="402" y="503" type="line"/>
      <point x="308" y="499" type="line"/>
      <point x="173" y="499" type="line"/>
      <point x="119" y="501" type="line"/>
      <point x="104" y="489" type="line"/>
      <point x="72" y="226" type="line"/>
      <point x="78" y="218" type="line"/>
      <point x="175" y="200" type="line" smooth="yes"/>
      <point x="244" y="187"/>
      <point x="279" y="155"/>
      <point x="279" y="103" type="curve" smooth="yes"/>
      <point x="279" y="26"/>
      <point x="216" y="-31"/>
      <point x="121" y="-31" type="curve" smooth="yes"/>
      <point x="86" y="-31"/>
      <point x="51" y="-23"/>
      <point x="13" y="-5" type="curve"/>
      <point x="5" y="-12" type="line"/>
      <point x="2" y="-88" type="line"/>
      <point x="33" y="-94"/>
      <point x="71" y="-98"/>
      <point x="102" y="-98" type="curve" smooth="yes"/>
      <point x="247" y="-98"/>
      <point x="360" y="-4"/>
      <point x="360" y="113" type="curve" smooth="yes"/>
      <point x="360" y="194"/>
      <point x="308" y="244"/>
      <point x="206" y="265" type="curve" smooth="yes"/>
      <point x="144" y="278" type="line"/>
      <point x="164" y="429" type="line"/>
      <point x="307" y="429" type="line"/>
      <point x="383" y="423" type="line"/>
      <point x="390" y="429" type="line"/>
      <point x="406" y="497" type="line"/>
    </contour>
  </outline>
</glyph>
<glyph name="six" format="2">
  <advance width="470.955"/>
  <unicode hex="0036"/>
  <outline>
    <contour>
      <point x="390" y="594" type="line"/>
      <point x="385" y="594" type="line"/>
      <point x="126" y="498"/>
      <point x="40" y="321"/>
      <point x="40" y="181" type="curve" smooth="yes"/>
      <point x="40" y="67"/>
      <point x="101" y="-8"/>
      <point x="222" y="-8" type="curve" smooth="yes"/>
      <point x="381" y="-8"/>
      <point x="425" y="122"/>
      <point x="425" y="196" type="curve" smooth="yes"/>
      <point x="425" y="282"/>
      <point x="361" y="350"/>
      <point x="270" y="350" type="curve" smooth="yes"/>
      <point x="225" y="350"/>
      <point x="188" y="334"/>
      <point x="147" y="308" type="curve"/>
      <point x="134" y="326" type="line"/>
      <point x="112" y="221" type="line"/>
      <point x="156" y="265"/>
      <point x="208" y="288"/>
      <point x="254" y="288" type="curve" smooth="yes"/>
      <point x="315" y="288"/>
      <point x="347" y="251"/>
      <point x="347" y="187" type="curve" smooth="yes"/>
      <point x="347" y="125"/>
      <point x="321" y="54"/>
      <point x="226" y="54" type="curve" smooth="yes"/>
      <point x="138" y="54"/>
      <point x="118" y="115"/>
      <point x="118" y="187" type="curve" smooth="yes"/>
      <point x="118" y="308"/>
      <point x="167" y="455"/>
      <point x="455" y="546" type="curve"/>
      <point x="456" y="555" type="line"/>
    </contour>
  </outline>
</glyph>
<glyph name="seven" format="2">
  <advance width="419.399"/>
  <unicode hex="0037"/>
  <outline>
    <contour>
      <point x="61" y="502" type="line"/>
      <point x="46" y="429" type="line"/>
      <point x="51" y="420" type="line"/>
      <point x="129" y="428" type="line"/>
      <point x="333" y="428" type="line"/>
      <point x="42" y="-66" type="line"/>
      <point x="45" y="-80" type="line"/>
      <point x="113" y="-102" type="line"/>
      <point x="174" y="20" type="line"/>
      <point x="417" y="438" type="line"/>
      <point x="423" y="501" type="line"/>
      <point x="380" y="499" type="line"/>
      <point x="152" y="499" type="line"/>
    </contour>
  </outline>
</glyph>
<glyph name="eight" format="2">
  <advance width="478"/>
  <unicode hex="0038"/>
  <outline>
    <contour>
      <point x="276" y="592" type="curve" smooth="yes"/>
      <point x="167" y="592"/>
      <point x="93" y="524"/>
      <point x="93" y="426" type="curve" smooth="yes"/>
      <point x="93" y="356"/>
      <point x="129" y="325"/>
      <point x="173" y="300" type="curve"/>
      <point x="172" y="295" type="line"/>
      <point x="101" y="263"/>
      <point x="38" y="223"/>
      <point x="38" y="139" type="curve" smooth="yes"/>
      <point x="38" y="51"/>
      <point x="107" y="-7"/>
      <point x="216" y="-7" type="curve" smooth="yes"/>
      <point x="338" y="-7"/>
      <point x="418" y="65"/>
      <point x="418" y="165" type="curve" smooth="yes"/>
      <point x="418" y="245"/>
      <point x="370" y="277"/>
      <point x="317" y="304" type="curve"/>
      <point x="318" y="309" type="line"/>
      <point x="373" y="336"/>
      <point x="431" y="378"/>
      <point x="431" y="459" type="curve" smooth="yes"/>
      <point x="431" y="543"/>
      <point x="369" y="592"/>
    </contour>
    <contour>
      <point x="234" y="270" type="curve"/>
      <point x="300" y="243"/>
      <point x="347" y="220"/>
      <point x="347" y="160" type="curve" smooth="yes"/>
      <point x="347" y="99"/>
      <point x="294" y="52"/>
      <point x="218" y="52" type="curve" smooth="yes"/>
      <point x="149" y="52"/>
      <point x="111" y="90"/>
      <point x="111" y="149" type="curve" smooth="yes"/>
      <point x="111" y="221"/>
      <point x="172" y="247"/>
    </contour>
    <contour>
      <point x="275" y="532" type="curve" smooth="yes"/>
      <point x="332" y="532"/>
      <point x="362" y="503"/>
      <point x="362" y="452" type="curve" smooth="yes"/>
      <point x="362" y="386"/>
      <point x="310" y="355"/>
      <point x="255" y="332" type="curve"/>
      <point x="204" y="353"/>
      <point x="163" y="376"/>
      <point x="163" y="434" type="curve" smooth="yes"/>
      <point x="163" y="492"/>
      <point x="209" y="532"/>
    </contour>
  </outline>
</glyph>
<glyph name="less" format="2">
  <advance width="498"/>
  <unicode hex="003C"/>
  <outline>
    <contour>
      <point x="449" y="464" type="line"/>
      <point x="50" y="308" type="line"/>
      <point x="42" y="299" type="line"/>
      <point x="34" y="229" type="line"/>
      <point x="396" y="78" type="line"/>
      <point x="406" y="84" type="line"/>
      <point x="425" y="133" type="line"/>
      <point x="103" y="263" type="line"/>
      <point x="103" y="269" type="line"/>
      <point x="457" y="407" type="line"/>
      <point x="462" y="415" type="line"/>
    </contour>
  </outline>
</glyph>
<glyph name="greater" format="2">
  <advance width="503"/>
  <unicode hex="003E"/>
  <outline>
    <contour>
      <point x="109" y="464" type="line"/>
      <point x="84" y="415" type="line"/>
      <point x="87" y="407" type="line"/>
      <point x="407" y="269" type="line"/>
      <point x="407" y="263" type="line"/>
      <point x="52" y="133" type="line"/>
      <point x="59" y="84" type="line"/>
      <point x="67" y="78" type="line"/>
      <point x="468" y="229" type="line"/>
      <point x="476" y="299" type="line"/>
      <point x="470" y="308" type="line"/>
    </contour>
  </outline>
</glyph>
<glyph name="question" format="2">
  <advance width="333"/>
  <unicode hex="003F"/>
  <outline>
    <contour>
      <point x="140" y="662" type="curve"/>
      <point x="129" y="657" type="line"/>
      <point x="108" y="613" type="line"/>
      <point x="113" y="605" type="line"/>
      <point x="238" y="597"/>
      <point x="295" y="561"/>
      <point x="295" y="504" type="curve" smooth="yes"/>
      <point x="295" y="463"/>
      <point x="268" y="430"/>
      <point x="222" y="405" type="curve" smooth="yes"/>
      <point x="120" y="348" type="line"/>
      <point x="114" y="339" type="line"/>
      <point x="108" y="218" type="line"/>
      <point x="113" y="211" type="line"/>
      <point x="174" y="218" type="line"/>
      <point x="180" y="313" type="line"/>
      <point x="182" y="317" type="line"/>
      <point x="271" y="370" type="line" smooth="yes"/>
      <point x="336" y="407"/>
      <point x="374" y="460"/>
      <point x="374" y="517" type="curve" smooth="yes"/>
      <point x="374" y="601"/>
      <point x="287" y="653"/>
    </contour>
    <contour>
      <point x="133" y="93" type="curve" smooth="yes"/>
      <point x="102" y="93"/>
      <point x="83" y="73"/>
      <point x="83" y="43" type="curve" smooth="yes"/>
      <point x="83" y="13"/>
      <point x="100" y="-5"/>
      <point x="130" y="-5" type="curve" smooth="yes"/>
      <point x="160" y="-5"/>
      <point x="179" y="15"/>
      <point x="179" y="46" type="curve" smooth="yes"/>
      <point x="179" y="75"/>
      <point x="162" y="93"/>
    </contour>
  </outline>
</glyph>
<glyph name="A" format="2">
  <advance width="553"/>
  <unicode hex="0041"/>
  <anchor x="249" y="0" name="bottom"/>
  <anchor x="506" y="0" name="ogonek"/>
  <anchor x="331" y="641" name="top"/>
  <outline>
    <contour>
      <point x="385" y="641" type="line"/>
      <point x="286" y="641" type="line"/>
      <point x="-15" y="0" type="line"/>
      <point x="70" y="0" type="line"/>
      <point x="95" y="70" type="line"/>
      <point x="319" y="554" type="line"/>
      <point x="326" y="554" type="line"/>
      <point x="413" y="66" type="line"/>
      <point x="420" y="0" type="line"/>
      <point x="506" y="0" type="line"/>
    </contour>
    <contour>
      <point x="427" y="244" type="line"/>
      <point x="277" y="241" type="line"/>
      <point x="126" y="244" type="line"/>
      <point x="117" y="170" type="line"/>
      <point x="262" y="173" type="line"/>
      <point x="418" y="170" type="line"/>
    </contour>
  </outline>
</glyph>
<glyph name="B" format="2">
  <advance width="520"/>
  <unicode hex="0042"/>
  <outline>
    <contour>
      <point x="314" y="642" type="curve"/>
      <point x="142" y="641" type="line"/>
      <point x="176" y="571" type="line"/>
      <point x="217" y="572"/>
      <point x="257" y="572"/>
      <point x="291" y="572" type="curve" smooth="yes"/>
      <point x="363" y="572"/>
      <point x="393" y="548"/>
      <point x="393" y="493" type="curve" smooth="yes"/>
      <point x="393" y="418"/>
      <point x="358" y="376"/>
      <point x="290" y="360" type="curve"/>
      <point x="138" y="364" type="line"/>
      <point x="129" y="291" type="line"/>
      <point x="294" y="293" type="line"/>
      <point x="359" y="284"/>
      <point x="393" y="253"/>
      <point x="393" y="197" type="curve" smooth="yes"/>
      <point x="393" y="114"/>
      <point x="332" y="67"/>
      <point x="223" y="67" type="curve" smooth="yes"/>
      <point x="196" y="67"/>
      <point x="149" y="70"/>
      <point x="119" y="74" type="curve"/>
      <point x="61" y="0" type="line"/>
      <point x="99" y="-3"/>
      <point x="182" y="-4"/>
      <point x="202" y="-4" type="curve" smooth="yes"/>
      <point x="388" y="-4"/>
      <point x="480" y="67"/>
      <point x="480" y="201" type="curve" smooth="yes"/>
      <point x="480" y="268"/>
      <point x="444" y="310"/>
      <point x="369" y="334" type="curve"/>
      <point x="440" y="364"/>
      <point x="481" y="424"/>
      <point x="481" y="507" type="curve" smooth="yes"/>
      <point x="481" y="596"/>
      <point x="418" y="642"/>
    </contour>
    <contour>
      <point x="227" y="641" type="line"/>
      <point x="141" y="641" type="line"/>
      <point x="90" y="193" type="line"/>
      <point x="60" y="0" type="line"/>
      <point x="146" y="0" type="line"/>
      <point x="166" y="200" type="line"/>
    </contour>
  </outline>
</glyph>
<glyph name="C" format="2">
  <advance width="501"/>
  <unicode hex="0043"/>
  <anchor x="302" y="0" name="bottom"/>
  <anchor x="337" y="641" name="top"/>
  <outline>
    <contour>
      <point x="362" y="647" type="curve" smooth="yes"/>
      <point x="163" y="647"/>
      <point x="45" y="500"/>
      <point x="45" y="256" type="curve" smooth="yes"/>
      <point x="45" y="89"/>
      <point x="128" y="-7"/>
      <point x="273" y="-7" type="curve" smooth="yes"/>
      <point x="335" y="-7"/>
      <point x="386" y="8"/>
      <point x="443" y="39" type="curve"/>
      <point x="461" y="121" type="line"/>
      <point x="452" y="126" type="line"/>
      <point x="402" y="88"/>
      <point x="343" y="66"/>
      <point x="287" y="66" type="curve" smooth="yes"/>
      <point x="190" y="66"/>
      <point x="135" y="137"/>
      <point x="135" y="269" type="curve" smooth="yes"/>
      <point x="135" y="465"/>
      <point x="215" y="575"/>
      <point x="351" y="575" type="curve" smooth="yes"/>
      <point x="410" y="575"/>
      <point x="454" y="554"/>
      <point x="490" y="519" type="curve"/>
      <point x="499" y="521" type="line"/>
      <point x="526" y="600" type="line"/>
      <point x="483" y="630"/>
      <point x="427" y="647"/>
    </contour>
  </outline>
</glyph>
<glyph name="D" format="2">
  <advance width="622"/>
  <unicode hex="0044"/>
  <anchor x="283" y="0" name="bottom"/>
  <anchor x="309" y="321" name="center"/>
  <anchor x="330" y="641" name="top"/>
  <outline>
    <contour>
      <point x="359" y="645" type="curve"/>
      <point x="142" y="641" type="line"/>
      <point x="204" y="569" type="line"/>
      <point x="232" y="571"/>
      <point x="327" y="574"/>
      <point x="350" y="574" type="curve" smooth="yes"/>
      <point x="458" y="574"/>
      <point x="513" y="510"/>
      <point x="513" y="379" type="curve" smooth="yes"/>
      <point x="513" y="172"/>
      <point x="428" y="65"/>
      <point x="284" y="65" type="curve" smooth="yes"/>
      <point x="261" y="65"/>
      <point x="171" y="69"/>
      <point x="129" y="74" type="curve"/>
      <point x="61" y="0" type="line"/>
      <point x="115" y="-3"/>
      <point x="229" y="-6"/>
      <point x="267" y="-6" type="curve"/>
      <point x="484" y="-6"/>
      <point x="603" y="148"/>
      <point x="603" y="395" type="curve" smooth="yes"/>
      <point x="603" y="555"/>
      <point x="514" y="645"/>
    </contour>
    <contour>
      <point x="227" y="641" type="line"/>
      <point x="141" y="641" type="line"/>
      <point x="90" y="193" type="line"/>
      <point x="60" y="0" type="line"/>
      <point x="146" y="0" type="line"/>
      <point x="166" y="200" type="line"/>
    </contour>
  </outline>
</glyph>
<glyph name="E" format="2">
  <advance width="467"/>
  <unicode hex="0045"/>
  <anchor x="272" y="0" name="bottom"/>
  <anchor x="392" y="10" name="ogonek"/>
  <anchor x="310" y="641" name="top"/>
  <anchor x="71" y="641" name="topleft"/>
  <outline>
    <contour>
      <point x="227" y="641" type="line"/>
      <point x="141" y="641" type="line"/>
      <point x="90" y="193" type="line"/>
      <point x="60" y="0" type="line"/>
      <point x="146" y="0" type="line"/>
      <point x="167" y="200" type="line"/>
    </contour>
    <contour>
      <point x="420" y="75" type="line"/>
      <point x="276" y="70" type="line"/>
      <point x="127" y="72" type="line"/>
      <point x="116" y="7" type="line"/>
      <point x="118" y="0" type="line"/>
      <point x="409" y="0" type="line"/>
      <point x="423" y="67" type="line"/>
    </contour>
    <contour>
      <point x="403" y="365" type="line"/>
      <point x="303" y="362" type="line"/>
      <point x="167" y="364" type="line"/>
      <point x="156" y="299" type="line"/>
      <point x="158" y="292" type="line"/>
      <point x="286" y="294" type="line"/>
      <point x="393" y="291" type="line"/>
      <point x="408" y="358" type="line"/>
    </contour>
    <contour>
      <point x="491" y="641" type="line"/>
      <point x="199" y="641" type="line"/>
      <point x="188" y="575" type="line"/>
      <point x="190" y="568" type="line"/>
      <point x="337" y="570" type="line"/>
      <point x="480" y="566" type="line"/>
      <point x="495" y="633" type="line"/>
    </contour>
  </outline>
</glyph>
<glyph name="F" format="2">
  <advance width="419"/>
  <unicode hex="0046"/>
  <outline>
    <contour>
      <point x="227" y="641" type="line"/>
      <point x="141" y="641" type="line"/>
      <point x="90" y="193" type="line"/>
      <point x="60" y="0" type="line"/>
      <point x="146" y="0" type="line"/>
      <point x="167" y="200" type="line"/>
    </contour>
    <contour>
      <point x="388" y="352" type="line"/>
      <point x="287" y="349" type="line"/>
      <point x="165" y="351" type="line"/>
      <point x="157" y="280" type="line"/>
      <point x="271" y="281" type="line"/>
      <point x="377" y="278" type="line"/>
      <point x="393" y="344" type="line"/>
    </contour>
    <contour>
      <point x="472" y="641" type="line"/>
      <point x="198" y="641" type="line"/>
      <point x="187" y="575" type="line"/>
      <point x="189" y="568" type="line"/>
      <point x="321" y="570" type="line"/>
      <point x="460" y="564" type="line"/>
      <point x="477" y="633" type="line"/>
    </contour>
  </outline>
</glyph>
<glyph name="G" format="2">
  <advance width="575"/>
  <unicode hex="0047"/>
  <anchor x="308" y="0" name="bottom"/>
  <anchor x="351" y="641" name="top"/>
  <outline>
    <contour>
      <point x="382" y="647" type="curve" smooth="yes"/>
      <point x="165" y="647"/>
      <point x="43" y="502"/>
      <point x="43" y="248" type="curve" smooth="yes"/>
      <point x="43" y="88"/>
      <point x="127" y="-7"/>
      <point x="293" y="-7" type="curve" smooth="yes"/>
      <point x="363" y="-7"/>
      <point x="418" y="5"/>
      <point x="491" y="31" type="curve"/>
      <point x="505" y="172" type="line"/>
      <point x="518" y="267" type="line"/>
      <point x="438" y="261" type="line"/>
      <point x="427" y="160" type="line"/>
      <point x="415" y="89" type="line"/>
      <point x="360" y="71"/>
      <point x="331" y="66"/>
      <point x="299" y="66" type="curve" smooth="yes"/>
      <point x="184" y="66"/>
      <point x="131" y="125"/>
      <point x="131" y="255" type="curve" smooth="yes"/>
      <point x="131" y="466"/>
      <point x="212" y="575"/>
      <point x="367" y="575" type="curve" smooth="yes"/>
      <point x="425" y="575"/>
      <point x="468" y="559"/>
      <point x="526" y="519" type="curve"/>
      <point x="535" y="521" type="line"/>
      <point x="564" y="602" type="line"/>
      <point x="504" y="634"/>
      <point x="445" y="647"/>
    </contour>
  </outline>
</glyph>
<glyph name="H" format="2">
  <advance width="656"/>
  <unicode hex="0048"/>
  <anchor x="300" y="0" name="bottom"/>
  <anchor x="454" y="0" name="bottomright"/>
  <anchor x="346" y="321" name="center"/>
  <anchor x="380" y="641" name="top"/>
  <anchor x="71" y="641" name="topleft"/>
  <outline>
    <contour>
      <point x="620" y="641" type="line"/>
      <point x="533" y="641" type="line"/>
      <point x="483" y="193" type="line"/>
      <point x="454" y="0" type="line"/>
      <point x="539" y="0" type="line"/>
      <point x="560" y="200" type="line"/>
    </contour>
    <contour>
      <point x="226" y="641" type="line"/>
      <point x="140" y="641" type="line"/>
      <point x="89" y="193" type="line"/>
      <point x="60" y="0" type="line"/>
      <point x="146" y="0" type="line"/>
      <point x="166" y="200" type="line"/>
    </contour>
    <contour>
      <point x="512" y="361" type="line"/>
      <point x="344" y="358" type="line"/>
      <point x="176" y="361" type="line"/>
      <point x="167" y="287" type="line"/>
      <point x="328" y="290" type="line"/>
      <point x="502" y="287" type="line"/>
    </contour>
  </outline>
</glyph>
<glyph name="I" format="2">
  <advance width="263"/>
  <unicode hex="0049"/>
  <anchor x="104" y="0" name="bottom"/>
  <anchor x="146" y="0" name="ogonek"/>
  <anchor x="183" y="641" name="top"/>
  <anchor x="71" y="641" name="topleft"/>
  <outline>
    <contour>
      <point x="226" y="641" type="line"/>
      <point x="140" y="641" type="line"/>
      <point x="89" y="193" type="line"/>
      <point x="60" y="0" type="line"/>
      <point x="146" y="0" type="line"/>
      <point x="166" y="200" type="line"/>
    </contour>
  </outline>
</glyph>
<glyph name="J" format="2">
  <advance width="304"/>
  <unicode hex="004A"/>
  <anchor x="178" y="641" name="top"/>
  <outline>
    <contour>
      <point x="262" y="641" type="line"/>
      <point x="175" y="641" type="line"/>
      <point x="126" y="204" type="line"/>
      <point x="115" y="119" type="line" smooth="yes"/>
      <point x="105" y="44"/>
      <point x="63" y="4"/>
      <point x="-31" y="-44" type="curve"/>
      <point x="-32" y="-54" type="line"/>
      <point x="-5" y="-102" type="line"/>
      <point x="128" y="-42"/>
      <point x="181" y="17"/>
      <point x="194" y="118" type="curve"/>
      <point x="203" y="212" type="line"/>
    </contour>
    <contour>
      <point x="190" y="641" type="line"/>
      <point x="55" y="641" type="line"/>
      <point x="42" y="578" type="line"/>
      <point x="50" y="571" type="line"/>
      <point x="183" y="572" type="line"/>
    </contour>
  </outline>
</glyph>
<glyph name="K" format="2">
  <advance width="527"/>
  <unicode hex="004B"/>
  <anchor x="278" y="0" name="bottom"/>
  <anchor x="332" y="641" name="top"/>
  <outline>
    <contour>
      <point x="564" y="641" type="line"/>
      <point x="469" y="641" type="line"/>
      <point x="424" y="585" type="line"/>
      <point x="195" y="342" type="line"/>
      <point x="194" y="336" type="line"/>
      <point x="260" y="219"/>
      <point x="334" y="105"/>
      <point x="409" y="-4" type="curve"/>
      <point x="417" y="-9" type="line"/>
      <point x="446" y="-5"/>
      <point x="473" y="0"/>
      <point x="501" y="8" type="curve"/>
      <point x="504" y="18" type="line"/>
      <point x="426" y="119"/>
      <point x="350" y="228"/>
      <point x="285" y="338" type="curve"/>
    </contour>
    <contour>
      <point x="226" y="641" type="line"/>
      <point x="140" y="641" type="line"/>
      <point x="89" y="193" type="line"/>
      <point x="59" y="0" type="line"/>
      <point x="145" y="0" type="line"/>
      <point x="166" y="200" type="line"/>
    </contour>
  </outline>
</glyph>
<glyph name="L" format="2">
  <advance width="404"/>
  <unicode hex="004C"/>
  <anchor x="205" y="0" name="bottom"/>
  <anchor x="214" y="321" name="center"/>
  <anchor x="186" y="641" name="top"/>
  <anchor x="395" y="353" name="topright"/>
  <outline>
    <contour>
      <point x="227" y="641" type="line"/>
      <point x="141" y="641" type="line"/>
      <point x="90" y="193" type="line"/>
      <point x="60" y="0" type="line"/>
      <point x="146" y="0" type="line"/>
      <point x="167" y="200" type="line"/>
    </contour>
    <contour>
      <point x="377" y="72" type="line"/>
      <point x="123" y="72" type="line"/>
      <point x="111" y="7" type="line"/>
      <point x="113" y="0" type="line"/>
      <point x="366" y="0" type="line"/>
      <point x="381" y="64" type="line"/>
    </contour>
  </outline>
</glyph>
<glyph name="M" format="2">
  <advance width="755"/>
  <unicode hex="004D"/>
  <anchor x="350" y="0" name="bottom"/>
  <anchor x="429" y="641" name="top"/>
  <outline>
    <contour>
      <point x="692" y="641" type="line"/>
      <point x="595" y="641" type="line"/>
      <point x="554" y="549" type="line"/>
      <point x="375" y="184" type="line"/>
      <point x="368" y="184" type="line"/>
      <point x="287" y="544" type="line"/>
      <point x="269" y="641" type="line"/>
      <point x="172" y="641" type="line"/>
      <point x="28" y="0" type="line"/>
      <point x="100" y="0" type="line"/>
      <point x="142" y="202" type="line"/>
      <point x="209" y="508" type="line"/>
      <point x="217" y="508" type="line"/>
      <point x="318" y="73" type="line"/>
      <point x="388" y="73" type="line"/>
      <point x="606" y="508" type="line"/>
      <point x="613" y="508" type="line"/>
      <point x="605" y="195" type="line"/>
      <point x="593" y="0" type="line"/>
      <point x="669" y="0" type="line"/>
    </contour>
  </outline>
</glyph>
<glyph name="N" format="2">
  <advance width="656"/>
  <unicode hex="004E"/>
  <anchor x="301" y="0" name="bottom"/>
  <anchor x="380" y="641" name="top"/>
  <outline>
    <contour>
      <point x="621" y="643" type="line"/>
      <point x="540" y="637" type="line"/>
      <point x="479" y="135" type="line"/>
      <point x="472" y="135" type="line"/>
      <point x="231" y="641" type="line"/>
      <point x="142" y="641" type="line"/>
      <point x="89" y="190" type="line"/>
      <point x="60" y="0" type="line"/>
      <point x="140" y="0" type="line"/>
      <point x="163" y="212" type="line"/>
      <point x="200" y="506" type="line"/>
      <point x="207" y="506" type="line"/>
      <point x="448" y="0" type="line"/>
      <point x="538" y="0" type="line"/>
      <point x="558" y="189" type="line"/>
    </contour>
  </outline>
</glyph>
<glyph name="O" format="2">
  <advance width="613"/>
  <unicode hex="004F"/>
  <anchor x="279" y="0" name="bottom"/>
  <anchor x="318" y="321" name="center"/>
  <anchor x="383" y="10" name="ogonek"/>
  <anchor x="358" y="641" name="top"/>
  <anchor x="71" y="641" name="topleft"/>
  <anchor x="644" y="641" name="topright"/>
  <outline>
    <contour>
      <point x="361" y="648" type="curve"/>
      <point x="157" y="648"/>
      <point x="45" y="500"/>
      <point x="45" y="255" type="curve" smooth="yes"/>
      <point x="45" y="89"/>
      <point x="132" y="-8"/>
      <point x="277" y="-8" type="curve" smooth="yes"/>
      <point x="481" y="-8"/>
      <point x="594" y="145"/>
      <point x="594" y="391" type="curve" smooth="yes"/>
      <point x="594" y="554"/>
      <point x="508" y="648"/>
    </contour>
    <contour>
      <point x="351" y="577" type="curve" smooth="yes"/>
      <point x="453" y="577"/>
      <point x="504" y="513"/>
      <point x="504" y="381" type="curve" smooth="yes"/>
      <point x="504" y="175"/>
      <point x="433" y="63"/>
      <point x="285" y="63" type="curve" smooth="yes"/>
      <point x="183" y="63"/>
      <point x="133" y="128"/>
      <point x="133" y="261" type="curve" smooth="yes"/>
      <point x="133" y="465"/>
      <point x="201" y="577"/>
    </contour>
  </outline>
</glyph>
<glyph name="P" format="2">
  <advance width="504"/>
  <unicode hex="0050"/>
  <outline>
    <contour>
      <point x="326" y="642" type="curve"/>
      <point x="142" y="641" type="line"/>
      <point x="178" y="568" type="line"/>
      <point x="305" y="572" type="line"/>
      <point x="385" y="568"/>
      <point x="414" y="531"/>
      <point x="414" y="462" type="curve" smooth="yes"/>
      <point x="414" y="370"/>
      <point x="362" y="303"/>
      <point x="288" y="292" type="curve"/>
      <point x="129" y="295" type="line"/>
      <point x="120" y="223" type="line"/>
      <point x="242" y="223" type="line"/>
      <point x="403" y="223"/>
      <point x="502" y="331"/>
      <point x="502" y="474" type="curve" smooth="yes"/>
      <point x="502" y="589"/>
      <point x="432" y="642"/>
    </contour>
    <contour>
      <point x="227" y="641" type="line"/>
      <point x="141" y="641" type="line"/>
      <point x="90" y="193" type="line"/>
      <point x="60" y="0" type="line"/>
      <point x="146" y="0" type="line"/>
      <point x="167" y="200" type="line"/>
    </contour>
  </outline>
</glyph>
<glyph name="Q" format="2">
  <advance width="611"/>
  <unicode hex="0051"/>
  <outline>
    <contour>
      <point x="361" y="648" type="curve"/>
      <point x="157" y="648"/>
      <point x="45" y="500"/>
      <point x="45" y="255" type="curve" smooth="yes"/>
      <point x="45" y="89"/>
      <point x="132" y="-8"/>
      <point x="277" y="-8" type="curve" smooth="yes"/>
      <point x="481" y="-8"/>
      <point x="594" y="145"/>
      <point x="594" y="391" type="curve" smooth="yes"/>
      <point x="594" y="554"/>
      <point x="508" y="648"/>
    </contour>
    <contour>
      <point x="346" y="30" type="curve"/>
      <point x="283" y="3" type="line"/>
      <point x="378" y="-92"/>
      <point x="499" y="-160"/>
      <point x="633" y="-193" type="curve"/>
      <point x="640" y="-190" type="line"/>
      <point x="653" y="-176"/>
      <point x="665" y="-159"/>
      <point x="677" y="-135" type="curve"/>
      <point x="675" y="-124" type="line"/>
      <point x="551" y="-101"/>
      <point x="438" y="-48"/>
    </contour>
    <contour>
      <point x="351" y="577" type="curve" smooth="yes"/>
      <point x="453" y="577"/>
      <point x="504" y="513"/>
      <point x="504" y="381" type="curve" smooth="yes"/>
      <point x="504" y="175"/>
      <point x="433" y="63"/>
      <point x="285" y="63" type="curve" smooth="yes"/>
      <point x="183" y="63"/>
      <point x="133" y="128"/>
      <point x="133" y="261" type="curve" smooth="yes"/>
      <point x="133" y="465"/>
      <point x="201" y="577"/>
    </contour>
  </outline>
</glyph>
<glyph name="R" format="2">
  <advance width="536"/>
  <unicode hex="0052"/>
  <anchor x="240" y="0" name="bottom"/>
  <anchor x="319" y="641" name="top"/>
  <outline>
    <contour>
      <point x="329" y="642" type="curve"/>
      <point x="142" y="641" type="line"/>
      <point x="178" y="568" type="line"/>
      <point x="305" y="572" type="line"/>
      <point x="376" y="569"/>
      <point x="414" y="537"/>
      <point x="414" y="471" type="curve" smooth="yes"/>
      <point x="414" y="385"/>
      <point x="372" y="329"/>
      <point x="292" y="305" type="curve"/>
      <point x="131" y="309" type="line"/>
      <point x="122" y="236" type="line"/>
      <point x="288" y="236" type="line"/>
      <point x="419" y="268"/>
      <point x="503" y="362"/>
      <point x="503" y="485" type="curve" smooth="yes"/>
      <point x="503" y="586"/>
      <point x="437" y="642"/>
    </contour>
    <contour>
      <point x="227" y="641" type="line"/>
      <point x="141" y="641" type="line"/>
      <point x="89" y="193" type="line"/>
      <point x="60" y="0" type="line"/>
      <point x="146" y="0" type="line"/>
      <point x="166" y="200" type="line"/>
    </contour>
    <contour>
      <point x="341" y="282" type="curve"/>
      <point x="261" y="281" type="line"/>
      <point x="297" y="185"/>
      <point x="340" y="90"/>
      <point x="386" y="-2" type="curve"/>
      <point x="395" y="-9" type="line"/>
      <point x="424" y="-6"/>
      <point x="450" y="0"/>
      <point x="477" y="10" type="curve"/>
      <point x="479" y="20" type="line"/>
      <point x="428" y="106"/>
      <point x="381" y="193"/>
    </contour>
  </outline>
</glyph>
<glyph name="S" format="2">
  <advance width="456"/>
  <unicode hex="0053"/>
  <guideline x="268" y="195" angle="319"/>
  <anchor x="201" y="0" name="bottom"/>
  <anchor x="281" y="641" name="top"/>
  <outline>
    <contour>
      <point x="301" y="647" type="curve" smooth="yes"/>
      <point x="177" y="647"/>
      <point x="85" y="567"/>
      <point x="85" y="463" type="curve" smooth="yes"/>
      <point x="85" y="290"/>
      <point x="325" y="287"/>
      <point x="325" y="166" type="curve" smooth="yes"/>
      <point x="325" y="109"/>
      <point x="273" y="62"/>
      <point x="198" y="62" type="curve" smooth="yes"/>
      <point x="149" y="62"/>
      <point x="92" y="82"/>
      <point x="50" y="130" type="curve"/>
      <point x="39" y="125" type="line"/>
      <point x="17" y="37" type="line"/>
      <point x="68" y="8"/>
      <point x="134" y="-7"/>
      <point x="189" y="-7" type="curve" smooth="yes"/>
      <point x="318" y="-7"/>
      <point x="412" y="76"/>
      <point x="412" y="182" type="curve" smooth="yes"/>
      <point x="412" y="353"/>
      <point x="169" y="363"/>
      <point x="169" y="478" type="curve" smooth="yes"/>
      <point x="169" y="529"/>
      <point x="215" y="577"/>
      <point x="289" y="577" type="curve" smooth="yes"/>
      <point x="334" y="577"/>
      <point x="375" y="560"/>
      <point x="408" y="530" type="curve"/>
      <point x="423" y="535" type="line"/>
      <point x="447" y="616" type="line"/>
      <point x="394" y="639"/>
      <point x="340" y="647"/>
    </contour>
  </outline>
</glyph>
<glyph name="T" format="2">
  <advance width="470"/>
  <unicode hex="0054"/>
  <anchor x="208" y="0" name="bottom"/>
  <anchor x="253" y="321" name="center"/>
  <anchor x="287" y="641" name="top"/>
  <outline>
    <contour>
      <point x="330" y="631" type="line"/>
      <point x="243" y="631" type="line"/>
      <point x="195" y="193" type="line"/>
      <point x="165" y="0" type="line"/>
      <point x="251" y="0" type="line"/>
      <point x="271" y="200" type="line"/>
    </contour>
    <contour>
      <point x="497" y="641" type="line"/>
      <point x="80" y="641" type="line"/>
      <point x="64" y="575" type="line"/>
      <point x="69" y="567" type="line"/>
      <point x="180" y="573" type="line"/>
      <point x="380" y="573" type="line"/>
      <point x="486" y="567" type="line"/>
      <point x="501" y="633" type="line"/>
    </contour>
  </outline>
</glyph>
<glyph name="U" format="2">
  <advance width="600"/>
  <unicode hex="0055"/>
  <anchor x="272" y="0" name="bottom"/>
  <anchor x="374" y="10" name="ogonek"/>
  <anchor x="352" y="641" name="top"/>
  <anchor x="631" y="641" name="topright"/>
  <outline>
    <contour>
      <point x="582" y="641" type="line"/>
      <point x="497" y="641" type="line"/>
      <point x="451" y="235" type="line" smooth="yes"/>
      <point x="438" y="123"/>
      <point x="379" y="68"/>
      <point x="279" y="68" type="curve" smooth="yes"/>
      <point x="193" y="68"/>
      <point x="149" y="112"/>
      <point x="149" y="201" type="curve" smooth="yes"/>
      <point x="149" y="216"/>
      <point x="150" y="230"/>
      <point x="152" y="246" type="curve" smooth="yes"/>
      <point x="205" y="641" type="line"/>
      <point x="121" y="641" type="line"/>
      <point x="83" y="321" type="line"/>
      <point x="71" y="235" type="line" smooth="yes"/>
      <point x="68" y="216"/>
      <point x="67" y="198"/>
      <point x="67" y="181" type="curve" smooth="yes"/>
      <point x="67" y="60"/>
      <point x="146" y="-7"/>
      <point x="273" y="-7" type="curve" smooth="yes"/>
      <point x="425" y="-7"/>
      <point x="513" y="85"/>
      <point x="530" y="244" type="curve"/>
      <point x="539" y="315" type="line"/>
    </contour>
  </outline>
</glyph>
<glyph name="V" format="2">
  <advance width="539"/>
  <unicode hex="0056"/>
  <outline>
    <contour>
      <point x="585" y="641" type="line" smooth="yes"/>
      <point x="501" y="641" type="line"/>
      <point x="476" y="570" type="line"/>
      <point x="251" y="86" type="line"/>
      <point x="246" y="86" type="line"/>
      <point x="157" y="574" type="line"/>
      <point x="151" y="641" type="line"/>
      <point x="64" y="641" type="line"/>
      <point x="186" y="0" type="line"/>
      <point x="286" y="0" type="line"/>
    </contour>
  </outline>
</glyph>
<glyph name="W" format="2">
  <advance width="852"/>
  <unicode hex="0057"/>
  <anchor x="456" y="641" name="top"/>
  <outline>
    <contour>
      <point x="896" y="641" type="line"/>
      <point x="816" y="641" type="line"/>
      <point x="793" y="573" type="line"/>
      <point x="575" y="93" type="line"/>
      <point x="568" y="93" type="line"/>
      <point x="484" y="570" type="line"/>
      <point x="478" y="641" type="line"/>
      <point x="390" y="641" type="line"/>
      <point x="421" y="480" type="line"/>
      <point x="247" y="93" type="line"/>
      <point x="240" y="93" type="line"/>
      <point x="157" y="578" type="line"/>
      <point x="155" y="641" type="line"/>
      <point x="71" y="641" type="line"/>
      <point x="181" y="0" type="line"/>
      <point x="271" y="0" type="line"/>
      <point x="436" y="366" type="line"/>
      <point x="443" y="366" type="line"/>
      <point x="512" y="0" type="line"/>
      <point x="600" y="0" type="line"/>
    </contour>
  </outline>
</glyph>
<glyph name="X" format="2">
  <advance width="565"/>
  <unicode hex="0058"/>
  <outline>
    <contour>
      <point x="577" y="641" type="line"/>
      <point x="485" y="641" type="line"/>
      <point x="454" y="590" type="line"/>
      <point x="303" y="389" type="line"/>
      <point x="202" y="589" type="line"/>
      <point x="183" y="641" type="line"/>
      <point x="84" y="641" type="line"/>
      <point x="239" y="328" type="line"/>
      <point x="-6" y="0" type="line"/>
      <point x="84" y="0" type="line"/>
      <point x="115" y="48" type="line"/>
      <point x="281" y="267" type="line"/>
      <point x="390" y="53" type="line"/>
      <point x="409" y="0" type="line"/>
      <point x="508" y="0" type="line"/>
      <point x="348" y="329" type="line"/>
    </contour>
  </outline>
</glyph>
<glyph name="Y" format="2">
  <advance width="508"/>
  <unicode hex="0059"/>
  <anchor x="226" y="0" name="bottom"/>
  <anchor x="242" y="177" name="center"/>
  <anchor x="305" y="641" name="top"/>
  <anchor x="71" y="641" name="topleft"/>
  <outline>
    <contour>
      <point x="549" y="641" type="line"/>
      <point x="457" y="641" type="line"/>
      <point x="437" y="602" type="line"/>
      <point x="262" y="321" type="line"/>
      <point x="254" y="321" type="line"/>
      <point x="160" y="604" type="line"/>
      <point x="153" y="641" type="line"/>
      <point x="64" y="641" type="line"/>
      <point x="224" y="179" type="line"/>
      <point x="252" y="179" type="line"/>
    </contour>
    <contour>
      <point x="291" y="273" type="line"/>
      <point x="211" y="273" type="line"/>
      <point x="202" y="186" type="line"/>
      <point x="172" y="0" type="line"/>
      <point x="258" y="0" type="line"/>
      <point x="278" y="186" type="line"/>
    </contour>
  </outline>
</glyph>
<glyph name="Z" format="2">
  <advance width="507"/>
  <unicode hex="005A"/>
  <anchor x="226" y="0" name="bottom"/>
  <anchor x="271" y="641" name="top"/>
  <outline>
    <contour>
      <point x="522" y="642" type="line"/>
      <point x="472" y="641" type="line"/>
      <point x="212" y="641" type="line"/>
      <point x="102" y="642" type="line"/>
      <point x="85" y="569" type="line"/>
      <point x="89" y="563" type="line"/>
      <point x="186" y="571" type="line"/>
      <point x="412" y="571" type="line"/>
      <point x="11" y="60" type="line"/>
      <point x="3" y="-3" type="line"/>
      <point x="61" y="0" type="line"/>
      <point x="323" y="0" type="line"/>
      <point x="440" y="-2" type="line"/>
      <point x="455" y="71" type="line"/>
      <point x="452" y="77" type="line"/>
      <point x="357" y="69" type="line"/>
      <point x="114" y="69" type="line"/>
      <point x="514" y="578" type="line"/>
    </contour>
  </outline>
</glyph>
<glyph name="bracketleft" format="2">
  <advance width="289.474"/>
  <unicode hex="005B"/>
  <outline>
    <contour>
      <point x="320" y="647" type="line"/>
      <point x="136" y="637" type="line"/>
      <point x="94" y="259" type="line"/>
      <point x="44" y="-119" type="line"/>
      <point x="224" y="-129" type="line"/>
      <point x="230" y="-124" type="line"/>
      <point x="235" y="-83" type="line"/>
      <point x="119" y="-72" type="line"/>
      <point x="200" y="589" type="line"/>
      <point x="319" y="601" type="line"/>
      <point x="324" y="641" type="line"/>
    </contour>
  </outline>
</glyph>
<glyph name="backslash" format="2">
  <advance width="278"/>
  <unicode hex="005C"/>
  <outline>
    <contour>
      <point x="225" y="-113" type="line"/>
      <point x="284" y="-113" type="line"/>
      <point x="290" y="-105" type="line"/>
      <point x="85" y="678" type="line"/>
      <point x="27" y="678" type="line"/>
      <point x="20" y="669" type="line"/>
    </contour>
  </outline>
</glyph>
<glyph name="asciicircum" format="2">
  <advance width="425.603"/>
  <unicode hex="005E"/>
  <outline>
    <contour>
      <point x="287" y="492" type="line"/>
      <point x="217" y="492" type="line"/>
      <point x="207" y="487" type="line"/>
      <point x="8" y="131" type="line"/>
      <point x="54" y="112" type="line"/>
      <point x="63" y="117" type="line"/>
      <point x="239" y="429" type="line"/>
      <point x="245" y="429" type="line"/>
      <point x="337" y="115" type="line"/>
      <point x="387" y="127" type="line"/>
      <point x="394" y="135" type="line"/>
    </contour>
  </outline>
</glyph>
<glyph name="underscore" format="2">
  <advance width="449.721"/>
  <unicode hex="005F"/>
  <outline>
    <contour>
      <point x="419" y="-88" type="line"/>
      <point x="-49" y="-88" type="line"/>
      <point x="-60" y="-137" type="line"/>
      <point x="-54" y="-144" type="line"/>
      <point x="414" y="-144" type="line"/>
      <point x="425" y="-94" type="line"/>
    </contour>
  </outline>
</glyph>
<glyph name="a" format="2">
  <advance width="442"/>
  <unicode hex="0061"/>
  <anchor x="193" y="0" name="bottom"/>
  <anchor x="343" y="3" name="ogonek"/>
  <anchor x="247" y="460" name="top"/>
  <outline>
    <contour>
      <point x="387" y="467" type="line"/>
      <point x="313" y="431" type="line"/>
      <point x="310" y="357" type="line"/>
      <point x="258" y="-4" type="line"/>
      <point x="343" y="3" type="line"/>
      <point x="347" y="110" type="line"/>
      <point x="397" y="461" type="line"/>
    </contour>
    <contour>
      <point x="191" y="197" type="move"/>
    </contour>
    <contour>
      <point x="266" y="467" type="line"/>
      <point x="108" y="439"/>
      <point x="31" y="286"/>
      <point x="31" y="152" type="curve" smooth="yes"/>
      <point x="31" y="73"/>
      <point x="59" y="21"/>
      <point x="111" y="-8" type="curve"/>
      <point x="126" y="-8" type="line"/>
      <point x="181" y="46"/>
      <point x="231" y="113"/>
      <point x="274" y="187" type="curve"/>
      <point x="297" y="187" type="line"/>
      <point x="311" y="360" type="line"/>
      <point x="237" y="175"/>
      <point x="158" y="85"/>
      <point x="135" y="85" type="curve" smooth="yes"/>
      <point x="123" y="85"/>
      <point x="108" y="103"/>
      <point x="108" y="174" type="curve" smooth="yes"/>
      <point x="108" y="298"/>
      <point x="160" y="398"/>
      <point x="248" y="398" type="curve"/>
      <point x="336" y="362" type="line"/>
      <point x="369" y="427" type="line"/>
      <point x="271" y="467" type="line"/>
    </contour>
  </outline>
</glyph>
<glyph name="b" format="2">
  <advance width="444"/>
  <unicode hex="0062"/>
  <anchor x="194" y="0" name="bottom"/>
  <anchor x="250" y="459" name="top"/>
  <outline>
    <contour>
      <point x="330" y="467" type="curve"/>
      <point x="315" y="467" type="line"/>
      <point x="260" y="413"/>
      <point x="210" y="346"/>
      <point x="167" y="272" type="curve"/>
      <point x="145" y="272" type="line"/>
      <point x="129" y="98" type="line"/>
      <point x="204" y="283"/>
      <point x="284" y="374"/>
      <point x="306" y="374" type="curve" smooth="yes"/>
      <point x="319" y="374"/>
      <point x="334" y="356"/>
      <point x="334" y="284" type="curve" smooth="yes"/>
      <point x="334" y="161"/>
      <point x="282" y="60"/>
      <point x="193" y="60" type="curve"/>
      <point x="104" y="85" type="line"/>
      <point x="64" y="17" type="line"/>
      <point x="170" y="-8" type="line"/>
      <point x="175" y="-8" type="line"/>
      <point x="333" y="19"/>
      <point x="410" y="172"/>
      <point x="410" y="306" type="curve" smooth="yes"/>
      <point x="410" y="386"/>
      <point x="382" y="438"/>
    </contour>
    <contour>
      <point x="217" y="704" type="line"/>
      <point x="131" y="697" type="line"/>
      <point x="130" y="598" type="line"/>
      <point x="47" y="18" type="line"/>
      <point x="129" y="3" type="line"/>
      <point x="130" y="42" type="line"/>
      <point x="132" y="107" type="line"/>
    </contour>
  </outline>
</glyph>
<glyph name="c" format="2">
  <advance width="338"/>
  <unicode hex="0063"/>
  <anchor x="176" y="0" name="bottom"/>
  <anchor x="235" y="460" name="top"/>
  <outline>
    <contour>
      <point x="270" y="466" type="line"/>
      <point x="106" y="466"/>
      <point x="34" y="326"/>
      <point x="34" y="161" type="curve" smooth="yes"/>
      <point x="34" y="45"/>
      <point x="71" y="6"/>
      <point x="149" y="-7" type="curve"/>
      <point x="162" y="-7" type="line"/>
      <point x="222" y="11"/>
      <point x="263" y="43"/>
      <point x="306" y="115" type="curve"/>
      <point x="280" y="150" type="line"/>
      <point x="268" y="151" type="line"/>
      <point x="235" y="93"/>
      <point x="202" y="64"/>
      <point x="168" y="64" type="curve" smooth="yes"/>
      <point x="130" y="64"/>
      <point x="113" y="94"/>
      <point x="113" y="177" type="curve" smooth="yes"/>
      <point x="113" y="316"/>
      <point x="161" y="400"/>
      <point x="233" y="400" type="curve" smooth="yes"/>
      <point x="256" y="400"/>
      <point x="274" y="393"/>
      <point x="301" y="363" type="curve"/>
      <point x="319" y="366" type="line"/>
      <point x="342" y="433" type="line"/>
      <point x="336" y="445" type="line"/>
    </contour>
  </outline>
</glyph>
<glyph name="d" format="2">
  <advance width="444"/>
  <unicode hex="0064"/>
  <anchor x="194" y="0" name="bottom"/>
  <anchor x="330" y="230" name="center"/>
  <anchor x="333" y="460" name="top"/>
  <anchor x="527" y="416" name="topright"/>
  <outline>
    <contour>
      <point x="272" y="467" type="line"/>
      <point x="267" y="467" type="line"/>
      <point x="108" y="440"/>
      <point x="30" y="286"/>
      <point x="30" y="153" type="curve" smooth="yes"/>
      <point x="30" y="73"/>
      <point x="58" y="21"/>
      <point x="110" y="-8" type="curve"/>
      <point x="126" y="-8" type="line"/>
      <point x="181" y="46"/>
      <point x="232" y="113"/>
      <point x="276" y="187" type="curve"/>
      <point x="298" y="187" type="line"/>
      <point x="313" y="360" type="line"/>
      <point x="238" y="175"/>
      <point x="157" y="85"/>
      <point x="135" y="85" type="curve" smooth="yes"/>
      <point x="122" y="85"/>
      <point x="106" y="103"/>
      <point x="106" y="175" type="curve" smooth="yes"/>
      <point x="106" y="298"/>
      <point x="159" y="398"/>
      <point x="249" y="398" type="curve"/>
      <point x="338" y="362" type="line"/>
      <point x="370" y="427" type="line"/>
    </contour>
    <contour>
      <point x="433" y="704" type="line"/>
      <point x="347" y="697" type="line"/>
      <point x="345" y="598" type="line"/>
      <point x="259" y="-4" type="line"/>
      <point x="345" y="3" type="line"/>
      <point x="349" y="110" type="line"/>
    </contour>
  </outline>
</glyph>
<glyph name="e" format="2">
  <advance width="383"/>
  <unicode hex="0065"/>
  <anchor x="176" y="0" name="bottom"/>
  <anchor x="254" y="28" name="ogonek"/>
  <anchor x="234" y="460" name="top"/>
  <outline>
    <contour>
      <point x="99" y="231" type="curve"/>
      <point x="99" y="173" type="line"/>
      <point x="270" y="223"/>
      <point x="357" y="291"/>
      <point x="357" y="374" type="curve" smooth="yes"/>
      <point x="357" y="427"/>
      <point x="325" y="459"/>
      <point x="266" y="467" type="curve"/>
      <point x="257" y="468" type="line"/>
      <point x="125" y="462"/>
      <point x="34" y="337"/>
      <point x="33" y="159" type="curve"/>
      <point x="33" y="54"/>
      <point x="73" y="3"/>
      <point x="162" y="-7" type="curve"/>
      <point x="174" y="-7" type="line"/>
      <point x="238" y="6"/>
      <point x="290" y="44"/>
      <point x="332" y="108" type="curve"/>
      <point x="305" y="143" type="line"/>
      <point x="293" y="144" type="line"/>
      <point x="249" y="87"/>
      <point x="216" y="64"/>
      <point x="178" y="64" type="curve" smooth="yes"/>
      <point x="133" y="64"/>
      <point x="112" y="99"/>
      <point x="112" y="182" type="curve" smooth="yes"/>
      <point x="112" y="317"/>
      <point x="164" y="407"/>
      <point x="238" y="407" type="curve" smooth="yes"/>
      <point x="267" y="407"/>
      <point x="280" y="395"/>
      <point x="280" y="368" type="curve" smooth="yes"/>
      <point x="280" y="312"/>
      <point x="219" y="266"/>
    </contour>
  </outline>
</glyph>
<glyph name="f" format="2">
  <advance width="284"/>
  <unicode hex="0066"/>
  <outline>
    <contour>
      <point x="335" y="704" type="line"/>
      <point x="217" y="704"/>
      <point x="161" y="634"/>
      <point x="144" y="512" type="curve" smooth="yes"/>
      <point x="99" y="190" type="line"/>
      <point x="54" y="-126" type="line"/>
      <point x="140" y="-119" type="line"/>
      <point x="143" y="-12" type="line"/>
      <point x="174" y="200" type="line"/>
      <point x="219" y="534" type="line" smooth="yes"/>
      <point x="228" y="604"/>
      <point x="266" y="642"/>
      <point x="316" y="642" type="curve" smooth="yes"/>
      <point x="339" y="642"/>
      <point x="373" y="634"/>
      <point x="398" y="619" type="curve"/>
      <point x="410" y="621" type="line"/>
      <point x="433" y="682" type="line"/>
      <point x="430" y="689" type="line"/>
    </contour>
    <contour>
      <point x="314" y="450" type="line"/>
      <point x="60" y="450" type="line"/>
      <point x="53" y="400" type="line"/>
      <point x="58" y="394" type="line"/>
      <point x="313" y="394" type="line"/>
      <point x="321" y="442" type="line"/>
    </contour>
  </outline>
</glyph>
<glyph name="g" format="2">
  <advance width="446"/>
  <unicode hex="0067"/>
  <anchor x="258" y="459" name="top"/>
  <outline>
    <contour>
      <point x="390" y="467" type="line"/>
      <point x="317" y="430" type="line"/>
      <point x="313" y="357" type="line"/>
      <point x="265" y="16" type="line" smooth="yes"/>
      <point x="251" y="-83"/>
      <point x="196" y="-134"/>
      <point x="127" y="-134" type="curve" smooth="yes"/>
      <point x="70" y="-134"/>
      <point x="35" y="-98"/>
      <point x="35" y="-64" type="curve" smooth="yes"/>
      <point x="35" y="-56"/>
      <point x="37" y="-52"/>
      <point x="45" y="-46" type="curve" smooth="yes"/>
      <point x="139" y="23" type="line"/>
      <point x="89" y="61" type="line"/>
      <point x="87" y="38" type="line"/>
      <point x="-52" y="-43" type="line"/>
      <point x="-56" y="-52" type="line"/>
      <point x="-40" y="-147"/>
      <point x="21" y="-198"/>
      <point x="108" y="-198" type="curve" smooth="yes"/>
      <point x="222" y="-198"/>
      <point x="322" y="-110"/>
      <point x="343" y="39" type="curve"/>
      <point x="350" y="109" type="line"/>
      <point x="401" y="461" type="line"/>
    </contour>
    <contour>
      <point x="273" y="466" type="line"/>
      <point x="268" y="466" type="line"/>
      <point x="121" y="440"/>
      <point x="46" y="305"/>
      <point x="46" y="167" type="curve" smooth="yes"/>
      <point x="46" y="88"/>
      <point x="71" y="47"/>
      <point x="127" y="23" type="curve"/>
      <point x="139" y="23" type="line"/>
      <point x="191" y="64"/>
      <point x="239" y="124"/>
      <point x="278" y="196" type="curve"/>
      <point x="302" y="196" type="line"/>
      <point x="320" y="365" type="line"/>
      <point x="245" y="196"/>
      <point x="169" y="101"/>
      <point x="149" y="101" type="curve" smooth="yes"/>
      <point x="140" y="101"/>
      <point x="122" y="125"/>
      <point x="122" y="197" type="curve" smooth="yes"/>
      <point x="122" y="308"/>
      <point x="165" y="398"/>
      <point x="251" y="398" type="curve"/>
      <point x="339" y="361" type="line"/>
      <point x="376" y="424" type="line"/>
    </contour>
  </outline>
</glyph>
<glyph name="h" format="2">
  <advance width="473"/>
  <unicode hex="0068"/>
  <anchor x="209" y="0" name="bottom"/>
  <anchor x="268" y="230" name="center"/>
  <anchor x="169" y="654" name="top"/>
  <outline>
    <contour>
      <point x="340" y="465" type="curve"/>
      <point x="329" y="465" type="line"/>
      <point x="272" y="419"/>
      <point x="224" y="356"/>
      <point x="162" y="248" type="curve"/>
      <point x="146" y="248" type="line"/>
      <point x="125" y="82" type="line"/>
      <point x="214" y="276"/>
      <point x="286" y="372"/>
      <point x="325" y="372" type="curve" smooth="yes"/>
      <point x="339" y="372"/>
      <point x="343" y="362"/>
      <point x="343" y="346" type="curve"/>
      <point x="342" y="334" type="line"/>
      <point x="288" y="-4" type="line"/>
      <point x="375" y="3" type="line"/>
      <point x="380" y="109" type="line"/>
      <point x="421" y="365" type="line"/>
      <point x="422" y="378" type="line"/>
      <point x="423" y="426"/>
      <point x="386" y="455"/>
    </contour>
    <contour>
      <point x="217" y="704" type="line"/>
      <point x="131" y="697" type="line"/>
      <point x="130" y="598" type="line"/>
      <point x="43" y="-4" type="line"/>
      <point x="129" y="3" type="line"/>
      <point x="133" y="110" type="line"/>
    </contour>
  </outline>
</glyph>
<glyph name="k" format="2">
  <advance width="469"/>
  <unicode hex="006B"/>
  <anchor x="207" y="0" name="bottom"/>
  <anchor x="169" y="654" name="top"/>
  <anchor x="222" y="459" name="topright"/>
  <outline>
    <contour>
      <point x="357" y="465" type="curve"/>
      <point x="343" y="464" type="line"/>
      <point x="281" y="422"/>
      <point x="228" y="350"/>
      <point x="165" y="254" type="curve"/>
      <point x="150" y="254" type="line"/>
      <point x="127" y="78" type="line"/>
      <point x="225" y="289"/>
      <point x="299" y="372"/>
      <point x="340" y="372" type="curve" smooth="yes"/>
      <point x="351" y="372"/>
      <point x="361" y="366"/>
      <point x="361" y="342" type="curve" smooth="yes"/>
      <point x="361" y="294"/>
      <point x="316" y="245"/>
      <point x="232" y="191" type="curve"/>
      <point x="229" y="177" type="line"/>
      <point x="260" y="115"/>
      <point x="293" y="52"/>
      <point x="331" y="-8" type="curve"/>
      <point x="339" y="-12" type="line"/>
      <point x="410" y="1" type="line"/>
      <point x="414" y="8" type="line"/>
      <point x="375" y="64"/>
      <point x="338" y="123"/>
      <point x="304" y="182" type="curve"/>
      <point x="392" y="235"/>
      <point x="444" y="296"/>
      <point x="444" y="363" type="curve" smooth="yes"/>
      <point x="444" y="423"/>
      <point x="408" y="454"/>
    </contour>
    <contour>
      <point x="218" y="704" type="line"/>
      <point x="132" y="697" type="line"/>
      <point x="130" y="598" type="line"/>
      <point x="44" y="-4" type="line"/>
      <point x="130" y="3" type="line"/>
      <point x="133" y="110" type="line"/>
    </contour>
  </outline>
</glyph>
<glyph name="l" format="2">
  <advance width="230"/>
  <unicode hex="006C"/>
  <anchor x="86" y="0" name="bottom"/>
  <anchor x="172" y="700" name="top"/>
  <anchor x="303" y="416" name="topright"/>
  <outline>
    <contour>
      <point x="216" y="704" type="line"/>
      <point x="131" y="697" type="line"/>
      <point x="129" y="598" type="line"/>
      <point x="43" y="-4" type="line"/>
      <point x="128" y="3" type="line"/>
      <point x="132" y="110" type="line"/>
    </contour>
  </outline>
</glyph>
<glyph name="m" format="2">
  <advance width="721"/>
  <unicode hex="006D"/>
  <anchor x="333" y="0" name="bottom"/>
  <anchor x="389" y="459" name="top"/>
  <outline>
    <contour>
      <point x="588" y="465" type="curve"/>
      <point x="577" y="465" type="line"/>
      <point x="520" y="419"/>
      <point x="472" y="356"/>
      <point x="410" y="248" type="curve"/>
      <point x="394" y="248" type="line"/>
      <point x="373" y="82" type="line"/>
      <point x="462" y="276"/>
      <point x="534" y="372"/>
      <point x="573" y="372" type="curve" smooth="yes"/>
      <point x="587" y="372"/>
      <point x="591" y="362"/>
      <point x="591" y="346" type="curve"/>
      <point x="590" y="334" type="line"/>
      <point x="536" y="-4" type="line"/>
      <point x="623" y="3" type="line"/>
      <point x="628" y="109" type="line"/>
      <point x="669" y="365" type="line"/>
      <point x="670" y="378" type="line"/>
      <point x="671" y="426"/>
      <point x="634" y="455"/>
    </contour>
    <contour>
      <point x="181" y="464" type="line"/>
      <point x="98" y="457" type="line"/>
      <point x="94" y="358" type="line"/>
      <point x="41" y="-4" type="line"/>
      <point x="127" y="3" type="line"/>
      <point x="131" y="110" type="line"/>
    </contour>
    <contour>
      <point x="338" y="465" type="curve"/>
      <point x="327" y="465" type="line"/>
      <point x="270" y="419"/>
      <point x="222" y="356"/>
      <point x="160" y="248" type="curve"/>
      <point x="144" y="248" type="line"/>
      <point x="123" y="82" type="line"/>
      <point x="212" y="276"/>
      <point x="284" y="372"/>
      <point x="323" y="372" type="curve" smooth="yes"/>
      <point x="337" y="372"/>
      <point x="341" y="362"/>
      <point x="341" y="346" type="curve"/>
      <point x="340" y="334" type="line"/>
      <point x="286" y="-4" type="line"/>
      <point x="373" y="3" type="line"/>
      <point x="378" y="109" type="line"/>
      <point x="419" y="365" type="line"/>
      <point x="420" y="378" type="line"/>
      <point x="421" y="426"/>
      <point x="384" y="455"/>
    </contour>
  </outline>
</glyph>
<glyph name="n" format="2">
  <advance width="471"/>
  <unicode hex="006E"/>
  <anchor x="210" y="0" name="bottom"/>
  <anchor x="266" y="459" name="top"/>
  <outline>
    <contour>
      <point x="286" y="-4" type="line"/>
      <point x="373" y="3" type="line"/>
      <point x="378" y="109" type="line"/>
      <point x="419" y="365" type="line"/>
      <point x="420" y="378" type="line"/>
      <point x="421" y="426"/>
      <point x="384" y="455"/>
      <point x="338" y="465" type="curve"/>
      <point x="327" y="465" type="line"/>
      <point x="270" y="419"/>
      <point x="222" y="356"/>
      <point x="160" y="248" type="curve"/>
      <point x="144" y="248" type="line"/>
      <point x="123" y="82" type="line"/>
      <point x="212" y="276"/>
      <point x="284" y="372"/>
      <point x="323" y="372" type="curve" smooth="yes"/>
      <point x="337" y="372"/>
      <point x="341" y="362"/>
      <point x="341" y="346" type="curve"/>
      <point x="340" y="334" type="line"/>
    </contour>
    <contour>
      <point x="41" y="-4" type="line"/>
      <point x="127" y="3" type="line"/>
      <point x="131" y="110" type="line"/>
      <point x="181" y="464" type="line"/>
      <point x="98" y="457" type="line"/>
      <point x="94" y="358" type="line"/>
    </contour>
  </outline>
</glyph>
<glyph name="o" format="2">
  <advance width="414"/>
  <unicode hex="006F"/>
  <anchor x="179" y="0" name="bottom"/>
  <anchor x="207" y="230" name="center"/>
  <anchor x="263" y="30" name="ogonek"/>
  <anchor x="246" y="459" name="top"/>
  <anchor x="422" y="459" name="topright"/>
  <outline>
    <contour>
      <point x="260" y="467" type="line"/>
      <point x="120" y="459"/>
      <point x="34" y="332"/>
      <point x="34" y="152" type="curve" smooth="yes"/>
      <point x="34" y="53"/>
      <point x="73" y="7"/>
      <point x="149" y="-8" type="curve"/>
      <point x="158" y="-9" type="line"/>
      <point x="299" y="3"/>
      <point x="381" y="128"/>
      <point x="381" y="313" type="curve" smooth="yes"/>
      <point x="381" y="407"/>
      <point x="342" y="454"/>
      <point x="269" y="467" type="curve"/>
    </contour>
    <contour>
      <point x="244" y="399" type="curve" smooth="yes"/>
      <point x="284" y="399"/>
      <point x="301" y="373"/>
      <point x="301" y="307" type="curve" smooth="yes"/>
      <point x="301" y="158"/>
      <point x="258" y="58"/>
      <point x="170" y="58" type="curve" smooth="yes"/>
      <point x="128" y="58"/>
      <point x="112" y="86"/>
      <point x="112" y="152" type="curve" smooth="yes"/>
      <point x="112" y="302"/>
      <point x="155" y="399"/>
    </contour>
  </outline>
</glyph>
<glyph name="p" format="2">
  <advance width="440"/>
  <unicode hex="0070"/>
  <anchor x="192" y="0" name="bottom"/>
  <anchor x="248" y="459" name="top"/>
  <outline>
    <contour>
      <point x="331" y="467" type="curve"/>
      <point x="316" y="467" type="line"/>
      <point x="260" y="413"/>
      <point x="210" y="346"/>
      <point x="167" y="272" type="curve"/>
      <point x="144" y="272" type="line"/>
      <point x="130" y="98" type="line"/>
      <point x="204" y="283"/>
      <point x="284" y="374"/>
      <point x="306" y="374" type="curve" smooth="yes"/>
      <point x="319" y="374"/>
      <point x="334" y="356"/>
      <point x="334" y="284" type="curve" smooth="yes"/>
      <point x="334" y="161"/>
      <point x="282" y="60"/>
      <point x="193" y="60" type="curve"/>
      <point x="104" y="85" type="line"/>
      <point x="64" y="17" type="line"/>
      <point x="170" y="-8" type="line"/>
      <point x="175" y="-8" type="line"/>
      <point x="333" y="19"/>
      <point x="411" y="172"/>
      <point x="411" y="306" type="curve" smooth="yes"/>
      <point x="411" y="386"/>
      <point x="382" y="438"/>
    </contour>
    <contour>
      <point x="182" y="464" type="line"/>
      <point x="99" y="457" type="line"/>
      <point x="95" y="358" type="line"/>
      <point x="16" y="-192" type="line"/>
      <point x="102" y="-185" type="line"/>
      <point x="106" y="-75" type="line"/>
    </contour>
  </outline>
</glyph>
<glyph name="q" format="2">
  <advance width="441"/>
  <unicode hex="0071"/>
  <outline>
    <contour>
      <point x="270" y="467" type="line"/>
      <point x="265" y="467" type="line"/>
      <point x="107" y="440"/>
      <point x="30" y="286"/>
      <point x="30" y="153" type="curve" smooth="yes"/>
      <point x="30" y="73"/>
      <point x="58" y="21"/>
      <point x="110" y="-8" type="curve"/>
      <point x="125" y="-8" type="line"/>
      <point x="180" y="46"/>
      <point x="230" y="113"/>
      <point x="273" y="187" type="curve"/>
      <point x="296" y="187" type="line"/>
      <point x="310" y="360" type="line"/>
      <point x="236" y="175"/>
      <point x="156" y="85"/>
      <point x="134" y="85" type="curve" smooth="yes"/>
      <point x="121" y="85"/>
      <point x="106" y="103"/>
      <point x="106" y="175" type="curve" smooth="yes"/>
      <point x="106" y="298"/>
      <point x="158" y="398"/>
      <point x="247" y="398" type="curve"/>
      <point x="335" y="362" type="line"/>
      <point x="368" y="427" type="line"/>
    </contour>
    <contour>
      <point x="386" y="467" type="line"/>
      <point x="313" y="431" type="line"/>
      <point x="309" y="357" type="line"/>
      <point x="230" y="-192" type="line"/>
      <point x="316" y="-185" type="line"/>
      <point x="320" y="-78" type="line"/>
      <point x="396" y="461" type="line"/>
    </contour>
  </outline>
</glyph>
<glyph name="r" format="2">
  <advance width="329"/>
  <unicode hex="0072"/>
  <anchor x="77" y="0" name="bottom"/>
  <anchor x="229" y="459" name="top"/>
  <outline>
    <contour>
      <point x="325" y="464" type="line"/>
      <point x="249" y="402"/>
      <point x="200" y="335"/>
      <point x="159" y="255" type="curve"/>
      <point x="141" y="255" type="line"/>
      <point x="121" y="67" type="line"/>
      <point x="204" y="283"/>
      <point x="254" y="335"/>
      <point x="319" y="344" type="curve"/>
      <point x="327" y="343" type="line"/>
      <point x="334" y="347" type="line"/>
      <point x="351" y="462" type="line"/>
    </contour>
    <contour>
      <point x="180" y="464" type="line"/>
      <point x="97" y="457" type="line"/>
      <point x="93" y="358" type="line"/>
      <point x="40" y="-4" type="line"/>
      <point x="126" y="3" type="line"/>
      <point x="130" y="110" type="line"/>
    </contour>
  </outline>
</glyph>
<glyph name="s" format="2">
  <advance width="319"/>
  <unicode hex="0073"/>
  <anchor x="138" y="0" name="bottom"/>
  <anchor x="196" y="459" name="top"/>
  <outline>
    <contour>
      <point x="223" y="466" type="curve"/>
      <point x="127" y="468"/>
      <point x="45" y="407"/>
      <point x="45" y="322" type="curve" smooth="yes"/>
      <point x="45" y="207"/>
      <point x="196" y="195"/>
      <point x="196" y="117" type="curve" smooth="yes"/>
      <point x="196" y="84"/>
      <point x="169" y="51"/>
      <point x="126" y="51" type="curve" smooth="yes"/>
      <point x="92" y="51"/>
      <point x="56" y="72"/>
      <point x="28" y="112" type="curve"/>
      <point x="16" y="107" type="line"/>
      <point x="-6" y="26" type="line"/>
      <point x="28" y="7"/>
      <point x="60" y="-3"/>
      <point x="97" y="-8" type="curve"/>
      <point x="201" y="-7"/>
      <point x="274" y="55"/>
      <point x="274" y="139" type="curve" smooth="yes"/>
      <point x="274" y="255"/>
      <point x="124" y="271"/>
      <point x="124" y="341" type="curve" smooth="yes"/>
      <point x="124" y="374"/>
      <point x="153" y="406"/>
      <point x="190" y="406" type="curve" smooth="yes"/>
      <point x="217" y="406"/>
      <point x="246" y="390"/>
      <point x="272" y="358" type="curve"/>
      <point x="285" y="362" type="line"/>
      <point x="309" y="440" type="line"/>
      <point x="280" y="451"/>
      <point x="254" y="459"/>
    </contour>
  </outline>
</glyph>
<glyph name="t" format="2">
  <advance width="334"/>
  <unicode hex="0074"/>
  <anchor x="172.006" y="0" name="bottom"/>
  <anchor x="165" y="230" name="center"/>
  <anchor x="180" y="512" name="top"/>
  <anchor x="328" y="459" name="topright"/>
  <outline>
    <contour>
      <point x="164" y="-7" type="curve"/>
      <point x="212" y="6"/>
      <point x="246" y="39"/>
      <point x="292" y="116" type="curve"/>
      <point x="268" y="146" type="line"/>
      <point x="259" y="146" type="line"/>
      <point x="224" y="93"/>
      <point x="197" y="71"/>
      <point x="175" y="71" type="curve" smooth="yes"/>
      <point x="158" y="71"/>
      <point x="150" y="83"/>
      <point x="150" y="100" type="curve"/>
      <point x="152" y="116" type="line"/>
      <point x="228" y="587" type="line"/>
      <point x="222" y="593" type="line"/>
      <point x="144" y="557" type="line"/>
      <point x="119" y="359" type="line"/>
      <point x="77" y="104" type="line"/>
      <point x="75" y="80" type="line"/>
      <point x="74" y="25"/>
      <point x="107" y="-7"/>
    </contour>
    <contour>
      <point x="57" y="394" type="line"/>
      <point x="325" y="394" type="line"/>
      <point x="331" y="442" type="line"/>
      <point x="324" y="450" type="line"/>
      <point x="57" y="450" type="line"/>
      <point x="51" y="400" type="line"/>
    </contour>
  </outline>
</glyph>
<glyph name="u" format="2">
  <advance width="474"/>
  <unicode hex="0075"/>
  <anchor x="209" y="0" name="bottom"/>
  <anchor x="288" y="-4" name="bottomright"/>
  <anchor x="374" y="3" name="ogonek"/>
  <anchor x="266" y="459" name="top"/>
  <anchor x="482" y="459" name="topright"/>
  <outline>
    <contour>
      <point x="183" y="466" type="line"/>
      <point x="100" y="459" type="line"/>
      <point x="93" y="353" type="line"/>
      <point x="52" y="97" type="line"/>
      <point x="51" y="84" type="line"/>
      <point x="50" y="36"/>
      <point x="87" y="7"/>
      <point x="133" y="-3" type="curve"/>
      <point x="144" y="-3" type="line"/>
      <point x="201" y="43"/>
      <point x="249" y="105"/>
      <point x="311" y="211" type="curve"/>
      <point x="327" y="211" type="line"/>
      <point x="348" y="380" type="line"/>
      <point x="259" y="186"/>
      <point x="187" y="90"/>
      <point x="148" y="90" type="curve" smooth="yes"/>
      <point x="137" y="90"/>
      <point x="129" y="96"/>
      <point x="130" y="114" type="curve"/>
      <point x="132" y="136" type="line"/>
    </contour>
    <contour>
      <point x="428" y="464" type="line"/>
      <point x="344" y="457" type="line"/>
      <point x="340" y="358" type="line"/>
      <point x="288" y="-4" type="line"/>
      <point x="374" y="3" type="line"/>
      <point x="377" y="110" type="line"/>
    </contour>
  </outline>
</glyph>
<glyph name="v" format="2">
  <advance width="412"/>
  <unicode hex="0076"/>
  <outline>
    <contour>
      <point x="382" y="465" type="curve"/>
      <point x="303" y="447" type="line"/>
      <point x="300" y="436" type="line"/>
      <point x="315" y="414"/>
      <point x="323" y="393"/>
      <point x="323" y="369" type="curve" smooth="yes"/>
      <point x="323" y="342"/>
      <point x="312" y="312"/>
      <point x="292" y="277" type="curve" smooth="yes"/>
      <point x="186" y="90" type="line"/>
      <point x="179" y="90" type="line"/>
      <point x="156" y="383" type="line"/>
      <point x="153" y="464" type="line"/>
      <point x="69" y="457" type="line"/>
      <point x="119" y="0" type="line"/>
      <point x="212" y="0" type="line"/>
      <point x="360" y="254" type="line" smooth="yes"/>
      <point x="388" y="303"/>
      <point x="404" y="345"/>
      <point x="404" y="385" type="curve" smooth="yes"/>
      <point x="404" y="412"/>
      <point x="397" y="439"/>
    </contour>
  </outline>
</glyph>
<glyph name="w" format="2">
  <advance width="687"/>
  <unicode hex="0077"/>
  <anchor x="373" y="459" name="top"/>
  <outline>
    <contour>
      <point x="635" y="254" type="line" smooth="yes"/>
      <point x="662" y="303"/>
      <point x="679" y="345"/>
      <point x="679" y="385" type="curve" smooth="yes"/>
      <point x="679" y="412"/>
      <point x="672" y="439"/>
      <point x="657" y="465" type="curve"/>
      <point x="578" y="447" type="line"/>
      <point x="575" y="436" type="line"/>
      <point x="590" y="414"/>
      <point x="598" y="393"/>
      <point x="598" y="369" type="curve" smooth="yes"/>
      <point x="598" y="342"/>
      <point x="586" y="313"/>
      <point x="567" y="277" type="curve" smooth="yes"/>
      <point x="471" y="96" type="line"/>
      <point x="464" y="96" type="line"/>
      <point x="436" y="401" type="line"/>
      <point x="433" y="460" type="line"/>
      <point x="344" y="460" type="line"/>
      <point x="321" y="396" type="line"/>
      <point x="189" y="96" type="line"/>
      <point x="181" y="96" type="line"/>
      <point x="153" y="401" type="line"/>
      <point x="152" y="464" type="line"/>
      <point x="69" y="457" type="line"/>
      <point x="122" y="0" type="line"/>
      <point x="214" y="0" type="line"/>
      <point x="365" y="345" type="line"/>
      <point x="373" y="345" type="line"/>
      <point x="407" y="0" type="line"/>
      <point x="496" y="0" type="line"/>
    </contour>
  </outline>
</glyph>
<glyph name="x" format="2">
  <advance width="444"/>
  <unicode hex="0078"/>
  <outline>
    <contour>
      <point x="274" y="232" type="line"/>
      <point x="442" y="459" type="line"/>
      <point x="352" y="459" type="line"/>
      <point x="328" y="418" type="line"/>
      <point x="233" y="293" type="line"/>
      <point x="171" y="423" type="line"/>
      <point x="157" y="465" type="line"/>
      <point x="68" y="455" type="line"/>
      <point x="169" y="238" type="line"/>
      <point x="-4" y="0" type="line"/>
      <point x="89" y="0" type="line"/>
      <point x="113" y="45" type="line"/>
      <point x="215" y="182" type="line"/>
      <point x="279" y="46" type="line"/>
      <point x="295" y="-6" type="line"/>
      <point x="387" y="4" type="line"/>
    </contour>
  </outline>
</glyph>
<glyph name="y" format="2">
  <advance width="418"/>
  <unicode hex="0079"/>
  <anchor x="305" y="6" name="bottom"/>
  <anchor x="237" y="460" name="top"/>
  <outline>
    <contour>
      <point x="386" y="465" type="curve"/>
      <point x="312" y="453" type="line"/>
      <point x="308" y="443" type="line"/>
      <point x="323" y="421"/>
      <point x="330" y="400"/>
      <point x="330" y="377" type="curve" smooth="yes"/>
      <point x="330" y="344"/>
      <point x="320" y="309"/>
      <point x="298" y="269" type="curve" smooth="yes"/>
      <point x="171" y="32" type="line" smooth="yes"/>
      <point x="102" y="-96"/>
      <point x="45" y="-128"/>
      <point x="-64" y="-101" type="curve"/>
      <point x="-73" y="-108" type="line"/>
      <point x="-76" y="-181" type="line"/>
      <point x="52" y="-222"/>
      <point x="127" y="-176"/>
      <point x="230" y="7" type="curve" smooth="yes"/>
      <point x="368" y="253" type="line" smooth="yes"/>
      <point x="396" y="302"/>
      <point x="409" y="342"/>
      <point x="409" y="384" type="curve" smooth="yes"/>
      <point x="409" y="408"/>
      <point x="402" y="433"/>
    </contour>
    <contour>
      <point x="139" y="464" type="line"/>
      <point x="55" y="456" type="line"/>
      <point x="155" y="-40" type="line"/>
      <point x="245" y="98" type="line"/>
      <point x="195" y="98" type="line"/>
      <point x="149" y="383" type="line"/>
    </contour>
  </outline>
</glyph>
<glyph name="braceleft" format="2">
  <advance width="289.545"/>
  <unicode hex="007B"/>
  <outline>
    <contour>
      <point x="264" y="655" type="curve" smooth="yes"/>
      <point x="177" y="655"/>
      <point x="130" y="608"/>
      <point x="130" y="504" type="curve" smooth="yes"/>
      <point x="130" y="471"/>
      <point x="133" y="425"/>
      <point x="133" y="395" type="curve" smooth="yes"/>
      <point x="133" y="328"/>
      <point x="105" y="295"/>
      <point x="41" y="283" type="curve"/>
      <point x="36" y="240" type="line"/>
      <point x="84" y="231"/>
      <point x="106" y="206"/>
      <point x="106" y="166" type="curve" smooth="yes"/>
      <point x="106" y="116"/>
      <point x="63" y="31"/>
      <point x="63" y="-36" type="curve" smooth="yes"/>
      <point x="63" y="-98"/>
      <point x="98" y="-131"/>
      <point x="167" y="-131" type="curve" smooth="yes"/>
      <point x="187" y="-131"/>
      <point x="203" y="-129"/>
      <point x="221" y="-124" type="curve"/>
      <point x="226" y="-117" type="line"/>
      <point x="223" y="-72" type="line"/>
      <point x="209" y="-75"/>
      <point x="199" y="-77"/>
      <point x="186" y="-77" type="curve" smooth="yes"/>
      <point x="150" y="-77"/>
      <point x="132" y="-58"/>
      <point x="132" y="-19" type="curve" smooth="yes"/>
      <point x="132" y="38"/>
      <point x="176" y="118"/>
      <point x="176" y="171" type="curve" smooth="yes"/>
      <point x="176" y="211"/>
      <point x="157" y="243"/>
      <point x="120" y="260" type="curve"/>
      <point x="121" y="264" type="line"/>
      <point x="173" y="286"/>
      <point x="202" y="326"/>
      <point x="202" y="389" type="curve" smooth="yes"/>
      <point x="202" y="420"/>
      <point x="197" y="468"/>
      <point x="197" y="502" type="curve" smooth="yes"/>
      <point x="197" y="570"/>
      <point x="221" y="600"/>
      <point x="269" y="600" type="curve" smooth="yes"/>
      <point x="282" y="600"/>
      <point x="292" y="598"/>
      <point x="305" y="595" type="curve"/>
      <point x="319" y="641" type="line"/>
      <point x="316" y="648" type="line"/>
      <point x="299" y="652"/>
      <point x="284" y="655"/>
    </contour>
  </outline>
</glyph>
<glyph name="bar" format="2">
  <advance width="312.934"/>
  <unicode hex="007C"/>
  <outline>
    <contour>
      <point x="254" y="798" type="line"/>
      <point x="193" y="793" type="line"/>
      <point x="129" y="283" type="line"/>
      <point x="64" y="-253" type="line"/>
      <point x="69" y="-262" type="line"/>
      <point x="129" y="-258" type="line"/>
      <point x="196" y="288" type="line"/>
      <point x="259" y="792" type="line"/>
    </contour>
  </outline>
</glyph>
<glyph name="asciitilde" format="2">
  <advance width="480.185"/>
  <unicode hex="007E"/>
  <outline>
    <contour>
      <point x="152" y="255" type="curve"/>
      <point x="184" y="255"/>
      <point x="297" y="212"/>
      <point x="346" y="206" type="curve"/>
      <point x="357" y="209" type="line"/>
      <point x="440" y="285" type="line"/>
      <point x="441" y="294" type="line"/>
      <point x="422" y="323" type="line"/>
      <point x="413" y="323" type="line"/>
      <point x="378" y="293"/>
      <point x="355" y="271"/>
      <point x="338" y="271" type="curve"/>
      <point x="306" y="271"/>
      <point x="193" y="313"/>
      <point x="144" y="321" type="curve"/>
      <point x="133" y="316" type="line"/>
      <point x="50" y="241" type="line"/>
      <point x="49" y="232" type="line"/>
      <point x="68" y="203" type="line"/>
      <point x="78" y="203" type="line"/>
      <point x="112" y="232"/>
      <point x="134" y="255"/>
    </contour>
  </outline>
</glyph>
<glyph name="cent" format="2">
  <advance width="391"/>
  <unicode hex="00A2"/>
  <anchor x="180" y="42" name="bottom"/>
  <anchor x="208" y="501" name="top"/>
  <outline>
    <contour>
      <point x="205" y="67" type="line"/>
      <point x="155" y="67" type="line"/>
      <point x="127" y="-112" type="line"/>
      <point x="132" y="-120" type="line"/>
      <point x="174" y="-120" type="line"/>
    </contour>
    <contour>
      <point x="274" y="475" type="line"/>
      <point x="223" y="475" type="line"/>
      <point x="155" y="67" type="line"/>
      <point x="205" y="67" type="line"/>
    </contour>
    <contour>
      <point x="294" y="652" type="line"/>
      <point x="252" y="652" type="line"/>
      <point x="223" y="475" type="line"/>
      <point x="274" y="475" type="line"/>
      <point x="301" y="644" type="line"/>
    </contour>
    <contour>
      <point x="289" y="506" type="line"/>
      <point x="116" y="506"/>
      <point x="40" y="370"/>
      <point x="40" y="205" type="curve" smooth="yes"/>
      <point x="40" y="83"/>
      <point x="83" y="48"/>
      <point x="159" y="36" type="curve"/>
      <point x="171" y="36" type="line"/>
      <point x="234" y="51"/>
      <point x="280" y="82"/>
      <point x="326" y="155" type="curve"/>
      <point x="303" y="186" type="line"/>
      <point x="292" y="187" type="line"/>
      <point x="250" y="114"/>
      <point x="208" y="95"/>
      <point x="175" y="95" type="curve" smooth="yes"/>
      <point x="129" y="95"/>
      <point x="106" y="128"/>
      <point x="106" y="217" type="curve" smooth="yes"/>
      <point x="106" y="362"/>
      <point x="164" y="451"/>
      <point x="257" y="451" type="curve" smooth="yes"/>
      <point x="280" y="451"/>
      <point x="302" y="444"/>
      <point x="331" y="417" type="curve"/>
      <point x="346" y="420" type="line"/>
      <point x="365" y="475" type="line"/>
      <point x="359" y="485" type="line"/>
    </contour>
  </outline>
</glyph>
<glyph name="sterling" format="2">
  <advance width="424"/>
  <unicode hex="00A3"/>
  <outline>
    <contour>
      <point x="314" y="593" type="curve" smooth="yes"/>
      <point x="207" y="593"/>
      <point x="140" y="535"/>
      <point x="128" y="429" type="curve" smooth="yes"/>
      <point x="95" y="156" type="line" smooth="yes"/>
      <point x="88" y="95"/>
      <point x="59" y="60"/>
      <point x="9" y="50" type="curve"/>
      <point x="0" y="6" type="line"/>
      <point x="4" y="0" type="line"/>
      <point x="256" y="0" type="line"/>
      <point x="357" y="-2" type="line"/>
      <point x="371" y="61" type="line"/>
      <point x="368" y="68" type="line"/>
      <point x="275" y="61" type="line"/>
      <point x="112" y="61" type="line"/>
      <point x="112" y="64" type="line"/>
      <point x="143" y="86"/>
      <point x="159" y="116"/>
      <point x="165" y="164" type="curve" smooth="yes"/>
      <point x="200" y="440" type="line" smooth="yes"/>
      <point x="208" y="505"/>
      <point x="244" y="539"/>
      <point x="304" y="539" type="curve" smooth="yes"/>
      <point x="335" y="539"/>
      <point x="368" y="529"/>
      <point x="403" y="506" type="curve"/>
      <point x="409" y="511" type="line"/>
      <point x="421" y="576" type="line"/>
      <point x="383" y="587"/>
      <point x="348" y="593"/>
    </contour>
    <contour>
      <point x="315" y="336" type="line"/>
      <point x="46" y="336" type="line"/>
      <point x="37" y="295" type="line"/>
      <point x="40" y="289" type="line"/>
      <point x="308" y="289" type="line"/>
      <point x="318" y="331" type="line"/>
    </contour>
  </outline>
</glyph>
<glyph name="currency" format="2">
  <advance width="436"/>
  <unicode hex="00A4"/>
  <outline>
    <contour>
      <point x="404" y="546" type="line"/>
      <point x="395" y="545" type="line"/>
      <point x="324" y="478" type="line"/>
      <point x="305" y="493"/>
      <point x="279" y="502"/>
      <point x="251" y="502" type="curve" smooth="yes"/>
      <point x="222" y="502"/>
      <point x="193" y="493"/>
      <point x="169" y="476" type="curve"/>
      <point x="113" y="544" type="line"/>
      <point x="104" y="544" type="line"/>
      <point x="63" y="506" type="line"/>
      <point x="62" y="497" type="line"/>
      <point x="123" y="435" type="line"/>
      <point x="101" y="409"/>
      <point x="86" y="379"/>
      <point x="86" y="344" type="curve" smooth="yes"/>
      <point x="86" y="320"/>
      <point x="92" y="295"/>
      <point x="104" y="277" type="curve"/>
      <point x="30" y="215" type="line"/>
      <point x="27" y="206" type="line"/>
      <point x="62" y="169" type="line"/>
      <point x="71" y="169" type="line"/>
      <point x="141" y="237" type="line"/>
      <point x="160" y="221"/>
      <point x="187" y="211"/>
      <point x="215" y="211" type="curve" smooth="yes"/>
      <point x="244" y="211"/>
      <point x="274" y="221"/>
      <point x="298" y="238" type="curve"/>
      <point x="353" y="171" type="line"/>
      <point x="362" y="170" type="line"/>
      <point x="404" y="209" type="line"/>
      <point x="404" y="218" type="line"/>
      <point x="343" y="280" type="line"/>
      <point x="366" y="306"/>
      <point x="379" y="337"/>
      <point x="379" y="371" type="curve" smooth="yes"/>
      <point x="379" y="395"/>
      <point x="373" y="419"/>
      <point x="362" y="437" type="curve"/>
      <point x="436" y="500" type="line"/>
      <point x="438" y="509" type="line"/>
    </contour>
    <contour>
      <point x="245" y="453" type="curve" smooth="yes"/>
      <point x="296" y="453"/>
      <point x="331" y="416"/>
      <point x="331" y="367" type="curve" smooth="yes"/>
      <point x="331" y="307"/>
      <point x="281" y="261"/>
      <point x="221" y="261" type="curve" smooth="yes"/>
      <point x="171" y="261"/>
      <point x="136" y="297"/>
      <point x="136" y="347" type="curve" smooth="yes"/>
      <point x="136" y="406"/>
      <point x="187" y="453"/>
    </contour>
  </outline>
</glyph>
<glyph name="yen" format="2">
  <advance width="528"/>
  <unicode hex="00A5"/>
  <anchor x="299" y="499" name="top"/>
  <outline>
    <contour>
      <point x="478" y="162" type="line"/>
      <point x="34" y="162" type="line"/>
      <point x="27" y="125" type="line"/>
      <point x="31" y="120" type="line"/>
      <point x="475" y="120" type="line"/>
      <point x="482" y="157" type="line"/>
    </contour>
    <contour>
      <point x="216" y="295" type="line"/>
      <point x="51" y="295" type="line"/>
      <point x="44" y="259" type="line"/>
      <point x="47" y="253" type="line"/>
      <point x="219" y="253" type="line"/>
    </contour>
    <contour>
      <point x="495" y="295" type="line"/>
      <point x="323" y="295" type="line"/>
      <point x="310" y="253" type="line"/>
      <point x="491" y="253" type="line"/>
      <point x="499" y="291" type="line"/>
    </contour>
    <contour>
      <point x="511" y="498" type="line" smooth="yes"/>
      <point x="437" y="498" type="line"/>
      <point x="420" y="467" type="line"/>
      <point x="264" y="252" type="line"/>
      <point x="258" y="252" type="line"/>
      <point x="167" y="469" type="line"/>
      <point x="160" y="498" type="line"/>
      <point x="85" y="498" type="line"/>
      <point x="234" y="136" type="line"/>
      <point x="258" y="136" type="line"/>
    </contour>
    <contour>
      <point x="288" y="212" type="line"/>
      <point x="221" y="212" type="line"/>
      <point x="214" y="143" type="line"/>
      <point x="193" y="0" type="line"/>
      <point x="262" y="0" type="line"/>
      <point x="278" y="143" type="line"/>
    </contour>
  </outline>
</glyph>
<glyph name="brokenbar" format="2">
  <advance width="312.934"/>
  <unicode hex="00A6"/>
  <outline>
    <contour>
      <point x="254" y="798" type="line"/>
      <point x="192" y="793" type="line"/>
      <point x="141" y="372" type="line"/>
      <point x="147" y="366" type="line"/>
      <point x="207" y="373" type="line"/>
      <point x="259" y="792" type="line"/>
    </contour>
    <contour>
      <point x="173" y="160" type="line"/>
      <point x="114" y="153" type="line"/>
      <point x="64" y="-253" type="line"/>
      <point x="70" y="-262" type="line"/>
      <point x="129" y="-258" type="line"/>
      <point x="180" y="151" type="line"/>
    </contour>
  </outline>
</glyph>
<glyph name="section" format="2">
  <advance width="394"/>
  <unicode hex="00A7"/>
  <outline>
    <contour>
      <point x="188" y="434" type="line"/>
      <point x="96" y="413"/>
      <point x="26" y="345"/>
      <point x="26" y="270" type="curve" smooth="yes"/>
      <point x="26" y="145"/>
      <point x="223" y="110"/>
      <point x="223" y="28" type="curve" smooth="yes"/>
      <point x="223" y="-6"/>
      <point x="185" y="-45"/>
      <point x="128" y="-45" type="curve" smooth="yes"/>
      <point x="86" y="-45"/>
      <point x="44" y="-25"/>
      <point x="10" y="10" type="curve"/>
      <point x="1" y="4" type="line"/>
      <point x="-18" y="-69" type="line"/>
      <point x="18" y="-89"/>
      <point x="71" y="-101"/>
      <point x="113" y="-101" type="curve" smooth="yes"/>
      <point x="217" y="-101"/>
      <point x="297" y="-32"/>
      <point x="297" y="46" type="curve" smooth="yes"/>
      <point x="297" y="168"/>
      <point x="101" y="204"/>
      <point x="101" y="291" type="curve" smooth="yes"/>
      <point x="101" y="328"/>
      <point x="136" y="363"/>
      <point x="211" y="389" type="curve"/>
    </contour>
    <contour>
      <point x="277" y="647" type="curve" smooth="yes"/>
      <point x="175" y="647"/>
      <point x="97" y="579"/>
      <point x="97" y="501" type="curve" smooth="yes"/>
      <point x="97" y="381"/>
      <point x="292" y="347"/>
      <point x="292" y="255" type="curve" smooth="yes"/>
      <point x="292" y="220"/>
      <point x="267" y="187"/>
      <point x="182" y="160" type="curve"/>
      <point x="208" y="117" type="line"/>
      <point x="303" y="139"/>
      <point x="366" y="205"/>
      <point x="366" y="277" type="curve" smooth="yes"/>
      <point x="366" y="403"/>
      <point x="171" y="438"/>
      <point x="171" y="518" type="curve" smooth="yes"/>
      <point x="171" y="551"/>
      <point x="207" y="589"/>
      <point x="258" y="589" type="curve" smooth="yes"/>
      <point x="287" y="589"/>
      <point x="320" y="577"/>
      <point x="354" y="550" type="curve"/>
      <point x="366" y="553" type="line"/>
      <point x="385" y="625" type="line"/>
      <point x="350" y="640"/>
      <point x="309" y="647"/>
    </contour>
  </outline>
</glyph>
<glyph name="copyright" format="2">
  <advance width="691.258"/>
  <unicode hex="00A9"/>
  <outline>
    <contour>
      <point x="353" y="598" type="curve" smooth="yes"/>
      <point x="175" y="598"/>
      <point x="57" y="476"/>
      <point x="57" y="293" type="curve" smooth="yes"/>
      <point x="57" y="110"/>
      <point x="175" y="-12"/>
      <point x="353" y="-12" type="curve" smooth="yes"/>
      <point x="531" y="-12"/>
      <point x="649" y="110"/>
      <point x="649" y="293" type="curve" smooth="yes"/>
      <point x="649" y="476"/>
      <point x="531" y="598"/>
    </contour>
    <contour>
      <point x="369" y="465" type="curve" smooth="yes"/>
      <point x="264" y="465"/>
      <point x="206" y="403"/>
      <point x="206" y="294" type="curve" smooth="yes"/>
      <point x="206" y="186"/>
      <point x="259" y="126"/>
      <point x="363" y="126" type="curve" smooth="yes"/>
      <point x="392" y="126"/>
      <point x="424" y="134"/>
      <point x="452" y="148" type="curve"/>
      <point x="457" y="196" type="line"/>
      <point x="451" y="198" type="line"/>
      <point x="426" y="184"/>
      <point x="394" y="176"/>
      <point x="367" y="176" type="curve" smooth="yes"/>
      <point x="301" y="176"/>
      <point x="267" y="218"/>
      <point x="267" y="299" type="curve" smooth="yes"/>
      <point x="267" y="377"/>
      <point x="301" y="415"/>
      <point x="367" y="415" type="curve" smooth="yes"/>
      <point x="393" y="415"/>
      <point x="423" y="407"/>
      <point x="445" y="393" type="curve"/>
      <point x="450" y="395" type="line"/>
      <point x="462" y="443" type="line"/>
      <point x="434" y="456"/>
      <point x="402" y="465"/>
    </contour>
    <contour>
      <point x="353" y="563" type="curve" smooth="yes"/>
      <point x="509" y="563"/>
      <point x="614" y="455"/>
      <point x="614" y="293" type="curve" smooth="yes"/>
      <point x="614" y="131"/>
      <point x="509" y="23"/>
      <point x="353" y="23" type="curve" smooth="yes"/>
      <point x="196" y="23"/>
      <point x="92" y="131"/>
      <point x="92" y="293" type="curve" smooth="yes"/>
      <point x="92" y="455"/>
      <point x="196" y="563"/>
    </contour>
  </outline>
</glyph>
<glyph name="logicalnot" format="2">
  <advance width="479.94"/>
  <unicode hex="00AC"/>
  <outline>
    <contour>
      <point x="427" y="294" type="line"/>
      <point x="41" y="294" type="line"/>
      <point x="30" y="241" type="line"/>
      <point x="35" y="235" type="line"/>
      <point x="366" y="235" type="line"/>
      <point x="344" y="61" type="line"/>
      <point x="351" y="55" type="line"/>
      <point x="404" y="59" type="line"/>
      <point x="432" y="287" type="line"/>
    </contour>
  </outline>
</glyph>
<glyph name="registered" format="2">
  <advance width="439.82"/>
  <unicode hex="00AE"/>
  <outline>
    <contour>
      <point x="220" y="702" type="curve" smooth="yes"/>
      <point x="111" y="702"/>
      <point x="38" y="630"/>
      <point x="38" y="521" type="curve" smooth="yes"/>
      <point x="38" y="411"/>
      <point x="111" y="338"/>
      <point x="220" y="338" type="curve" smooth="yes"/>
      <point x="330" y="338"/>
      <point x="402" y="411"/>
      <point x="402" y="521" type="curve" smooth="yes"/>
      <point x="402" y="630"/>
      <point x="330" y="702"/>
    </contour>
    <contour>
      <point x="192" y="624" type="line"/>
      <point x="154" y="624" type="line"/>
      <point x="155" y="488" type="line"/>
      <point x="154" y="430" type="line"/>
      <point x="191" y="430" type="line"/>
      <point x="189" y="492" type="line"/>
    </contour>
    <contour>
      <point x="249" y="515" type="curve"/>
      <point x="213" y="515" type="line"/>
      <point x="229" y="487"/>
      <point x="245" y="458"/>
      <point x="265" y="430" type="curve"/>
      <point x="269" y="427" type="line"/>
      <point x="281" y="428"/>
      <point x="295" y="430"/>
      <point x="305" y="434" type="curve"/>
      <point x="306" y="438" type="line"/>
      <point x="285" y="463"/>
      <point x="266" y="489"/>
    </contour>
    <contour>
      <point x="221" y="675" type="curve" smooth="yes"/>
      <point x="314" y="675"/>
      <point x="376" y="614"/>
      <point x="376" y="521" type="curve" smooth="yes"/>
      <point x="376" y="427"/>
      <point x="314" y="365"/>
      <point x="221" y="365" type="curve" smooth="yes"/>
      <point x="128" y="365"/>
      <point x="66" y="427"/>
      <point x="66" y="521" type="curve" smooth="yes"/>
      <point x="66" y="614"/>
      <point x="128" y="675"/>
    </contour>
    <contour>
      <point x="228" y="624" type="curve"/>
      <point x="154" y="624" type="line"/>
      <point x="175" y="594" type="line"/>
      <point x="216" y="596" type="line"/>
      <point x="242" y="595"/>
      <point x="255" y="584"/>
      <point x="255" y="563" type="curve" smooth="yes"/>
      <point x="255" y="544"/>
      <point x="245" y="534"/>
      <point x="225" y="527" type="curve"/>
      <point x="168" y="530" type="line"/>
      <point x="168" y="498" type="line"/>
      <point x="226" y="498" type="line"/>
      <point x="268" y="506"/>
      <point x="293" y="534"/>
      <point x="293" y="566" type="curve" smooth="yes"/>
      <point x="293" y="604"/>
      <point x="270" y="624"/>
    </contour>
  </outline>
</glyph>
<glyph name="degree" format="2">
  <advance width="293.334"/>
  <unicode hex="00B0"/>
  <outline>
    <contour>
      <point x="198" y="648" type="curve" smooth="yes"/>
      <point x="122" y="648"/>
      <point x="55" y="586"/>
      <point x="55" y="510" type="curve" smooth="yes"/>
      <point x="55" y="447"/>
      <point x="102" y="398"/>
      <point x="168" y="398" type="curve" smooth="yes"/>
      <point x="243" y="398"/>
      <point x="310" y="460"/>
      <point x="310" y="536" type="curve" smooth="yes"/>
      <point x="310" y="599"/>
      <point x="263" y="648"/>
    </contour>
    <contour>
      <point x="193" y="607" type="curve" smooth="yes"/>
      <point x="236" y="607"/>
      <point x="268" y="573"/>
      <point x="268" y="531" type="curve" smooth="yes"/>
      <point x="268" y="481"/>
      <point x="223" y="439"/>
      <point x="172" y="439" type="curve" smooth="yes"/>
      <point x="129" y="439"/>
      <point x="97" y="473"/>
      <point x="97" y="515" type="curve" smooth="yes"/>
      <point x="97" y="565"/>
      <point x="143" y="607"/>
    </contour>
  </outline>
</glyph>
<glyph name="paragraph" format="2">
  <advance width="490.456"/>
  <unicode hex="00B6"/>
  <outline>
    <contour>
      <point x="509" y="641" type="line"/>
      <point x="320" y="641" type="line" smooth="yes"/>
      <point x="163" y="641"/>
      <point x="62" y="556"/>
      <point x="62" y="415" type="curve" smooth="yes"/>
      <point x="62" y="315"/>
      <point x="122" y="250"/>
      <point x="229" y="228" type="curve"/>
      <point x="263" y="276" type="line"/>
      <point x="190" y="299"/>
      <point x="152" y="350"/>
      <point x="152" y="420" type="curve" smooth="yes"/>
      <point x="152" y="509"/>
      <point x="201" y="567"/>
      <point x="287" y="575" type="curve"/>
      <point x="344" y="575" type="line"/>
      <point x="296" y="171" type="line"/>
      <point x="290" y="125" type="line" smooth="yes"/>
      <point x="283" y="62"/>
      <point x="245" y="16"/>
      <point x="165" y="-29" type="curve"/>
      <point x="163" y="-39" type="line"/>
      <point x="183" y="-78" type="line"/>
      <point x="309" y="-21"/>
      <point x="360" y="41"/>
      <point x="371" y="130" type="curve" smooth="yes"/>
      <point x="377" y="184" type="line"/>
      <point x="428" y="574" type="line"/>
      <point x="501" y="574" type="line"/>
      <point x="515" y="633" type="line"/>
    </contour>
  </outline>
</glyph>
<glyph name="AE" format="2">
  <advance width="770"/>
  <unicode hex="00C6"/>
  <anchor x="525" y="641" name="top"/>
  <outline>
    <contour>
      <point x="719" y="641" type="line"/>
      <point x="354" y="641" type="line"/>
      <point x="-43" y="0" type="line"/>
      <point x="44" y="0" type="line"/>
      <point x="78" y="70" type="line"/>
      <point x="376" y="554" type="line"/>
      <point x="382" y="554" type="line"/>
      <point x="388" y="66" type="line"/>
      <point x="385" y="0" type="line"/>
      <point x="722" y="0" type="line"/>
      <point x="737" y="67" type="line"/>
      <point x="732" y="75" type="line"/>
      <point x="576" y="69" type="line"/>
      <point x="469" y="69" type="line"/>
      <point x="465" y="571" type="line"/>
      <point x="556" y="571" type="line"/>
      <point x="708" y="566" type="line"/>
      <point x="724" y="633" type="line"/>
    </contour>
    <contour>
      <point x="674" y="386" type="line"/>
      <point x="451" y="337" type="line"/>
      <point x="147" y="268" type="line"/>
      <point x="113" y="191" type="line"/>
      <point x="450" y="270" type="line"/>
      <point x="678" y="318" type="line"/>
      <point x="680" y="380" type="line"/>
    </contour>
  </outline>
</glyph>
<glyph name="Eth" format="2">
  <advance width="647"/>
  <unicode hex="00D0"/>
  <outline>
    <contour>
      <point x="383" y="645" type="curve"/>
      <point x="166" y="641" type="line"/>
      <point x="228" y="569" type="line"/>
      <point x="256" y="571"/>
      <point x="351" y="574"/>
      <point x="374" y="574" type="curve" smooth="yes"/>
      <point x="482" y="574"/>
      <point x="537" y="510"/>
      <point x="537" y="379" type="curve" smooth="yes"/>
      <point x="537" y="172"/>
      <point x="452" y="65"/>
      <point x="308" y="65" type="curve" smooth="yes"/>
      <point x="285" y="65"/>
      <point x="195" y="69"/>
      <point x="153" y="74" type="curve"/>
      <point x="85" y="0" type="line"/>
      <point x="139" y="-3"/>
      <point x="253" y="-6"/>
      <point x="291" y="-6" type="curve"/>
      <point x="508" y="-6"/>
      <point x="627" y="148"/>
      <point x="627" y="395" type="curve" smooth="yes"/>
      <point x="627" y="555"/>
      <point x="538" y="645"/>
    </contour>
    <contour>
      <point x="251" y="641" type="line"/>
      <point x="165" y="641" type="line"/>
      <point x="114" y="193" type="line"/>
      <point x="84" y="0" type="line"/>
      <point x="170" y="0" type="line"/>
      <point x="190" y="200" type="line"/>
    </contour>
    <contour>
      <point x="361.76800000000003" y="354" type="line"/>
      <point x="37.384" y="354" type="line"/>
      <point x="30.189999999999998" y="301" type="line"/>
      <point x="33.46" y="294" type="line"/>
      <point x="358.498" y="294" type="line"/>
      <point x="365.038" y="347" type="line"/>
    </contour>
  </outline>
</glyph>
<glyph name="multiply" format="2">
  <advance width="480.661"/>
  <unicode hex="00D7"/>
  <outline>
    <contour>
      <point x="389" y="431" type="line"/>
      <point x="250" y="307" type="line"/>
      <point x="140" y="431" type="line"/>
      <point x="96" y="397" type="line"/>
      <point x="95" y="387" type="line"/>
      <point x="203" y="265" type="line"/>
      <point x="64" y="141" type="line"/>
      <point x="63" y="133" type="line"/>
      <point x="99" y="98" type="line"/>
      <point x="239" y="222" type="line"/>
      <point x="348" y="98" type="line"/>
      <point x="393" y="133" type="line"/>
      <point x="394" y="142" type="line"/>
      <point x="287" y="265" type="line"/>
      <point x="425" y="387" type="line"/>
      <point x="426" y="397" type="line"/>
    </contour>
  </outline>
</glyph>
<glyph name="Oslash" format="2">
  <advance width="614"/>
  <unicode hex="00D8"/>
  <anchor x="279" y="0" name="bottom"/>
  <anchor x="338" y="641" name="top"/>
  <outline>
    <contour>
      <point x="562" y="706" type="line"/>
      <point x="513" y="725" type="line"/>
      <point x="56" y="-77" type="line"/>
      <point x="59" y="-85" type="line"/>
      <point x="108" y="-104" type="line"/>
      <point x="565" y="696" type="line"/>
    </contour>
    <contour>
      <point x="361" y="648" type="curve"/>
      <point x="157" y="648"/>
      <point x="45" y="500"/>
      <point x="45" y="255" type="curve" smooth="yes"/>
      <point x="45" y="89"/>
      <point x="132" y="-8"/>
      <point x="277" y="-8" type="curve" smooth="yes"/>
      <point x="481" y="-8"/>
      <point x="594" y="145"/>
      <point x="594" y="391" type="curve" smooth="yes"/>
      <point x="594" y="554"/>
      <point x="508" y="648"/>
    </contour>
    <contour>
      <point x="351" y="577" type="curve" smooth="yes"/>
      <point x="453" y="577"/>
      <point x="504" y="513"/>
      <point x="504" y="381" type="curve" smooth="yes"/>
      <point x="504" y="175"/>
      <point x="433" y="63"/>
      <point x="285" y="63" type="curve" smooth="yes"/>
      <point x="183" y="63"/>
      <point x="133" y="128"/>
      <point x="133" y="261" type="curve" smooth="yes"/>
      <point x="133" y="465"/>
      <point x="201" y="577"/>
    </contour>
  </outline>
</glyph>
<glyph name="Thorn" format="2">
  <advance width="509"/>
  <unicode hex="00DE"/>
  <outline>
    <contour>
      <point x="227" y="641" type="line"/>
      <point x="142" y="641" type="line"/>
      <point x="89" y="193" type="line"/>
      <point x="61" y="0" type="line"/>
      <point x="146" y="0" type="line"/>
      <point x="167" y="200" type="line"/>
    </contour>
    <contour>
      <point x="316" y="532" type="curve"/>
      <point x="132" y="531" type="line"/>
      <point x="168" y="458" type="line"/>
      <point x="295" y="462" type="line"/>
      <point x="375" y="458"/>
      <point x="404" y="421"/>
      <point x="404" y="352" type="curve" smooth="yes"/>
      <point x="404" y="260"/>
      <point x="352" y="193"/>
      <point x="278" y="182" type="curve"/>
      <point x="119" y="185" type="line"/>
      <point x="110" y="113" type="line"/>
      <point x="232" y="113" type="line"/>
      <point x="393" y="113"/>
      <point x="492" y="221"/>
      <point x="492" y="364" type="curve" smooth="yes"/>
      <point x="492" y="479"/>
      <point x="423" y="532"/>
    </contour>
  </outline>
</glyph>
<glyph name="germandbls" format="2">
  <advance width="556"/>
  <unicode hex="00DF"/>
  <outline>
    <contour>
      <point x="348" y="704" type="curve" smooth="yes"/>
      <point x="235" y="704"/>
      <point x="161" y="639"/>
      <point x="146" y="523" type="curve"/>
      <point x="100" y="190" type="line"/>
      <point x="55" y="-126" type="line"/>
      <point x="140" y="-119" type="line"/>
      <point x="144" y="-12" type="line"/>
      <point x="174" y="200" type="line"/>
      <point x="221" y="544" type="line"/>
      <point x="233" y="608"/>
      <point x="280" y="638"/>
      <point x="340" y="638" type="curve" smooth="yes"/>
      <point x="394" y="638"/>
      <point x="420" y="615"/>
      <point x="420" y="570" type="curve" smooth="yes"/>
      <point x="420" y="476"/>
      <point x="299" y="462"/>
      <point x="299" y="336" type="curve"/>
      <point x="298" y="223"/>
      <point x="443" y="196"/>
      <point x="443" y="118" type="curve" smooth="yes"/>
      <point x="443" y="79"/>
      <point x="411" y="48"/>
      <point x="368" y="48" type="curve" smooth="yes"/>
      <point x="332" y="48"/>
      <point x="296" y="69"/>
      <point x="267" y="107" type="curve"/>
      <point x="256" y="102" type="line"/>
      <point x="237" y="26" type="line"/>
      <point x="268" y="8"/>
      <point x="304" y="-4"/>
      <point x="343" y="-8" type="curve"/>
      <point x="445" y="-7"/>
      <point x="517" y="55"/>
      <point x="517" y="135" type="curve" smooth="yes"/>
      <point x="517" y="250"/>
      <point x="373" y="279"/>
      <point x="373" y="352" type="curve"/>
      <point x="373" y="438"/>
      <point x="497" y="458"/>
      <point x="497" y="581" type="curve" smooth="yes"/>
      <point x="497" y="659"/>
      <point x="443" y="704"/>
    </contour>
    <contour>
      <point x="165" y="450" type="line"/>
      <point x="61" y="450" type="line"/>
      <point x="53" y="400" type="line"/>
      <point x="58" y="394" type="line"/>
      <point x="164" y="394" type="line"/>
      <point x="172" y="442" type="line"/>
    </contour>
  </outline>
</glyph>
<glyph name="ae" format="2">
  <advance width="623"/>
  <unicode hex="00E6"/>
  <anchor x="607" y="0" name="bottom"/>
  <anchor x="401" y="10" name="ogonek"/>
  <anchor x="347" y="460" name="top"/>
  <outline>
    <contour>
      <point x="380" y="425" type="curve"/>
      <point x="274" y="467" type="line"/>
      <point x="269" y="467" type="line"/>
      <point x="109" y="439"/>
      <point x="31" y="286"/>
      <point x="31" y="153" type="curve" smooth="yes"/>
      <point x="31" y="73"/>
      <point x="60" y="21"/>
      <point x="112" y="-8" type="curve"/>
      <point x="127" y="-8" type="line"/>
      <point x="180" y="41"/>
      <point x="228" y="102"/>
      <point x="270" y="169" type="curve"/>
      <point x="270" y="169"/>
      <point x="271" y="162"/>
      <point x="271" y="163" type="curve" smooth="yes"/>
      <point x="271" y="63"/>
      <point x="304" y="3"/>
      <point x="401" y="-7" type="curve"/>
      <point x="414" y="-7" type="line"/>
      <point x="474" y="8"/>
      <point x="526" y="50"/>
      <point x="573" y="116" type="curve"/>
      <point x="545" y="155" type="line"/>
      <point x="532" y="156" type="line"/>
      <point x="507" y="104"/>
      <point x="458" y="64"/>
      <point x="413" y="64" type="curve" smooth="yes"/>
      <point x="375" y="64"/>
      <point x="354" y="94"/>
      <point x="351" y="163" type="curve" smooth="yes"/>
      <point x="351" y="167"/>
      <point x="351" y="171"/>
      <point x="351" y="174" type="curve"/>
      <point x="524" y="232"/>
      <point x="599" y="297"/>
      <point x="599" y="374" type="curve" smooth="yes"/>
      <point x="599" y="428"/>
      <point x="566" y="458"/>
      <point x="511" y="467" type="curve"/>
      <point x="501" y="468" type="line"/>
      <point x="455" y="466"/>
      <point x="414" y="451"/>
    </contour>
    <contour>
      <point x="251" y="398" type="curve"/>
      <point x="325" y="368" type="line"/>
      <point x="316" y="355"/>
      <point x="309" y="341"/>
      <point x="302" y="326" type="curve" smooth="yes"/>
      <point x="230" y="164"/>
      <point x="158" y="85"/>
      <point x="136" y="85" type="curve" smooth="yes"/>
      <point x="123" y="85"/>
      <point x="108" y="103"/>
      <point x="108" y="175" type="curve" smooth="yes"/>
      <point x="108" y="298"/>
      <point x="161" y="398"/>
    </contour>
    <contour>
      <point x="478" y="407" type="curve" smooth="yes"/>
      <point x="509" y="407"/>
      <point x="523" y="393"/>
      <point x="523" y="368" type="curve" smooth="yes"/>
      <point x="523" y="315"/>
      <point x="465" y="270"/>
      <point x="354" y="236" type="curve"/>
      <point x="367" y="340"/>
      <point x="414" y="407"/>
    </contour>
  </outline>
</glyph>
<glyph name="eth" format="2">
  <advance width="440"/>
  <unicode hex="00F0"/>
  <outline>
    <contour>
      <point x="133" y="706" type="curve"/>
      <point x="127" y="706" type="line"/>
      <point x="70" y="665" type="line"/>
      <point x="68" y="654" type="line"/>
      <point x="237" y="580"/>
      <point x="317" y="469"/>
      <point x="317" y="307" type="curve"/>
      <point x="316" y="155"/>
      <point x="271" y="54"/>
      <point x="181" y="54" type="curve" smooth="yes"/>
      <point x="137" y="54"/>
      <point x="120" y="83"/>
      <point x="120" y="152" type="curve" smooth="yes"/>
      <point x="120" y="303"/>
      <point x="166" y="403"/>
      <point x="256" y="403" type="curve" smooth="yes"/>
      <point x="288" y="403"/>
      <point x="308" y="390"/>
      <point x="321" y="360" type="curve"/>
      <point x="368" y="398" type="line"/>
      <point x="350" y="432"/>
      <point x="320" y="452"/>
      <point x="277" y="459" type="curve"/>
      <point x="268" y="459" type="line"/>
      <point x="130" y="452"/>
      <point x="44" y="327"/>
      <point x="44" y="152" type="curve" smooth="yes"/>
      <point x="44" y="52"/>
      <point x="84" y="7"/>
      <point x="161" y="-8" type="curve"/>
      <point x="170" y="-9" type="line"/>
      <point x="310" y="3"/>
      <point x="394" y="128"/>
      <point x="394" y="312" type="curve"/>
      <point x="395" y="481"/>
      <point x="306" y="625"/>
    </contour>
    <contour>
      <point x="373" y="689" type="line"/>
      <point x="74" y="540" type="line"/>
      <point x="87" y="498" type="line"/>
      <point x="94" y="495" type="line"/>
      <point x="394" y="644" type="line"/>
      <point x="380" y="686" type="line"/>
    </contour>
  </outline>
</glyph>
<glyph name="divide" format="2">
  <advance width="477"/>
  <unicode hex="00F7"/>
  <outline>
    <contour>
      <point x="446" y="294" type="line"/>
      <point x="38" y="294" type="line"/>
      <point x="33" y="241" type="line"/>
      <point x="39" y="235" type="line"/>
      <point x="448" y="235" type="line"/>
      <point x="453" y="288" type="line"/>
    </contour>
    <contour>
      <point x="222.796" y="137.86200000000002" type="curve" smooth="yes"/>
      <point x="193.842" y="137.86200000000002"/>
      <point x="176.096" y="119.182"/>
      <point x="176.096" y="91.162" type="curve" smooth="yes"/>
      <point x="176.096" y="63.142"/>
      <point x="191.974" y="46.33"/>
      <point x="219.994" y="46.33" type="curve" smooth="yes"/>
      <point x="248.014" y="46.33"/>
      <point x="265.76" y="65.01"/>
      <point x="265.76" y="93.964" type="curve" smooth="yes"/>
      <point x="265.76" y="121.05"/>
      <point x="249.882" y="137.86200000000002"/>
    </contour>
    <contour>
      <point x="264.796" y="486.862" type="curve" smooth="yes"/>
      <point x="235.842" y="486.862"/>
      <point x="218.096" y="468.182"/>
      <point x="218.096" y="440.162" type="curve" smooth="yes"/>
      <point x="218.096" y="412.142"/>
      <point x="233.974" y="395.33"/>
      <point x="261.994" y="395.33" type="curve" smooth="yes"/>
      <point x="290.014" y="395.33"/>
      <point x="307.76" y="414.01"/>
      <point x="307.76" y="442.964" type="curve" smooth="yes"/>
      <point x="307.76" y="470.05"/>
      <point x="291.882" y="486.862"/>
    </contour>
  </outline>
</glyph>
<glyph name="oslash" format="2">
  <advance width="414"/>
  <unicode hex="00F8"/>
  <anchor x="179" y="0" name="bottom"/>
  <anchor x="207" y="230" name="center"/>
  <anchor x="263" y="30" name="ogonek"/>
  <anchor x="245" y="459" name="top"/>
  <anchor x="422" y="459" name="topright"/>
  <outline>
    <contour>
      <point x="380" y="532" type="line"/>
      <point x="337" y="553" type="line"/>
      <point x="17" y="-87" type="line"/>
      <point x="20" y="-95" type="line"/>
      <point x="67" y="-117" type="line"/>
      <point x="385" y="523" type="line"/>
    </contour>
    <contour>
      <point x="260" y="467" type="line"/>
      <point x="120" y="459"/>
      <point x="34" y="332"/>
      <point x="34" y="152" type="curve" smooth="yes"/>
      <point x="34" y="53"/>
      <point x="73" y="7"/>
      <point x="149" y="-8" type="curve"/>
      <point x="158" y="-9" type="line"/>
      <point x="299" y="3"/>
      <point x="381" y="128"/>
      <point x="381" y="313" type="curve" smooth="yes"/>
      <point x="381" y="407"/>
      <point x="342" y="454"/>
      <point x="269" y="467" type="curve"/>
    </contour>
    <contour>
      <point x="244" y="399" type="curve" smooth="yes"/>
      <point x="284" y="399"/>
      <point x="301" y="373"/>
      <point x="301" y="307" type="curve" smooth="yes"/>
      <point x="301" y="158"/>
      <point x="258" y="58"/>
      <point x="170" y="58" type="curve" smooth="yes"/>
      <point x="128" y="58"/>
      <point x="112" y="86"/>
      <point x="112" y="152" type="curve" smooth="yes"/>
      <point x="112" y="302"/>
      <point x="155" y="399"/>
    </contour>
  </outline>
</glyph>
<glyph name="thorn" format="2">
  <advance width="443"/>
  <unicode hex="00FE"/>
  <outline>
    <contour>
      <point x="334" y="467" type="curve"/>
      <point x="319" y="467" type="line"/>
      <point x="263" y="413"/>
      <point x="213" y="343"/>
      <point x="170" y="269" type="curve"/>
      <point x="147" y="269" type="line"/>
      <point x="133" y="98" type="line"/>
      <point x="207" y="283"/>
      <point x="287" y="374"/>
      <point x="309" y="374" type="curve" smooth="yes"/>
      <point x="322" y="374"/>
      <point x="337" y="356"/>
      <point x="337" y="284" type="curve" smooth="yes"/>
      <point x="337" y="161"/>
      <point x="285" y="60"/>
      <point x="196" y="60" type="curve"/>
      <point x="107" y="85" type="line"/>
      <point x="67" y="17" type="line"/>
      <point x="173" y="-8" type="line"/>
      <point x="178" y="-8" type="line"/>
      <point x="336" y="19"/>
      <point x="414" y="172"/>
      <point x="414" y="306" type="curve" smooth="yes"/>
      <point x="414" y="386"/>
      <point x="385" y="438"/>
    </contour>
    <contour>
      <point x="218" y="703" type="line"/>
      <point x="135" y="697" type="line"/>
      <point x="131" y="597" type="line"/>
      <point x="20" y="-192" type="line"/>
      <point x="106" y="-185" type="line"/>
      <point x="110" y="-74" type="line"/>
    </contour>
  </outline>
</glyph>
<glyph name="dcroat" format="2">
  <advance width="453.911"/>
  <unicode hex="0111"/>
  <anchor x="194" y="0" name="bottom"/>
  <anchor x="330" y="230" name="center"/>
  <anchor x="333" y="460" name="top"/>
  <anchor x="527" y="416" name="topright"/>
  <outline>
    <contour>
      <point x="491" y="607" type="line"/>
      <point x="219" y="607" type="line"/>
      <point x="214" y="562" type="line"/>
      <point x="220" y="556" type="line"/>
      <point x="493" y="556" type="line"/>
      <point x="498" y="600" type="line"/>
    </contour>
    <contour>
      <point x="272" y="467" type="line"/>
      <point x="267" y="467" type="line"/>
      <point x="108" y="440"/>
      <point x="30" y="286"/>
      <point x="30" y="153" type="curve" smooth="yes"/>
      <point x="30" y="73"/>
      <point x="58" y="21"/>
      <point x="110" y="-8" type="curve"/>
      <point x="126" y="-8" type="line"/>
      <point x="181" y="46"/>
      <point x="232" y="113"/>
      <point x="276" y="187" type="curve"/>
      <point x="298" y="187" type="line"/>
      <point x="313" y="360" type="line"/>
      <point x="238" y="175"/>
      <point x="157" y="85"/>
      <point x="135" y="85" type="curve" smooth="yes"/>
      <point x="122" y="85"/>
      <point x="106" y="103"/>
      <point x="106" y="175" type="curve" smooth="yes"/>
      <point x="106" y="298"/>
      <point x="159" y="398"/>
      <point x="249" y="398" type="curve"/>
      <point x="338" y="362" type="line"/>
      <point x="370" y="427" type="line"/>
    </contour>
    <contour>
      <point x="433" y="704" type="line"/>
      <point x="347" y="697" type="line"/>
      <point x="345" y="598" type="line"/>
      <point x="259" y="-4" type="line"/>
      <point x="345" y="3" type="line"/>
      <point x="349" y="110" type="line"/>
    </contour>
  </outline>
</glyph>
<glyph name="gcommaaccent" format="2">
  <advance width="446"/>
  <unicode hex="0123"/>
  <outline>
    <contour>
      <point x="390" y="467" type="line"/>
      <point x="317" y="430" type="line"/>
      <point x="313" y="357" type="line"/>
      <point x="265" y="16" type="line" smooth="yes"/>
      <point x="251" y="-83"/>
      <point x="196" y="-134"/>
      <point x="127" y="-134" type="curve" smooth="yes"/>
      <point x="70" y="-134"/>
      <point x="35" y="-98"/>
      <point x="35" y="-64" type="curve" smooth="yes"/>
      <point x="35" y="-56"/>
      <point x="37" y="-52"/>
      <point x="45" y="-46" type="curve" smooth="yes"/>
      <point x="139" y="23" type="line"/>
      <point x="89" y="61" type="line"/>
      <point x="87" y="38" type="line"/>
      <point x="-52" y="-43" type="line"/>
      <point x="-56" y="-52" type="line"/>
      <point x="-40" y="-147"/>
      <point x="21" y="-198"/>
      <point x="108" y="-198" type="curve" smooth="yes"/>
      <point x="222" y="-198"/>
      <point x="322" y="-110"/>
      <point x="343" y="39" type="curve"/>
      <point x="350" y="109" type="line"/>
      <point x="401" y="461" type="line"/>
    </contour>
    <contour>
      <point x="273" y="466" type="line"/>
      <point x="268" y="466" type="line"/>
      <point x="121" y="440"/>
      <point x="46" y="305"/>
      <point x="46" y="167" type="curve" smooth="yes"/>
      <point x="46" y="88"/>
      <point x="71" y="47"/>
      <point x="127" y="23" type="curve"/>
      <point x="139" y="23" type="line"/>
      <point x="191" y="64"/>
      <point x="239" y="124"/>
      <point x="278" y="196" type="curve"/>
      <point x="302" y="196" type="line"/>
      <point x="320" y="365" type="line"/>
      <point x="245" y="196"/>
      <point x="169" y="101"/>
      <point x="149" y="101" type="curve" smooth="yes"/>
      <point x="140" y="101"/>
      <point x="122" y="125"/>
      <point x="122" y="197" type="curve" smooth="yes"/>
      <point x="122" y="308"/>
      <point x="165" y="398"/>
      <point x="251" y="398" type="curve"/>
      <point x="339" y="361" type="line"/>
      <point x="376" y="424" type="line"/>
    </contour>
    <contour>
      <point x="293.342" y="518.18" type="curve"/>
      <point x="310.936" y="528.3659999999999"/>
      <point x="327.604" y="539.478"/>
      <point x="340.568" y="551.516" type="curve"/>
      <point x="340.568" y="558.924" type="line"/>
      <point x="314.64" y="570.036"/>
      <point x="304.45399999999995" y="587.6299999999999"/>
      <point x="304.45399999999995" y="611.7059999999999" type="curve" smooth="yes"/>
      <point x="304.45399999999995" y="634.856"/>
      <point x="316.49199999999996" y="660.7839999999999"/>
      <point x="343.34599999999995" y="689.49" type="curve"/>
      <point x="342.41999999999996" y="695.972" type="line"/>
      <point x="312.78799999999995" y="716.3439999999999" type="line"/>
      <point x="265.56199999999995" y="670.0439999999999"/>
      <point x="243.33799999999997" y="628.3739999999999"/>
      <point x="243.33799999999997" y="589.482" type="curve" smooth="yes"/>
      <point x="243.33799999999997" y="555.2199999999999"/>
      <point x="259.0799999999999" y="532.0699999999999"/>
    </contour>
  </outline>
</glyph>
<glyph name="Hbar" format="2">
  <advance width="684"/>
  <unicode hex="0126"/>
  <anchor x="312" y="0" name="bottom"/>
  <anchor x="358" y="321" name="center"/>
  <anchor x="392" y="641" name="top"/>
  <anchor x="83" y="641" name="topleft"/>
  <outline>
    <contour>
      <point x="679" y="537" type="line"/>
      <point x="78" y="537" type="line"/>
      <point x="74" y="482" type="line"/>
      <point x="77" y="477" type="line"/>
      <point x="679" y="477" type="line"/>
      <point x="684" y="531" type="line"/>
    </contour>
    <contour>
      <point x="632" y="641" type="line"/>
      <point x="545" y="641" type="line"/>
      <point x="495" y="193" type="line"/>
      <point x="466" y="0" type="line"/>
      <point x="551" y="0" type="line"/>
      <point x="572" y="200" type="line"/>
    </contour>
    <contour>
      <point x="238" y="641" type="line"/>
      <point x="152" y="641" type="line"/>
      <point x="101" y="193" type="line"/>
      <point x="72" y="0" type="line"/>
      <point x="158" y="0" type="line"/>
      <point x="178" y="200" type="line"/>
    </contour>
    <contour>
      <point x="524" y="361" type="line"/>
      <point x="356" y="358" type="line"/>
      <point x="188" y="361" type="line"/>
      <point x="179" y="287" type="line"/>
      <point x="340" y="290" type="line"/>
      <point x="514" y="287" type="line"/>
    </contour>
  </outline>
</glyph>
<glyph name="hbar" format="2">
  <advance width="531"/>
  <unicode hex="0127"/>
  <anchor x="250" y="0" name="bottom"/>
  <anchor x="309" y="230" name="center"/>
  <anchor x="212" y="700" name="top"/>
  <outline>
    <contour>
      <point x="362" y="607" type="line"/>
      <point x="90" y="607" type="line"/>
      <point x="86" y="562" type="line"/>
      <point x="92" y="556" type="line"/>
      <point x="365" y="556" type="line"/>
      <point x="369" y="600" type="line"/>
    </contour>
    <contour>
      <point x="381" y="465" type="curve"/>
      <point x="370" y="465" type="line"/>
      <point x="313" y="419"/>
      <point x="265" y="356"/>
      <point x="203" y="248" type="curve"/>
      <point x="187" y="248" type="line"/>
      <point x="166" y="82" type="line"/>
      <point x="255" y="276"/>
      <point x="327" y="372"/>
      <point x="366" y="372" type="curve" smooth="yes"/>
      <point x="380" y="372"/>
      <point x="384" y="362"/>
      <point x="384" y="346" type="curve"/>
      <point x="383" y="334" type="line"/>
      <point x="329" y="-4" type="line"/>
      <point x="416" y="3" type="line"/>
      <point x="421" y="109" type="line"/>
      <point x="462" y="365" type="line"/>
      <point x="463" y="378" type="line"/>
      <point x="464" y="426"/>
      <point x="427" y="455"/>
    </contour>
    <contour>
      <point x="258" y="704" type="line"/>
      <point x="172" y="697" type="line"/>
      <point x="171" y="598" type="line"/>
      <point x="84" y="-4" type="line"/>
      <point x="170" y="3" type="line"/>
      <point x="174" y="110" type="line"/>
    </contour>
  </outline>
</glyph>
<glyph name="idotless" format="2">
  <advance width="221"/>
  <unicode hex="0131"/>
  <anchor x="83" y="0" name="bottom"/>
  <anchor x="126" y="3" name="ogonek"/>
  <anchor x="137" y="459" name="top"/>
  <outline>
    <contour>
      <point x="180" y="464" type="line"/>
      <point x="97" y="457" type="line"/>
      <point x="93" y="358" type="line"/>
      <point x="41" y="-4" type="line"/>
      <point x="126" y="3" type="line"/>
      <point x="130" y="110" type="line"/>
    </contour>
  </outline>
</glyph>
<glyph name="kgreenlandic" format="2">
  <advance width="470"/>
  <unicode hex="0138"/>
  <anchor x="173" y="10" name="ogonek"/>
  <anchor x="137" y="459" name="top"/>
  <outline>
    <contour>
      <point x="357" y="465" type="curve"/>
      <point x="343" y="464" type="line"/>
      <point x="280" y="422"/>
      <point x="226" y="347"/>
      <point x="161" y="251" type="curve"/>
      <point x="146" y="251" type="line"/>
      <point x="123" y="78" type="line"/>
      <point x="223" y="289"/>
      <point x="299" y="372"/>
      <point x="340" y="372" type="curve" smooth="yes"/>
      <point x="351" y="372"/>
      <point x="363" y="366"/>
      <point x="363" y="342" type="curve" smooth="yes"/>
      <point x="363" y="293"/>
      <point x="316" y="245"/>
      <point x="230" y="191" type="curve"/>
      <point x="227" y="177" type="line"/>
      <point x="260" y="115"/>
      <point x="294" y="52"/>
      <point x="332" y="-8" type="curve"/>
      <point x="341" y="-12" type="line"/>
      <point x="412" y="1" type="line"/>
      <point x="415" y="8" type="line"/>
      <point x="375" y="64"/>
      <point x="338" y="123"/>
      <point x="303" y="182" type="curve"/>
      <point x="392" y="235"/>
      <point x="445" y="296"/>
      <point x="445" y="363" type="curve" smooth="yes"/>
      <point x="445" y="423"/>
      <point x="409" y="454"/>
    </contour>
    <contour>
      <point x="180" y="464" type="line"/>
      <point x="97" y="457" type="line"/>
      <point x="93" y="358" type="line"/>
      <point x="41" y="-4" type="line"/>
      <point x="126" y="3" type="line"/>
      <point x="130" y="110" type="line"/>
    </contour>
  </outline>
</glyph>
<glyph name="ldot" format="2">
  <advance width="249"/>
  <unicode hex="0140"/>
  <anchor x="93" y="0" name="bottom"/>
  <anchor x="178" y="700" name="top"/>
  <anchor x="314" y="416" name="topright"/>
  <outline>
    <contour>
      <point x="182" y="-78" type="move"/>
    </contour>
    <contour>
      <point x="220" y="703" type="line"/>
      <point x="139" y="696" type="line"/>
      <point x="134" y="598" type="line"/>
      <point x="53" y="-4" type="line"/>
      <point x="135" y="3" type="line"/>
      <point x="141" y="110" type="line"/>
    </contour>
    <contour>
      <point x="255" y="336" type="curve" smooth="yes"/>
      <point x="225" y="336"/>
      <point x="206" y="316"/>
      <point x="206" y="286" type="curve" smooth="yes"/>
      <point x="206" y="256"/>
      <point x="223" y="238"/>
      <point x="252" y="238" type="curve" smooth="yes"/>
      <point x="282" y="238"/>
      <point x="302" y="258"/>
      <point x="302" y="289" type="curve" smooth="yes"/>
      <point x="302" y="318"/>
      <point x="284" y="336"/>
    </contour>
  </outline>
</glyph>
<glyph name="Lslash" format="2">
  <advance width="410"/>
  <unicode hex="0141"/>
  <anchor x="211" y="0" name="bottom"/>
  <anchor x="220.235" y="321" name="center"/>
  <anchor x="192" y="641" name="top"/>
  <anchor x="401" y="353" name="topright"/>
  <outline>
    <contour>
      <point x="329" y="463" type="line"/>
      <point x="17" y="303" type="line"/>
      <point x="26" y="252" type="line"/>
      <point x="35" y="247" type="line"/>
      <point x="348" y="408" type="line"/>
      <point x="338" y="459" type="line"/>
    </contour>
    <contour>
      <point x="233" y="641" type="line"/>
      <point x="147" y="641" type="line"/>
      <point x="96" y="193" type="line"/>
      <point x="66" y="0" type="line"/>
      <point x="152" y="0" type="line"/>
      <point x="173" y="200" type="line"/>
    </contour>
    <contour>
      <point x="383" y="72" type="line"/>
      <point x="129" y="72" type="line"/>
      <point x="117" y="7" type="line"/>
      <point x="119" y="0" type="line"/>
      <point x="372" y="0" type="line"/>
      <point x="387" y="64" type="line"/>
    </contour>
  </outline>
</glyph>
<glyph name="lslash" format="2">
  <advance width="249"/>
  <unicode hex="0142"/>
  <anchor x="79" y="0" name="bottom"/>
  <anchor x="165" y="700" name="top"/>
  <anchor x="226" y="459" name="topright"/>
  <outline>
    <contour>
      <point x="248" y="464" type="line"/>
      <point x="144" y="411" type="line"/>
      <point x="133" y="408" type="line"/>
      <point x="19" y="350" type="line"/>
      <point x="32" y="292" type="line"/>
      <point x="35" y="289" type="line"/>
      <point x="139" y="341" type="line"/>
      <point x="150" y="344" type="line"/>
      <point x="266" y="404" type="line"/>
      <point x="252" y="462" type="line"/>
    </contour>
    <contour>
      <point x="223" y="704" type="line"/>
      <point x="137" y="697" type="line"/>
      <point x="135" y="598" type="line"/>
      <point x="49" y="-4" type="line"/>
      <point x="135" y="3" type="line"/>
      <point x="138" y="110" type="line"/>
    </contour>
  </outline>
</glyph>
<glyph name="Eng" format="2">
  <advance width="664.754"/>
  <unicode hex="014A"/>
  <outline>
    <contour>
      <point x="623" y="643" type="line"/>
      <point x="541" y="637" type="line"/>
      <point x="482" y="138" type="line"/>
      <point x="475" y="138" type="line"/>
      <point x="232" y="641" type="line"/>
      <point x="141" y="641" type="line"/>
      <point x="90" y="190" type="line"/>
      <point x="60" y="0" type="line"/>
      <point x="141" y="0" type="line"/>
      <point x="164" y="212" type="line"/>
      <point x="199" y="505" type="line"/>
      <point x="206" y="505" type="line"/>
      <point x="451" y="1" type="line"/>
      <point x="430" y="-39"/>
      <point x="389" y="-70"/>
      <point x="325" y="-104" type="curve"/>
      <point x="323" y="-114" type="line"/>
      <point x="350" y="-162" type="line"/>
      <point x="482" y="-102"/>
      <point x="534" y="-43"/>
      <point x="548" y="58" type="curve"/>
      <point x="561" y="189" type="line"/>
    </contour>
  </outline>
</glyph>
<glyph name="eng" format="2">
  <advance width="467"/>
  <unicode hex="014B"/>
  <outline>
    <contour>
      <point x="184" y="80" type="move"/>
    </contour>
    <contour>
      <point x="98" y="457" type="line"/>
      <point x="94" y="358" type="line"/>
      <point x="41" y="-4" type="line"/>
      <point x="127" y="3" type="line"/>
      <point x="131" y="110" type="line"/>
      <point x="181" y="464" type="line"/>
    </contour>
    <contour>
      <point x="338" y="465" type="curve"/>
      <point x="327" y="465" type="line"/>
      <point x="269" y="419"/>
      <point x="222" y="356"/>
      <point x="160" y="248" type="curve"/>
      <point x="144" y="248" type="line"/>
      <point x="123" y="72" type="line"/>
      <point x="212" y="276"/>
      <point x="284" y="372"/>
      <point x="323" y="372" type="curve" smooth="yes"/>
      <point x="334" y="372"/>
      <point x="340" y="363"/>
      <point x="339" y="339" type="curve"/>
      <point x="338" y="326" type="line"/>
      <point x="288" y="15" type="line"/>
      <point x="375" y="111" type="line"/>
      <point x="418" y="365" type="line"/>
      <point x="419" y="378" type="line"/>
      <point x="420" y="426"/>
      <point x="383" y="455"/>
    </contour>
    <contour>
      <point x="375" y="111" type="line"/>
      <point x="288" y="15" type="line"/>
      <point x="278" y="-65"/>
      <point x="250" y="-105"/>
      <point x="189" y="-146" type="curve"/>
      <point x="188" y="-156" type="line"/>
      <point x="215" y="-194" type="line"/>
      <point x="309" y="-141"/>
      <point x="348" y="-87"/>
      <point x="364" y="18" type="curve"/>
    </contour>
  </outline>
</glyph>
<glyph name="OE" format="2">
  <advance width="817"/>
  <unicode hex="0152"/>
  <anchor x="593" y="641" name="top"/>
  <outline>
    <contour>
      <point x="394" y="653" type="curve" smooth="yes"/>
      <point x="176" y="653"/>
      <point x="44" y="503"/>
      <point x="44" y="261" type="curve" smooth="yes"/>
      <point x="44" y="90"/>
      <point x="133" y="-12"/>
      <point x="294" y="-12" type="curve" smooth="yes"/>
      <point x="354" y="-12"/>
      <point x="418" y="1"/>
      <point x="475" y="0" type="curve" smooth="yes"/>
      <point x="759" y="0" type="line"/>
      <point x="774" y="67" type="line"/>
      <point x="769" y="75" type="line"/>
      <point x="618" y="70" type="line"/>
      <point x="503" y="72" type="line"/>
      <point x="517" y="196" type="line"/>
      <point x="528" y="292" type="line"/>
      <point x="631" y="294" type="line"/>
      <point x="743" y="291" type="line"/>
      <point x="758" y="358" type="line"/>
      <point x="754" y="365" type="line"/>
      <point x="646" y="362" type="line"/>
      <point x="540" y="364" type="line"/>
      <point x="566" y="570" type="line"/>
      <point x="692" y="570" type="line"/>
      <point x="829" y="566" type="line"/>
      <point x="845" y="633" type="line"/>
      <point x="840" y="641" type="line"/>
      <point x="555" y="641" type="line" smooth="yes"/>
      <point x="501" y="641"/>
      <point x="454" y="653"/>
    </contour>
    <contour>
      <point x="377" y="582" type="curve" smooth="yes"/>
      <point x="417" y="582"/>
      <point x="457" y="575"/>
      <point x="470" y="569" type="curve" smooth="yes"/>
      <point x="479" y="565"/>
      <point x="481" y="556"/>
      <point x="478" y="531" type="curve" smooth="yes"/>
      <point x="430" y="104" type="line" smooth="yes"/>
      <point x="427" y="83"/>
      <point x="419" y="75"/>
      <point x="400" y="69" type="curve" smooth="yes"/>
      <point x="384" y="64"/>
      <point x="346" y="59"/>
      <point x="311" y="59" type="curve" smooth="yes"/>
      <point x="190" y="59"/>
      <point x="132" y="130"/>
      <point x="132" y="266" type="curve" smooth="yes"/>
      <point x="132" y="468"/>
      <point x="214" y="582"/>
    </contour>
  </outline>
</glyph>
<glyph name="oe" format="2">
  <advance width="654"/>
  <unicode hex="0153"/>
  <anchor x="590" y="0" name="bottom"/>
  <anchor x="742" y="10" name="ogonek"/>
  <anchor x="462" y="459" name="top"/>
  <outline>
    <contour>
      <point x="264" y="467" type="line"/>
      <point x="122" y="459"/>
      <point x="35" y="332"/>
      <point x="35" y="153" type="curve" smooth="yes"/>
      <point x="35" y="53"/>
      <point x="75" y="7"/>
      <point x="153" y="-8" type="curve"/>
      <point x="162" y="-9" type="line"/>
      <point x="304" y="3"/>
      <point x="381" y="128"/>
      <point x="381" y="313" type="curve" smooth="yes"/>
      <point x="381" y="407"/>
      <point x="348" y="454"/>
      <point x="273" y="467" type="curve"/>
    </contour>
    <contour>
      <point x="249" y="401" type="curve" smooth="yes"/>
      <point x="290" y="401"/>
      <point x="308" y="374"/>
      <point x="308" y="307" type="curve" smooth="yes"/>
      <point x="308" y="156"/>
      <point x="263" y="56"/>
      <point x="173" y="56" type="curve" smooth="yes"/>
      <point x="130" y="56"/>
      <point x="113" y="85"/>
      <point x="113" y="153" type="curve" smooth="yes"/>
      <point x="113" y="303"/>
      <point x="158" y="401"/>
    </contour>
    <contour>
      <point x="367" y="231" type="curve"/>
      <point x="367" y="169" type="line"/>
      <point x="551" y="228"/>
      <point x="630" y="295"/>
      <point x="630" y="374" type="curve" smooth="yes"/>
      <point x="630" y="428"/>
      <point x="597" y="458"/>
      <point x="542" y="467" type="curve"/>
      <point x="532" y="468" type="line"/>
      <point x="394" y="462"/>
      <point x="310" y="340"/>
      <point x="310" y="163" type="curve"/>
      <point x="310" y="63"/>
      <point x="335" y="3"/>
      <point x="433" y="-7" type="curve"/>
      <point x="445" y="-7" type="line"/>
      <point x="505" y="8"/>
      <point x="557" y="50"/>
      <point x="604" y="116" type="curve"/>
      <point x="576" y="155" type="line"/>
      <point x="563" y="156" type="line"/>
      <point x="538" y="104"/>
      <point x="489" y="64"/>
      <point x="444" y="64" type="curve" smooth="yes"/>
      <point x="403" y="64"/>
      <point x="383" y="99"/>
      <point x="383" y="182" type="curve" smooth="yes"/>
      <point x="383" y="316"/>
      <point x="435" y="407"/>
      <point x="509" y="407" type="curve" smooth="yes"/>
      <point x="541" y="407"/>
      <point x="554" y="393"/>
      <point x="554" y="368" type="curve" smooth="yes"/>
      <point x="554" y="312"/>
      <point x="490" y="265"/>
    </contour>
  </outline>
</glyph>
<glyph name="Tcedilla" format="2">
  <advance width="470"/>
  <unicode hex="0162"/>
  <anchor x="208" y="0" name="bottom"/>
  <anchor x="253" y="321" name="center"/>
  <anchor x="287" y="641" name="top"/>
  <outline>
    <contour>
      <point x="330" y="631" type="line"/>
      <point x="243" y="631" type="line"/>
      <point x="195" y="193" type="line"/>
      <point x="165" y="0" type="line"/>
      <point x="251" y="0" type="line"/>
      <point x="271" y="200" type="line"/>
    </contour>
    <contour>
      <point x="497" y="641" type="line"/>
      <point x="80" y="641" type="line"/>
      <point x="64" y="575" type="line"/>
      <point x="69" y="567" type="line"/>
      <point x="180" y="573" type="line"/>
      <point x="380" y="573" type="line"/>
      <point x="486" y="567" type="line"/>
      <point x="501" y="633" type="line"/>
    </contour>
    <contour>
      <point x="232" y="0" type="line"/>
      <point x="183" y="0" type="line"/>
      <point x="163" y="-72" type="line"/>
      <point x="211" y="-101" type="line" smooth="yes"/>
      <point x="223" y="-107"/>
      <point x="232" y="-113"/>
      <point x="232" y="-125" type="curve" smooth="yes"/>
      <point x="232" y="-142"/>
      <point x="219" y="-151"/>
      <point x="201" y="-151" type="curve" smooth="yes"/>
      <point x="177" y="-151"/>
      <point x="161" y="-139"/>
      <point x="144" y="-120" type="curve"/>
      <point x="139" y="-122" type="line"/>
      <point x="131" y="-164" type="line"/>
      <point x="147" y="-180"/>
      <point x="171" y="-195"/>
      <point x="205" y="-195" type="curve" smooth="yes"/>
      <point x="254" y="-195"/>
      <point x="288" y="-167"/>
      <point x="288" y="-127" type="curve" smooth="yes"/>
      <point x="288" y="-105"/>
      <point x="278" y="-87"/>
      <point x="249" y="-71" type="curve" smooth="yes"/>
      <point x="215" y="-51" type="line"/>
    </contour>
  </outline>
</glyph>
<glyph name="Tbar" format="2">
  <advance width="470"/>
  <unicode hex="0166"/>
  <anchor x="208" y="0" name="bottom"/>
  <anchor x="253" y="321" name="center"/>
  <anchor x="287" y="641" name="top"/>
  <outline>
    <contour>
      <point x="385" y="345" type="line"/>
      <point x="114" y="345" type="line"/>
      <point x="110" y="298" type="line"/>
      <point x="116" y="292" type="line"/>
      <point x="388" y="292" type="line"/>
      <point x="392" y="339" type="line"/>
    </contour>
    <contour>
      <point x="330" y="631" type="line"/>
      <point x="243" y="631" type="line"/>
      <point x="195" y="193" type="line"/>
      <point x="165" y="0" type="line"/>
      <point x="251" y="0" type="line"/>
      <point x="271" y="200" type="line"/>
    </contour>
    <contour>
      <point x="497" y="641" type="line"/>
      <point x="80" y="641" type="line"/>
      <point x="64" y="575" type="line"/>
      <point x="69" y="567" type="line"/>
      <point x="180" y="573" type="line"/>
      <point x="380" y="573" type="line"/>
      <point x="486" y="567" type="line"/>
      <point x="501" y="633" type="line"/>
    </contour>
  </outline>
</glyph>
<glyph name="tbar" format="2">
  <advance width="333"/>
  <unicode hex="0167"/>
  <outline>
    <contour>
      <point x="167" y="-7" type="curve"/>
      <point x="215" y="6"/>
      <point x="249" y="39"/>
      <point x="295" y="116" type="curve"/>
      <point x="271" y="146" type="line"/>
      <point x="262" y="146" type="line"/>
      <point x="227" y="93"/>
      <point x="200" y="71"/>
      <point x="178" y="71" type="curve" smooth="yes"/>
      <point x="161" y="71"/>
      <point x="153" y="83"/>
      <point x="153" y="100" type="curve"/>
      <point x="155" y="116" type="line"/>
      <point x="231" y="587" type="line"/>
      <point x="225" y="593" type="line"/>
      <point x="147" y="557" type="line"/>
      <point x="122" y="359" type="line"/>
      <point x="80" y="104" type="line"/>
      <point x="78" y="80" type="line"/>
      <point x="77" y="25"/>
      <point x="110" y="-7"/>
    </contour>
    <contour>
      <point x="34" y="238" type="line"/>
      <point x="292" y="238" type="line"/>
      <point x="296" y="285" type="line"/>
      <point x="289" y="291" type="line"/>
      <point x="32" y="291" type="line"/>
      <point x="28" y="244" type="line"/>
    </contour>
    <contour>
      <point x="60" y="394" type="line"/>
      <point x="328" y="394" type="line"/>
      <point x="334" y="442" type="line"/>
      <point x="327" y="450" type="line"/>
      <point x="60" y="450" type="line"/>
      <point x="54" y="400" type="line"/>
    </contour>
  </outline>
</glyph>
<glyph name="Schwa" format="2">
  <advance width="595"/>
  <unicode hex="018F"/>
  <outline>
    <contour>
      <point x="329" y="647" type="curve" smooth="yes"/>
      <point x="261" y="647"/>
      <point x="195" y="630"/>
      <point x="130" y="598" type="curve"/>
      <point x="105" y="517" type="line"/>
      <point x="115" y="509" type="line"/>
      <point x="173" y="548"/>
      <point x="242" y="570"/>
      <point x="307" y="570" type="curve" smooth="yes"/>
      <point x="425" y="570"/>
      <point x="487" y="494"/>
      <point x="487" y="364" type="curve" smooth="yes"/>
      <point x="487" y="182"/>
      <point x="394" y="61"/>
      <point x="261" y="61" type="curve" smooth="yes"/>
      <point x="169" y="61"/>
      <point x="113" y="118"/>
      <point x="125" y="217" type="curve"/>
      <point x="130" y="239" type="line"/>
      <point x="491" y="242" type="line"/>
      <point x="501" y="310" type="line"/>
      <point x="66" y="308" type="line"/>
      <point x="52" y="295" type="line"/>
      <point x="43" y="263"/>
      <point x="35" y="236"/>
      <point x="35" y="198" type="curve" smooth="yes"/>
      <point x="35" y="69"/>
      <point x="121" y="-7"/>
      <point x="252" y="-7" type="curve" smooth="yes"/>
      <point x="444" y="-7"/>
      <point x="576" y="146"/>
      <point x="576" y="375" type="curve" smooth="yes"/>
      <point x="576" y="543"/>
      <point x="487" y="647"/>
    </contour>
  </outline>
</glyph>
<glyph name="florin" format="2">
  <advance width="284"/>
  <unicode hex="0192"/>
  <outline>
    <contour>
      <point x="304" y="616" type="curve" smooth="yes"/>
      <point x="203" y="616"/>
      <point x="138" y="561"/>
      <point x="127" y="461" type="curve" smooth="yes"/>
      <point x="116" y="375" type="line"/>
      <point x="45" y="375" type="line"/>
      <point x="41" y="335" type="line"/>
      <point x="45" y="329" type="line"/>
      <point x="111" y="329" type="line"/>
      <point x="93" y="179" type="line"/>
      <point x="77" y="46" type="line" smooth="yes"/>
      <point x="69" y="-25"/>
      <point x="48" y="-60"/>
      <point x="-10" y="-110" type="curve"/>
      <point x="-11" y="-117" type="line"/>
      <point x="23" y="-150" type="line"/>
      <point x="106" y="-89"/>
      <point x="134" y="-43"/>
      <point x="144" y="48" type="curve" smooth="yes"/>
      <point x="161" y="185" type="line"/>
      <point x="179" y="329" type="line"/>
      <point x="294" y="329" type="line"/>
      <point x="299" y="369" type="line"/>
      <point x="295" y="375" type="line"/>
      <point x="185" y="375" type="line"/>
      <point x="198" y="471" type="line" smooth="yes"/>
      <point x="205" y="528"/>
      <point x="233" y="562"/>
      <point x="295" y="562" type="curve" smooth="yes"/>
      <point x="311" y="562"/>
      <point x="334" y="559"/>
      <point x="358" y="549" type="curve"/>
      <point x="365" y="552" type="line"/>
      <point x="377" y="607" type="line"/>
      <point x="349" y="613"/>
      <point x="327" y="616"/>
    </contour>
  </outline>
</glyph>
<glyph name="Ohorn" format="2">
  <advance width="624"/>
  <unicode hex="01A0"/>
  <anchor x="361" y="641" name="top"/>
  <outline>
    <contour>
      <point x="279" y="-8" type="curve" smooth="yes"/>
      <point x="477" y="-8"/>
      <point x="599" y="148"/>
      <point x="599" y="382" type="curve" smooth="yes"/>
      <point x="599" y="482"/>
      <point x="577" y="544"/>
      <point x="528" y="592" type="curve"/>
      <point x="514" y="568" type="line"/>
      <point x="594" y="566"/>
      <point x="651" y="612"/>
      <point x="651" y="677" type="curve" smooth="yes"/>
      <point x="651" y="717"/>
      <point x="629" y="753"/>
      <point x="603" y="753" type="curve" smooth="yes"/>
      <point x="589" y="753"/>
      <point x="574" y="746"/>
      <point x="561" y="737" type="curve"/>
      <point x="558" y="728" type="line"/>
      <point x="574" y="710"/>
      <point x="583" y="688"/>
      <point x="583" y="666" type="curve" smooth="yes"/>
      <point x="583" y="634"/>
      <point x="561" y="615"/>
      <point x="528" y="615" type="curve" smooth="yes"/>
      <point x="483" y="615"/>
      <point x="455" y="648"/>
      <point x="364" y="648" type="curve" smooth="yes"/>
      <point x="173" y="648"/>
      <point x="45" y="502"/>
      <point x="45" y="269" type="curve" smooth="yes"/>
      <point x="45" y="86"/>
      <point x="127" y="-8"/>
    </contour>
    <contour>
      <point x="290" y="59" type="curve" smooth="yes"/>
      <point x="180" y="59"/>
      <point x="134" y="127"/>
      <point x="134" y="268" type="curve" smooth="yes"/>
      <point x="134" y="476"/>
      <point x="221" y="578"/>
      <point x="354" y="578" type="curve" smooth="yes"/>
      <point x="465" y="578"/>
      <point x="510" y="510"/>
      <point x="510" y="371" type="curve" smooth="yes"/>
      <point x="510" y="161"/>
      <point x="421" y="59"/>
    </contour>
  </outline>
</glyph>
<glyph name="ohorn" format="2">
  <advance width="459"/>
  <unicode hex="01A1"/>
  <anchor x="187" y="0" name="bottom"/>
  <anchor x="240" y="459" name="top"/>
  <outline>
    <contour>
      <point x="433" y="595" type="curve" smooth="yes"/>
      <point x="420" y="595"/>
      <point x="406" y="589"/>
      <point x="391" y="576" type="curve"/>
      <point x="388" y="567" type="line"/>
      <point x="409" y="546"/>
      <point x="420" y="525"/>
      <point x="420" y="503" type="curve" smooth="yes"/>
      <point x="420" y="471"/>
      <point x="395" y="448"/>
      <point x="359" y="448" type="curve" smooth="yes"/>
      <point x="326" y="448"/>
      <point x="313" y="463"/>
      <point x="271" y="467" type="curve"/>
      <point x="355" y="411" type="line"/>
      <point x="424" y="400"/>
      <point x="486" y="450"/>
      <point x="486" y="514" type="curve" smooth="yes"/>
      <point x="486" y="555"/>
      <point x="460" y="595"/>
    </contour>
    <contour>
      <point x="262" y="467" type="line"/>
      <point x="120" y="459"/>
      <point x="34" y="332"/>
      <point x="34" y="152" type="curve" smooth="yes"/>
      <point x="34" y="52"/>
      <point x="74" y="7"/>
      <point x="151" y="-8" type="curve"/>
      <point x="160" y="-9" type="line"/>
      <point x="302" y="3"/>
      <point x="385" y="127"/>
      <point x="385" y="314" type="curve" smooth="yes"/>
      <point x="385" y="362"/>
      <point x="374" y="398"/>
      <point x="353" y="423" type="curve"/>
      <point x="271" y="467" type="line"/>
    </contour>
    <contour>
      <point x="246" y="401" type="curve" smooth="yes"/>
      <point x="287" y="401"/>
      <point x="305" y="374"/>
      <point x="305" y="308" type="curve" smooth="yes"/>
      <point x="305" y="156"/>
      <point x="261" y="56"/>
      <point x="171" y="56" type="curve" smooth="yes"/>
      <point x="129" y="56"/>
      <point x="112" y="85"/>
      <point x="112" y="152" type="curve" smooth="yes"/>
      <point x="112" y="303"/>
      <point x="156" y="401"/>
    </contour>
  </outline>
</glyph>
<glyph name="Uhorn" format="2">
  <advance width="605"/>
  <unicode hex="01AF"/>
  <anchor x="275" y="0" name="bottom"/>
  <anchor x="342" y="641" name="top"/>
  <outline>
    <contour>
      <point x="603" y="777" type="curve" smooth="yes"/>
      <point x="591" y="777"/>
      <point x="577" y="770"/>
      <point x="563" y="760" type="curve"/>
      <point x="560" y="752" type="line"/>
      <point x="581" y="731"/>
      <point x="590" y="712"/>
      <point x="590" y="692" type="curve" smooth="yes"/>
      <point x="590" y="659"/>
      <point x="569" y="641"/>
      <point x="528" y="641" type="curve"/>
      <point x="538" y="595" type="line"/>
      <point x="609" y="600"/>
      <point x="656" y="642"/>
      <point x="656" y="698" type="curve" smooth="yes"/>
      <point x="656" y="743"/>
      <point x="627" y="777"/>
    </contour>
    <contour>
      <point x="582" y="641" type="line"/>
      <point x="497" y="641" type="line"/>
      <point x="451" y="235" type="line" smooth="yes"/>
      <point x="438" y="123"/>
      <point x="379" y="68"/>
      <point x="279" y="68" type="curve" smooth="yes"/>
      <point x="193" y="68"/>
      <point x="149" y="112"/>
      <point x="149" y="201" type="curve" smooth="yes"/>
      <point x="149" y="216"/>
      <point x="150" y="230"/>
      <point x="152" y="246" type="curve" smooth="yes"/>
      <point x="205" y="641" type="line"/>
      <point x="121" y="641" type="line"/>
      <point x="83" y="321" type="line"/>
      <point x="71" y="235" type="line" smooth="yes"/>
      <point x="68" y="216"/>
      <point x="67" y="198"/>
      <point x="67" y="181" type="curve" smooth="yes"/>
      <point x="67" y="60"/>
      <point x="146" y="-7"/>
      <point x="273" y="-7" type="curve" smooth="yes"/>
      <point x="425" y="-7"/>
      <point x="513" y="85"/>
      <point x="530" y="244" type="curve"/>
      <point x="539" y="315" type="line"/>
    </contour>
  </outline>
</glyph>
<glyph name="uhorn" format="2">
  <advance width="484"/>
  <unicode hex="01B0"/>
  <anchor x="269" y="459" name="top"/>
  <outline>
    <contour>
      <point x="183" y="466" type="line"/>
      <point x="100" y="459" type="line"/>
      <point x="93" y="353" type="line"/>
      <point x="52" y="97" type="line"/>
      <point x="51" y="84" type="line"/>
      <point x="50" y="36"/>
      <point x="87" y="7"/>
      <point x="133" y="-3" type="curve"/>
      <point x="144" y="-3" type="line"/>
      <point x="202" y="43"/>
      <point x="249" y="106"/>
      <point x="312" y="214" type="curve"/>
      <point x="328" y="214" type="line"/>
      <point x="349" y="390" type="line"/>
      <point x="259" y="186"/>
      <point x="187" y="90"/>
      <point x="148" y="90" type="curve" smooth="yes"/>
      <point x="137" y="90"/>
      <point x="130" y="98"/>
      <point x="131" y="123" type="curve"/>
      <point x="132" y="136" type="line"/>
    </contour>
    <contour>
      <point x="428" y="464" type="line"/>
      <point x="345" y="457" type="line"/>
      <point x="341" y="358" type="line"/>
      <point x="289" y="-4" type="line"/>
      <point x="374" y="3" type="line"/>
      <point x="378" y="110" type="line"/>
    </contour>
    <contour>
      <point x="466" y="613" type="curve" smooth="yes"/>
      <point x="452" y="613"/>
      <point x="437" y="605"/>
      <point x="421" y="593" type="curve"/>
      <point x="419" y="584" type="line"/>
      <point x="440" y="563"/>
      <point x="450" y="540"/>
      <point x="450" y="520" type="curve" smooth="yes"/>
      <point x="450" y="489"/>
      <point x="428" y="470"/>
      <point x="378" y="463" type="curve" smooth="yes"/>
      <point x="345" y="457" type="line"/>
      <point x="401" y="421" type="line"/>
      <point x="475" y="441"/>
      <point x="520" y="480"/>
      <point x="520" y="534" type="curve" smooth="yes"/>
      <point x="520" y="579"/>
      <point x="490" y="613"/>
    </contour>
  </outline>
</glyph>
<glyph name="Ezh" format="2">
  <advance width="507"/>
  <unicode hex="01B7"/>
  <anchor x="214" y="0" name="bottom"/>
  <anchor x="288" y="641" name="top"/>
  <outline>
    <contour>
      <point x="189" y="-9" type="curve" smooth="yes"/>
      <point x="347" y="-9"/>
      <point x="456" y="77"/>
      <point x="456" y="203" type="curve" smooth="yes"/>
      <point x="456" y="300"/>
      <point x="376" y="355"/>
      <point x="235" y="355" type="curve"/>
      <point x="184" y="345" type="line"/>
      <point x="179" y="304" type="line"/>
      <point x="184" y="297" type="line"/>
      <point x="229" y="297" type="line" smooth="yes"/>
      <point x="319" y="297"/>
      <point x="370" y="261"/>
      <point x="370" y="199" type="curve" smooth="yes"/>
      <point x="370" y="121"/>
      <point x="296" y="63"/>
      <point x="197" y="63" type="curve" smooth="yes"/>
      <point x="139" y="63"/>
      <point x="83" y="81"/>
      <point x="48" y="111" type="curve"/>
      <point x="39" y="108" type="line"/>
      <point x="15" y="41" type="line"/>
      <point x="53" y="10"/>
      <point x="120" y="-9"/>
    </contour>
    <contour>
      <point x="184" y="345" type="line"/>
      <point x="273" y="345" type="line"/>
      <point x="487" y="578" type="line"/>
      <point x="495" y="642" type="line"/>
      <point x="445" y="641" type="line"/>
      <point x="195" y="641" type="line"/>
      <point x="100" y="642" type="line"/>
      <point x="83" y="569" type="line"/>
      <point x="87" y="563" type="line"/>
      <point x="188" y="571" type="line"/>
      <point x="427" y="571" type="line"/>
      <point x="420" y="601" type="line"/>
    </contour>
  </outline>
</glyph>
<glyph name="Gstroke" format="2">
  <advance width="598"/>
  <unicode hex="01E4"/>
  <anchor x="267" y="0" name="bottom"/>
  <anchor x="363" y="641" name="top"/>
  <outline>
    <contour>
      <point x="284" y="-7" type="curve" smooth="yes"/>
      <point x="343" y="-7"/>
      <point x="405" y="4"/>
      <point x="490" y="31" type="curve"/>
      <point x="505" y="172" type="line"/>
      <point x="520" y="277" type="line"/>
      <point x="438" y="271" type="line"/>
      <point x="426" y="160" type="line"/>
      <point x="415" y="89" type="line"/>
      <point x="360" y="71"/>
      <point x="331" y="66"/>
      <point x="298" y="66" type="curve" smooth="yes"/>
      <point x="187" y="66"/>
      <point x="133" y="125"/>
      <point x="133" y="256" type="curve" smooth="yes"/>
      <point x="133" y="466"/>
      <point x="212" y="575"/>
      <point x="366" y="575" type="curve" smooth="yes"/>
      <point x="423" y="575"/>
      <point x="468" y="559"/>
      <point x="524" y="519" type="curve"/>
      <point x="535" y="521" type="line"/>
      <point x="563" y="602" type="line"/>
      <point x="507" y="634"/>
      <point x="452" y="647"/>
      <point x="389" y="647" type="curve" smooth="yes"/>
      <point x="173" y="647"/>
      <point x="43" y="503"/>
      <point x="43" y="249" type="curve" smooth="yes"/>
      <point x="43" y="88"/>
      <point x="120" y="-7"/>
    </contour>
    <contour>
      <point x="302" y="152" type="line"/>
      <point x="554" y="152" type="line"/>
      <point x="564" y="206" type="line"/>
      <point x="561" y="212" type="line"/>
      <point x="309" y="212" type="line"/>
      <point x="299" y="158" type="line"/>
    </contour>
  </outline>
</glyph>
<glyph name="gstroke" format="2">
  <advance width="510"/>
  <unicode hex="01E5"/>
  <anchor x="279" y="449" name="top"/>
  <outline>
    <contour>
      <point x="449" y="467" type="line"/>
      <point x="376" y="430" type="line"/>
      <point x="372" y="357" type="line"/>
      <point x="324" y="16" type="line" smooth="yes"/>
      <point x="310" y="-83"/>
      <point x="255" y="-134"/>
      <point x="186" y="-134" type="curve" smooth="yes"/>
      <point x="129" y="-134"/>
      <point x="94" y="-98"/>
      <point x="94" y="-64" type="curve" smooth="yes"/>
      <point x="94" y="-56"/>
      <point x="96" y="-52"/>
      <point x="104" y="-46" type="curve" smooth="yes"/>
      <point x="198" y="23" type="line"/>
      <point x="148" y="61" type="line"/>
      <point x="146" y="38" type="line"/>
      <point x="7" y="-43" type="line"/>
      <point x="3" y="-52" type="line"/>
      <point x="19" y="-147"/>
      <point x="80" y="-198"/>
      <point x="167" y="-198" type="curve" smooth="yes"/>
      <point x="281" y="-198"/>
      <point x="381" y="-110"/>
      <point x="402" y="39" type="curve"/>
      <point x="409" y="109" type="line"/>
      <point x="460" y="461" type="line"/>
    </contour>
    <contour>
      <point x="332" y="466" type="line"/>
      <point x="327" y="466" type="line"/>
      <point x="180" y="440"/>
      <point x="105" y="305"/>
      <point x="105" y="167" type="curve" smooth="yes"/>
      <point x="105" y="88"/>
      <point x="130" y="47"/>
      <point x="186" y="23" type="curve"/>
      <point x="198" y="23" type="line"/>
      <point x="250" y="64"/>
      <point x="298" y="124"/>
      <point x="337" y="196" type="curve"/>
      <point x="361" y="196" type="line"/>
      <point x="379" y="365" type="line"/>
      <point x="304" y="196"/>
      <point x="228" y="101"/>
      <point x="208" y="101" type="curve" smooth="yes"/>
      <point x="199" y="101"/>
      <point x="181" y="125"/>
      <point x="181" y="197" type="curve" smooth="yes"/>
      <point x="181" y="308"/>
      <point x="224" y="398"/>
      <point x="310" y="398" type="curve"/>
      <point x="398" y="361" type="line"/>
      <point x="435" y="424" type="line"/>
    </contour>
    <contour>
      <point x="-31" y="-55" type="line"/>
      <point x="449" y="-55" type="line"/>
      <point x="454" y="-16" type="line"/>
      <point x="451" y="-12" type="line"/>
      <point x="-29" y="-12" type="line"/>
      <point x="-35" y="-51" type="line"/>
    </contour>
  </outline>
</glyph>
<glyph name="Aringacute" format="2">
  <advance width="556"/>
  <unicode hex="01FA"/>
  <anchor x="320" y="529" name="_top"/>
  <anchor x="350" y="770" name="top"/>
  <outline>
    <contour>
      <point x="382" y="639" type="line"/>
      <point x="294" y="639" type="line"/>
      <point x="-13" y="0" type="line" smooth="yes"/>
      <point x="72" y="0" type="line"/>
      <point x="96" y="69" type="line"/>
      <point x="321" y="548" type="line"/>
      <point x="328" y="548" type="line"/>
      <point x="415" y="65" type="line"/>
      <point x="422" y="0" type="line"/>
      <point x="508" y="0" type="line"/>
    </contour>
    <contour>
      <point x="429" y="242" type="line"/>
      <point x="278" y="239" type="line"/>
      <point x="128" y="242" type="line"/>
      <point x="119" y="168" type="line"/>
      <point x="263" y="171" type="line"/>
      <point x="420" y="168" type="line"/>
    </contour>
    <contour>
      <point x="292" y="294" type="move"/>
    </contour>
    <contour>
      <point x="342" y="770" type="curve" smooth="yes"/>
      <point x="288" y="770"/>
      <point x="256" y="737"/>
      <point x="256" y="686" type="curve" smooth="yes"/>
      <point x="256" y="632"/>
      <point x="291" y="602"/>
      <point x="339" y="602" type="curve" smooth="yes"/>
      <point x="388" y="602"/>
      <point x="426" y="633"/>
      <point x="426" y="688" type="curve" smooth="yes"/>
      <point x="426" y="735"/>
      <point x="397" y="770"/>
    </contour>
    <contour>
      <point x="340" y="729" type="curve" smooth="yes"/>
      <point x="371" y="729"/>
      <point x="386" y="711"/>
      <point x="386" y="685" type="curve" smooth="yes"/>
      <point x="386" y="656"/>
      <point x="367" y="642"/>
      <point x="341" y="642" type="curve" smooth="yes"/>
      <point x="314" y="642"/>
      <point x="296" y="657"/>
      <point x="296" y="687" type="curve" smooth="yes"/>
      <point x="296" y="713"/>
      <point x="311" y="729"/>
    </contour>
    <contour>
      <point x="457.987" y="910.984" type="line"/>
      <point x="385.621" y="879.573"/>
      <point x="320.185" y="855.371"/>
      <point x="252.765" y="831.413" type="curve"/>
      <point x="263.02" y="791.869" type="line"/>
      <point x="272.457" y="786.68" type="line"/>
      <point x="340.261" y="805.554"/>
      <point x="405.958" y="823.679"/>
      <point x="478.341" y="847.028" type="curve"/>
      <point x="482.416" y="855.595" type="line"/>
      <point x="466.676" y="907.902" type="line"/>
    </contour>
  </outline>
</glyph>
<glyph name="jdotless" format="2">
  <advance width="236"/>
  <unicode hex="0237"/>
  <anchor x="149" y="459" name="top"/>
  <outline>
    <contour>
      <point x="189" y="462" type="line"/>
      <point x="104" y="450" type="line"/>
      <point x="36" y="450" type="line"/>
      <point x="29" y="400" type="line"/>
      <point x="34" y="394" type="line"/>
      <point x="108" y="394" type="line"/>
      <point x="106" y="357" type="line"/>
      <point x="58" y="15" type="line"/>
      <point x="48" y="-65"/>
      <point x="20" y="-105"/>
      <point x="-43" y="-146" type="curve"/>
      <point x="-44" y="-156" type="line"/>
      <point x="-16" y="-194" type="line"/>
      <point x="81" y="-141"/>
      <point x="120" y="-87"/>
      <point x="134" y="18" type="curve"/>
      <point x="143" y="111" type="line"/>
      <point x="193" y="459" type="line"/>
    </contour>
  </outline>
</glyph>
<glyph name="ezh" format="2">
  <advance width="401"/>
  <unicode hex="0292"/>
  <anchor x="172" y="0" name="bottom"/>
  <anchor x="229" y="459" name="top"/>
  <outline>
    <contour>
      <point x="66" y="-192" type="curve" smooth="yes"/>
      <point x="226" y="-192"/>
      <point x="338" y="-101"/>
      <point x="338" y="23" type="curve" smooth="yes"/>
      <point x="338" y="99"/>
      <point x="288" y="143"/>
      <point x="186" y="166" type="curve" smooth="yes"/>
      <point x="137" y="177" type="line"/>
      <point x="82" y="175" type="line"/>
      <point x="73" y="133" type="line"/>
      <point x="78" y="125" type="line"/>
      <point x="142" y="112" type="line" smooth="yes"/>
      <point x="216" y="97"/>
      <point x="256" y="64"/>
      <point x="256" y="10" type="curve" smooth="yes"/>
      <point x="256" y="-67"/>
      <point x="189" y="-124"/>
      <point x="89" y="-124" type="curve" smooth="yes"/>
      <point x="48" y="-124"/>
      <point x="11" y="-114"/>
      <point x="-16" y="-99" type="curve"/>
      <point x="-23" y="-105" type="line"/>
      <point x="-29" y="-183" type="line"/>
      <point x="-1" y="-189"/>
      <point x="37" y="-192"/>
    </contour>
    <contour>
      <point x="147" y="161" type="line"/>
      <point x="403" y="450" type="line"/>
      <point x="378" y="474" type="line"/>
      <point x="353" y="459" type="line"/>
      <point x="117" y="461" type="line"/>
      <point x="52" y="465" type="line"/>
      <point x="45" y="460" type="line"/>
      <point x="30" y="386" type="line"/>
      <point x="36" y="379" type="line"/>
      <point x="120" y="392" type="line"/>
      <point x="273" y="393" type="line"/>
      <point x="82" y="175" type="line"/>
    </contour>
  </outline>
</glyph>
<glyph name="primemod" format="2">
  <advance width="171"/>
  <unicode hex="02B9"/>
  <outline>
    <contour>
      <point x="173" y="639" type="line"/>
      <point x="107" y="634" type="line"/>
      <point x="80" y="446" type="line"/>
      <point x="86" y="439" type="line"/>
      <point x="130" y="445" type="line"/>
      <point x="178" y="632" type="line"/>
    </contour>
  </outline>
</glyph>
<glyph name="commaturnedmod" format="2">
  <advance width="174"/>
  <unicode hex="02BB"/>
  <outline>
    <contour>
      <point x="122" y="430" type="curve"/>
      <point x="141" y="441"/>
      <point x="159" y="453"/>
      <point x="173" y="466" type="curve"/>
      <point x="173" y="474" type="line"/>
      <point x="145" y="486"/>
      <point x="134" y="505"/>
      <point x="134" y="531" type="curve" smooth="yes"/>
      <point x="134" y="556"/>
      <point x="147" y="584"/>
      <point x="176" y="615" type="curve"/>
      <point x="175" y="622" type="line"/>
      <point x="143" y="644" type="line"/>
      <point x="92" y="594"/>
      <point x="68" y="549"/>
      <point x="68" y="507" type="curve" smooth="yes"/>
      <point x="68" y="470"/>
      <point x="85" y="445"/>
    </contour>
  </outline>
</glyph>
<glyph name="apostrophemod" format="2">
  <advance width="174"/>
  <unicode hex="02BC"/>
  <outline>
    <contour>
      <point x="130" y="643" type="curve"/>
      <point x="111" y="632"/>
      <point x="93" y="620"/>
      <point x="79" y="607" type="curve"/>
      <point x="79" y="599" type="line"/>
      <point x="107" y="587"/>
      <point x="118" y="568"/>
      <point x="118" y="542" type="curve" smooth="yes"/>
      <point x="118" y="517"/>
      <point x="105" y="489"/>
      <point x="76" y="458" type="curve"/>
      <point x="77" y="451" type="line"/>
      <point x="109" y="429" type="line"/>
      <point x="160" y="479"/>
      <point x="184" y="524"/>
      <point x="184" y="566" type="curve" smooth="yes"/>
      <point x="184" y="603"/>
      <point x="167" y="628"/>
    </contour>
  </outline>
</glyph>
<glyph name="ringhalfright" format="2">
  <advance width="313"/>
  <unicode hex="02BE"/>
  <outline>
    <contour>
      <point x="134" y="455" type="line"/>
      <point x="202" y="455"/>
      <point x="244" y="495"/>
      <point x="244" y="559" type="curve" smooth="yes"/>
      <point x="244" y="608"/>
      <point x="214" y="635"/>
      <point x="156" y="635" type="curve"/>
      <point x="151" y="589" type="line"/>
      <point x="183" y="589"/>
      <point x="199" y="576"/>
      <point x="199" y="551" type="curve" smooth="yes"/>
      <point x="199" y="517"/>
      <point x="178" y="498"/>
      <point x="139" y="500" type="curve"/>
    </contour>
  </outline>
</glyph>
<glyph name="ringhalfleft" format="2">
  <advance width="235"/>
  <unicode hex="02BF"/>
  <outline>
    <contour>
      <point x="216" y="635" type="line"/>
      <point x="149" y="635"/>
      <point x="106" y="594"/>
      <point x="106" y="530" type="curve" smooth="yes"/>
      <point x="106" y="481"/>
      <point x="136" y="455"/>
      <point x="194" y="455" type="curve"/>
      <point x="199" y="500" type="line"/>
      <point x="167" y="500"/>
      <point x="151" y="514"/>
      <point x="151" y="539" type="curve" smooth="yes"/>
      <point x="151" y="573"/>
      <point x="173" y="592"/>
      <point x="211" y="590" type="curve"/>
    </contour>
  </outline>
</glyph>
<glyph name="tilde" format="2">
  <advance width="383"/>
  <unicode hex="02DC"/>
  <anchor x="221" y="459" name="top"/>
  <outline>
    <contour>
      <point x="372" y="671" type="line"/>
      <point x="364" y="671" type="line"/>
      <point x="338" y="645"/>
      <point x="322" y="624"/>
      <point x="306" y="624" type="curve"/>
      <point x="281" y="624"/>
      <point x="194" y="655"/>
      <point x="151" y="660" type="curve"/>
      <point x="141" y="657" type="line"/>
      <point x="79" y="586" type="line"/>
      <point x="79" y="578" type="line"/>
      <point x="105" y="551" type="line"/>
      <point x="114" y="551" type="line"/>
      <point x="139" y="576"/>
      <point x="155" y="598"/>
      <point x="171" y="598" type="curve"/>
      <point x="197" y="598"/>
      <point x="284" y="566"/>
      <point x="326" y="561" type="curve"/>
      <point x="336" y="565" type="line"/>
      <point x="398" y="636" type="line"/>
      <point x="398" y="644" type="line"/>
    </contour>
  </outline>
</glyph>
<glyph name="gravecomb" format="2">
  <unicode hex="0300"/>
  <anchor x="266" y="459" name="_top"/>
  <anchor x="258" y="700" name="top"/>
  <outline>
    <contour>
      <point x="184" y="700" type="curve"/>
      <point x="175" y="699" type="line"/>
      <point x="143" y="654" type="line"/>
      <point x="145" y="645" type="line"/>
      <point x="205" y="599"/>
      <point x="260" y="559"/>
      <point x="318" y="519" type="curve"/>
      <point x="327" y="520" type="line"/>
      <point x="350" y="554" type="line"/>
      <point x="294" y="600"/>
      <point x="241" y="645"/>
    </contour>
  </outline>
</glyph>
<glyph name="acutecomb" format="2">
  <unicode hex="0301"/>
  <anchor x="216" y="459" name="_top"/>
  <anchor x="247" y="700" name="top"/>
  <outline>
    <contour>
      <point x="298" y="700" type="line"/>
      <point x="241" y="645"/>
      <point x="188" y="600"/>
      <point x="132" y="554" type="curve"/>
      <point x="155" y="520" type="line"/>
      <point x="164" y="519" type="line"/>
      <point x="222" y="559"/>
      <point x="277" y="599"/>
      <point x="337" y="645" type="curve"/>
      <point x="339" y="654" type="line"/>
      <point x="307" y="699" type="line"/>
    </contour>
  </outline>
</glyph>
<glyph name="tildecomb" format="2">
  <unicode hex="0303"/>
  <anchor x="220" y="459" name="_top"/>
  <anchor x="246" y="671" name="top"/>
  <outline>
    <contour>
      <point x="372" y="671" type="line"/>
      <point x="364" y="671" type="line"/>
      <point x="338" y="645"/>
      <point x="323" y="624"/>
      <point x="306" y="624" type="curve"/>
      <point x="281" y="624"/>
      <point x="195" y="656"/>
      <point x="152" y="661" type="curve"/>
      <point x="143" y="657" type="line"/>
      <point x="79" y="586" type="line"/>
      <point x="79" y="578" type="line"/>
      <point x="106" y="551" type="line"/>
      <point x="114" y="551" type="line"/>
      <point x="140" y="576"/>
      <point x="155" y="598"/>
      <point x="172" y="598" type="curve"/>
      <point x="197" y="598"/>
      <point x="284" y="566"/>
      <point x="326" y="561" type="curve"/>
      <point x="336" y="564" type="line"/>
      <point x="399" y="636" type="line"/>
      <point x="399" y="644" type="line"/>
    </contour>
  </outline>
</glyph>
<glyph name="macroncomb" format="2">
  <unicode hex="0304"/>
  <anchor x="222" y="459" name="_top"/>
  <anchor x="243" y="637" name="top"/>
  <outline>
    <contour>
      <point x="381" y="637" type="line"/>
      <point x="98" y="637" type="line"/>
      <point x="93" y="588" type="line"/>
      <point x="99" y="581" type="line"/>
      <point x="382" y="581" type="line"/>
      <point x="387" y="631" type="line"/>
    </contour>
  </outline>
</glyph>
<glyph name="brevecomb" format="2">
  <unicode hex="0306"/>
  <anchor x="229" y="459" name="_top"/>
  <anchor x="255" y="674" name="top"/>
  <outline>
    <contour>
      <point x="355" y="674" type="line"/>
      <point x="342" y="674" type="line"/>
      <point x="322" y="616"/>
      <point x="288" y="588"/>
      <point x="239" y="588" type="curve" smooth="yes"/>
      <point x="191" y="588"/>
      <point x="162" y="616"/>
      <point x="156" y="674" type="curve"/>
      <point x="143" y="674" type="line"/>
      <point x="117" y="643" type="line"/>
      <point x="124" y="574"/>
      <point x="157" y="527"/>
      <point x="237" y="527" type="curve" smooth="yes"/>
      <point x="305" y="527"/>
      <point x="351" y="572"/>
      <point x="374" y="643" type="curve"/>
    </contour>
  </outline>
</glyph>
<glyph name="dieresiscomb" format="2">
  <unicode hex="0308"/>
  <anchor x="225" y="459" name="_top"/>
  <anchor x="236" y="588" name="top"/>
  <outline>
    <contour>
      <point x="162" y="652" type="curve" smooth="yes"/>
      <point x="134" y="652"/>
      <point x="117" y="635"/>
      <point x="117" y="607" type="curve" smooth="yes"/>
      <point x="117" y="580"/>
      <point x="132" y="564"/>
      <point x="159" y="564" type="curve" smooth="yes"/>
      <point x="186" y="564"/>
      <point x="204" y="582"/>
      <point x="204" y="610" type="curve" smooth="yes"/>
      <point x="204" y="636"/>
      <point x="188" y="652"/>
    </contour>
    <contour>
      <point x="327" y="652" type="curve" smooth="yes"/>
      <point x="300" y="652"/>
      <point x="283" y="635"/>
      <point x="283" y="607" type="curve" smooth="yes"/>
      <point x="283" y="580"/>
      <point x="298" y="564"/>
      <point x="325" y="564" type="curve" smooth="yes"/>
      <point x="352" y="564"/>
      <point x="370" y="582"/>
      <point x="370" y="610" type="curve" smooth="yes"/>
      <point x="370" y="636"/>
      <point x="354" y="652"/>
    </contour>
  </outline>
</glyph>
<glyph name="hookabovecomb" format="2">
  <unicode hex="0309"/>
  <anchor x="188" y="511" name="_custom1"/>
  <anchor x="179" y="459" name="_top"/>
  <anchor x="191" y="720" name="top"/>
  <outline>
    <contour>
      <point x="188" y="510" type="line"/>
      <point x="226" y="531" type="line"/>
      <point x="206" y="567" type="line"/>
      <point x="244" y="598"/>
      <point x="259" y="619"/>
      <point x="259" y="644" type="curve" smooth="yes"/>
      <point x="259" y="679"/>
      <point x="230" y="704"/>
      <point x="190" y="704" type="curve" smooth="yes"/>
      <point x="159" y="704"/>
      <point x="126" y="688"/>
      <point x="98" y="660" type="curve"/>
      <point x="115" y="632" type="line"/>
      <point x="135" y="648"/>
      <point x="159" y="656"/>
      <point x="177" y="656" type="curve" smooth="yes"/>
      <point x="193" y="656"/>
      <point x="205" y="649"/>
      <point x="205" y="635" type="curve" smooth="yes"/>
      <point x="205" y="617"/>
      <point x="186" y="591"/>
      <point x="152" y="567" type="curve"/>
    </contour>
  </outline>
</glyph>
<glyph name="ringcomb" format="2">
  <unicode hex="030A"/>
  <anchor x="223" y="459" name="_top"/>
  <anchor x="252" y="700" name="top"/>
  <outline>
    <contour>
      <point x="243" y="700" type="curve" smooth="yes"/>
      <point x="189" y="700"/>
      <point x="157" y="667"/>
      <point x="157" y="616" type="curve" smooth="yes"/>
      <point x="157" y="562"/>
      <point x="192" y="532"/>
      <point x="240" y="532" type="curve" smooth="yes"/>
      <point x="289" y="532"/>
      <point x="327" y="563"/>
      <point x="327" y="618" type="curve" smooth="yes"/>
      <point x="327" y="665"/>
      <point x="298" y="700"/>
    </contour>
    <contour>
      <point x="241" y="659" type="curve" smooth="yes"/>
      <point x="272" y="659"/>
      <point x="287" y="641"/>
      <point x="287" y="615" type="curve" smooth="yes"/>
      <point x="287" y="586"/>
      <point x="268" y="572"/>
      <point x="242" y="572" type="curve" smooth="yes"/>
      <point x="215" y="572"/>
      <point x="197" y="587"/>
      <point x="197" y="617" type="curve" smooth="yes"/>
      <point x="197" y="643"/>
      <point x="212" y="659"/>
    </contour>
  </outline>
</glyph>
<glyph name="hungarumlautcomb" format="2">
  <unicode hex="030B"/>
  <anchor x="187" y="459" name="_top"/>
  <anchor x="243" y="702" name="top"/>
  <outline>
    <contour>
      <point x="225" y="544" type="curve"/>
      <point x="253" y="519" type="line"/>
      <point x="261" y="520" type="line"/>
      <point x="310" y="567"/>
      <point x="359" y="614"/>
      <point x="406" y="664" type="curve"/>
      <point x="405" y="672" type="line"/>
      <point x="366" y="701" type="line"/>
      <point x="359" y="700" type="line"/>
      <point x="316" y="647"/>
      <point x="271" y="595"/>
    </contour>
    <contour>
      <point x="82" y="544" type="curve"/>
      <point x="110" y="519" type="line"/>
      <point x="119" y="520" type="line"/>
      <point x="168" y="567"/>
      <point x="216" y="614"/>
      <point x="263" y="664" type="curve"/>
      <point x="263" y="672" type="line"/>
      <point x="224" y="701" type="line"/>
      <point x="216" y="700" type="line"/>
      <point x="173" y="647"/>
      <point x="129" y="595"/>
    </contour>
  </outline>
</glyph>
<glyph name="caroncomb" format="2">
  <unicode hex="030C"/>
  <anchor x="228" y="459" name="_top"/>
  <anchor x="256" y="691" name="top"/>
  <outline>
    <contour>
      <point x="363" y="691" type="line"/>
      <point x="353" y="691" type="line"/>
      <point x="310" y="655"/>
      <point x="272" y="622"/>
      <point x="237" y="588" type="curve"/>
      <point x="211" y="622"/>
      <point x="182" y="655"/>
      <point x="147" y="691" type="curve"/>
      <point x="138" y="691" type="line"/>
      <point x="111" y="657" type="line"/>
      <point x="149" y="616"/>
      <point x="187" y="570"/>
      <point x="221" y="522" type="curve"/>
      <point x="245" y="522" type="line"/>
      <point x="295" y="573"/>
      <point x="339" y="618"/>
      <point x="381" y="657" type="curve"/>
    </contour>
  </outline>
</glyph>
<glyph name="dblgravecomb" format="2">
  <unicode hex="030F"/>
  <anchor x="270" y="459" name="_top"/>
  <anchor x="214" y="702" name="top"/>
  <outline>
    <contour>
      <point x="390" y="519" type="line"/>
      <point x="418" y="544" type="line"/>
      <point x="372" y="595"/>
      <point x="328" y="647"/>
      <point x="285" y="700" type="curve"/>
      <point x="277" y="701" type="line"/>
      <point x="238" y="672" type="line"/>
      <point x="237" y="664" type="line"/>
      <point x="284" y="614"/>
      <point x="333" y="567"/>
      <point x="382" y="520" type="curve"/>
    </contour>
    <contour>
      <point x="248" y="519" type="line"/>
      <point x="276" y="544" type="line"/>
      <point x="229" y="595"/>
      <point x="185" y="647"/>
      <point x="142" y="700" type="curve"/>
      <point x="134" y="701" type="line"/>
      <point x="95" y="672" type="line"/>
      <point x="95" y="664" type="line"/>
      <point x="142" y="614"/>
      <point x="190" y="567"/>
      <point x="239" y="520" type="curve"/>
    </contour>
  </outline>
</glyph>
<glyph name="horncomb" format="2">
  <unicode hex="031B"/>
  <anchor x="96" y="459" name="_topright"/>
  <anchor x="96" y="459" name="topright"/>
  <outline>
    <contour>
      <point x="72" y="413" type="line"/>
      <point x="153" y="414"/>
      <point x="210" y="455"/>
      <point x="210" y="524" type="curve" smooth="yes"/>
      <point x="210" y="574"/>
      <point x="180" y="611"/>
      <point x="155" y="611" type="curve" smooth="yes"/>
      <point x="141" y="611"/>
      <point x="126" y="603"/>
      <point x="113" y="594" type="curve"/>
      <point x="110" y="586" type="line"/>
      <point x="131" y="566"/>
      <point x="143" y="541"/>
      <point x="143" y="518" type="curve" smooth="yes"/>
      <point x="143" y="480"/>
      <point x="110" y="459"/>
      <point x="72" y="459" type="curve"/>
    </contour>
  </outline>
</glyph>
<glyph name="commaaccentcomb" format="2">
  <unicode hex="0326"/>
  <anchor x="60" y="0" name="_bottom"/>
  <anchor x="46" y="-115" name="bottom"/>
  <outline>
    <contour>
      <point x="74.68719999999999" y="-47.0176" type="curve"/>
      <point x="53.4088" y="-52.820800000000006"/>
      <point x="34.0648" y="-62.4928"/>
      <point x="16.6552" y="-74.0992" type="curve"/>
      <point x="16.6552" y="-81.83680000000001" type="line"/>
      <point x="35.999199999999995" y="-95.3776"/>
      <point x="46.63839999999999" y="-110.8528"/>
      <point x="46.63839999999999" y="-129.2296" type="curve"/>
      <point x="46.63839999999999" y="-158.2456"/>
      <point x="28.261599999999994" y="-187.2616"/>
      <point x="-6.557600000000001" y="-215.31040000000002" type="curve"/>
      <point x="-6.557600000000001" y="-222.0808" type="line"/>
      <point x="21.4912" y="-247.228" type="line"/>
      <point x="84.3592" y="-201.7696"/>
      <point x="115.30959999999999" y="-157.2784"/>
      <point x="115.30959999999999" y="-113.7544" type="curve"/>
      <point x="115.30959999999999" y="-86.6728"/>
      <point x="100.8016" y="-64.4272"/>
    </contour>
  </outline>
</glyph>
<glyph name="cedillacomb" format="2">
  <unicode hex="0327"/>
  <anchor x="146" y="0" name="_bottom"/>
  <anchor x="134" y="-195" name="bottom"/>
  <outline>
    <contour>
      <point x="174" y="20" type="line"/>
      <point x="125" y="20" type="line"/>
      <point x="101" y="-72" type="line"/>
      <point x="149" y="-101" type="line" smooth="yes"/>
      <point x="161" y="-107"/>
      <point x="170" y="-113"/>
      <point x="170" y="-125" type="curve" smooth="yes"/>
      <point x="170" y="-142"/>
      <point x="157" y="-151"/>
      <point x="139" y="-151" type="curve" smooth="yes"/>
      <point x="115" y="-151"/>
      <point x="99" y="-139"/>
      <point x="82" y="-120" type="curve"/>
      <point x="77" y="-122" type="line"/>
      <point x="69" y="-164" type="line"/>
      <point x="85" y="-180"/>
      <point x="109" y="-195"/>
      <point x="143" y="-195" type="curve" smooth="yes"/>
      <point x="192" y="-195"/>
      <point x="226" y="-167"/>
      <point x="226" y="-127" type="curve" smooth="yes"/>
      <point x="226" y="-105"/>
      <point x="216" y="-87"/>
      <point x="187" y="-71" type="curve" smooth="yes"/>
      <point x="153" y="-51" type="line"/>
    </contour>
  </outline>
</glyph>
<glyph name="ogonekcomb" format="2">
  <unicode hex="0328"/>
  <anchor x="184" y="30" name="_ogonek"/>
  <outline>
    <contour>
      <point x="104" y="-197" type="curve" smooth="yes"/>
      <point x="140" y="-197"/>
      <point x="176" y="-179"/>
      <point x="209" y="-149" type="curve"/>
      <point x="196" y="-103" type="line"/>
      <point x="191" y="-103" type="line"/>
      <point x="164" y="-127"/>
      <point x="138" y="-141"/>
      <point x="115" y="-141" type="curve" smooth="yes"/>
      <point x="91" y="-141"/>
      <point x="80" y="-128"/>
      <point x="80" y="-107" type="curve" smooth="yes"/>
      <point x="80" y="-85"/>
      <point x="91" y="-72"/>
      <point x="184" y="30" type="curve"/>
      <point x="130" y="30" type="line"/>
      <point x="37" y="-61"/>
      <point x="18" y="-82"/>
      <point x="18" y="-121" type="curve" smooth="yes"/>
      <point x="18" y="-167"/>
      <point x="52" y="-197"/>
    </contour>
  </outline>
</glyph>
<glyph name="macronbelowcomb" format="2">
  <unicode hex="0331"/>
  <anchor x="134" y="0" name="_bottom"/>
  <anchor x="114" y="-161" name="bottom"/>
  <outline>
    <contour>
      <point x="227" y="-105" type="line"/>
      <point x="7" y="-105" type="line"/>
      <point x="2" y="-154" type="line"/>
      <point x="8" y="-161" type="line"/>
      <point x="229" y="-161" type="line"/>
      <point x="233" y="-111" type="line"/>
    </contour>
  </outline>
</glyph>
<glyph name="ypogegrammenicomb" format="2">
  <unicode hex="0345"/>
  <anchor x="65" y="0" name="_bottom"/>
  <anchor x="40" y="-222" name="bottom"/>
  <outline>
    <contour>
      <point x="10" y="-221" type="line"/>
      <point x="75" y="-217" type="line"/>
      <point x="85" y="-42" type="line"/>
      <point x="79" y="-35" type="line"/>
      <point x="36" y="-39" type="line"/>
      <point x="5" y="-216" type="line"/>
    </contour>
  </outline>
</glyph>
